<svg width="297" height="612" viewBox="0 0 297 612" fill="none" xmlns="http://www.w3.org/2000/svg">
<style type="text/css">
	.st0{fill:#777575;}
</style>

<a href="http://localhost:3000/Shoulders">
<path class="st0" d="M66.83 159.83C66.83 159.83 121.09 133.02 121.09 126.64C121.09 126.64 107.05 120.26 106.41 113.24L93.96 116.43L79.6 120.9L71.3 130.47L66.83 143.87V154.08V159.83ZM234.06 159.83L231.94 140.89L225.98 127.28L211.94 117.91L198.74 113.23L181.72 124.72L194.91 136.53L207.89 149.4L221.3 154.94L231.94 159.83H234.06Z" fill="#777575"/>
</a>
	<a href="http://localhost:3000/Hands">
<path class="st0" d="M18.32 293.87C18.32 293.87 27.89 302.81 33 300.25L36.83 293.87L43.85 278L51.51 269.62L59.81 257.49L66.83 242.17L72.57 231.32V222.38L70.02 226.85L66.83 222.38L60.45 218.55H56.62L53.43 211.53V208.34L45.45 220.47L40.02 232.6L34.91 242.81L31.08 259.41L29.17 272.81L23.43 282.96L18.32 293.87ZM261.72 300.71H273.21L278.32 294.09L275 287.28L268.11 272.81L265.98 257.49L264.28 242.17L257.04 226.85L247.26 208.34L242.57 217.91L236.19 219.19L231.51 223.02L225.55 223.45V226.85L234.06 245.57L247.26 268.98L254.49 282.96L260.45 297.49L261.72 300.71Z" fill="#777575"/>
</a>
	<a href="http://localhost:3000/Triceps">
<path class="st0" d="M53.43 208.34L56.62 218.55H60.45L63.43 220.04L66.83 222.38L70.02 226.85L73.64 224.3L76.19 220.47V214.09L80.45 204.72L83 196.64L89.81 187.28L93.96 176.64L91.94 166.85L93.96 154.94L91.94 149.4L79.6 155.79L66.83 161.74L61.3 185.15L53.43 208.34ZM222.57 220.89L229.38 224.72L234.06 220.89L242.57 217.91L247.26 208.34L241.3 191.11L234.91 176.21L234.06 164.3V159.83L211.09 151.96L207.89 179.62L212.79 191.53L219.6 204.3L221.72 216.21L222.57 220.89Z" fill="#777575"/>
</a>
	<a href="http://localhost:3000/Back">
<path class="st0" d="M121.09 126.64L132.79 173.66L142.57 194.51L149.81 199.19L160.45 188.13L172.36 166.85L178.32 143.87L181.72 124.72H153.6L121.09 126.64ZM181.72 124.72L211.09 151.96L201.3 203.45L194.91 224.72L198.32 251.96L200.45 273.23H185.55L176.19 263.45L171.51 251.96L163.85 234.51L157.89 222.17L153.6 213.66V195.25L169.38 178.34L176.88 149.4L181.72 124.72ZM101.72 273.23L117.04 267.7L126.83 254.53L137.04 233.66L145.55 214.09V202.17V196.44L134.49 177.91L127.26 157.91L121.09 136.53V124.72L91.94 149.4L92.79 171.53L99.6 194.09L100.87 210.26L103.43 224.72L104.28 240.89L100.02 252.38L101.72 273.23Z" fill="#777575"/>
</a>
<a href="http://localhost:3000/Clavs1">
<path class="st0" d="M73.69 508.55H78.74H81.3L84.7 506.85L91.94 517.49L96.62 520.47L105.13 510.26L109.38 486.85L112.36 464.72L97.47 456.64H85.55L78.74 461.32L72.57 500.89L73.69 508.55ZM185.98 520.47H191.51L196.62 507.7L200.02 503.45L207.89 509.83L214.06 509.4L219.17 503.45V488.55L215.34 469.83L207.89 456.64H200.45H188.96L178.32 461.32V480.89L180.02 501.32L185.98 520.47Z" fill="#777575"/>
</a>
<a href="http://localhost:3000/behind">
<path class="st0" d="M151.4 327.7L159.17 340.04L173.21 345.57L190.23 341.31L201.72 328.12V311.95L200.44 290.67L194.7 276.2C194.7 276.2 176.93 267.69 176.56 265.56C176.19 263.43 167.68 271.09 167.68 271.09L157.47 278L151.41 294.51L145.56 284.72L129.82 271.1L118.76 269.4L112.38 273.23L106 284.72L98.77 309.4L100.9 332.8L112.39 345.57L129.84 347.7L140.9 345.15L151.4 327.7ZM178.32 450.26H183.85L188.96 446L195.34 442.6L203.85 446.43H211.09L205.13 429.83L207.89 415.79V400.89V380.47L211.09 361.32V341.32L207.89 321.74L205.98 298.34L202.57 282.96L200.45 273.23L194.7 276.21L201.72 293.23L202.57 308.55L201.72 328.13L198.74 336.21L188.11 343.87L173.21 345.57L167.26 361.74L162.57 378.77L168.53 397.91V409.83L172.36 431.11L178.32 450.26ZM83.85 438.34L91.94 443.87L100.03 441.1L108.97 450.25H116.2L122.16 433.65V416.2L127.69 400.88L135.78 383.01L127.69 349.82L109.82 343.01L103.86 336.63L100.03 325.14L98.33 307.27L101.31 295.36L105.99 284.72L109.82 273.23L100.46 275.78C100.46 275.78 95.78 298.4 95.78 300.71C95.78 303.02 91.95 322.17 91.95 322.17C91.95 322.17 87.69 333.66 87.69 334.94C87.69 336.22 88.12 354.09 88.12 354.09L87.69 377.92L87.26 409.41L83.85 438.34Z" fill="#777575"/>
</a>

<path d="M120.827 40.5888C120.549 35.7631 120.986 31.206 122.196 26.7086C123.634 21.3456 125.954 16.3806 129.088 11.8534C132.222 7.33607 136.595 4.14213 141.325 1.45564C143.071 0.460648 145.034 0.032809 147.038 0.00295919C151.302 -0.0467905 155.427 0.510397 158.958 3.22673C159.464 3.61478 159.989 3.97299 160.535 4.29138C165.771 7.32612 169.291 11.8434 171.473 17.3955C173.238 21.9028 175.073 26.4002 175.767 31.2557C176.015 32.997 175.965 34.7482 176.094 36.4894C176.144 37.2655 175.916 38.0814 176.422 38.8774C176.709 38.8376 177.017 38.7978 177.324 38.7679C179.426 38.559 180.488 39.3252 180.755 41.3947C180.973 43.0564 180.934 44.7479 180.636 46.3896C179.605 52.1705 177.245 57.3047 173.099 61.5235C172.405 62.2299 171.929 62.9463 171.632 63.9015C170.055 68.9362 168.964 74.0704 168.567 79.314C168.21 84.1099 168.795 88.8659 170.243 93.4529C171.909 98.7462 175.39 102.667 180.428 104.816C185.079 106.796 189.562 109.243 194.441 110.686C197.822 111.691 200.788 113.562 203.902 115.114C207.244 116.785 210.675 118.218 214.096 119.681C218.936 121.751 222.922 124.964 226.433 128.815C228 130.536 229.031 132.616 229.844 134.785C232.462 141.77 233.851 149.013 234.019 156.456C234.138 161.709 234.495 166.943 235.041 172.167C235.17 173.44 235.507 174.664 235.963 175.858C238.76 183.221 240.951 190.773 242.587 198.485C243.906 204.693 246.336 210.405 249.738 215.768C254.716 223.638 258.891 231.946 262.58 240.503C264.236 244.334 264.712 248.463 265.496 252.523C266.497 257.687 266.388 262.98 267.35 268.144C269.562 280.064 274.153 290.969 281.472 300.651C283.098 302.8 284.982 304.77 286.916 306.64C291.746 311.327 294.711 317.018 296.268 323.506C296.476 324.351 296.665 325.217 296.714 326.093C296.833 328.212 295.465 329.177 293.491 328.411C292.232 327.923 291.3 326.889 289.792 326.003C290.377 328.013 290.853 329.655 291.339 331.296C292.381 334.799 293.551 338.271 294.255 341.863C294.404 342.639 294.533 343.425 294.572 344.221C294.632 345.286 294.096 346.022 293.114 346.45C292.172 346.848 291.379 346.54 290.734 345.893C290.179 345.336 289.723 344.679 289.257 344.032C288.751 343.336 288.295 342.609 287.61 341.595C287.293 342.57 287.491 343.236 287.581 343.873C287.958 346.48 287.997 349.107 288.007 351.734C288.007 352.052 287.987 352.37 287.948 352.689C287.779 354.042 287.65 355.465 286.113 356.022C284.913 356.45 283.673 355.594 282.602 353.753C281.72 352.231 281.244 350.54 280.698 348.878C280.282 347.614 280.084 346.261 279.389 345.087C278.675 345.445 279.072 346.012 279.062 346.46C279.042 350.052 278.705 353.604 277.932 357.116C277.723 358.052 277.505 359.087 276.375 359.286C275.075 359.524 274.292 358.629 273.737 357.644C272.666 355.763 272.18 353.654 271.694 351.564C271.188 349.356 270.801 347.117 270.008 344.858C269.76 346.032 269.552 347.226 269.254 348.39C268.838 350.002 268.471 351.654 267.311 352.947C265.942 354.47 264.187 354.231 263.354 352.35C262.868 351.256 262.759 350.052 262.61 348.868C261.906 343.087 261.975 337.276 261.826 331.476C261.688 325.983 261.35 320.521 260.507 315.088C260.388 314.302 260.279 313.516 260.24 312.72C259.784 301.835 256.402 291.825 251.186 282.392C245.989 273.01 240.604 263.736 234.852 254.672C231.193 248.901 228.208 242.732 225.808 236.304C225.362 235.12 224.836 233.956 224.261 232.822C222.327 229.031 220.909 225.071 220.473 220.832C219.779 214.046 217.488 207.818 214.056 202.017C211.052 196.932 208.285 191.788 206.916 185.997C206.113 186.097 206.172 186.654 206.113 187.062C205.22 193.629 203.287 199.947 201.472 206.285C200.143 210.952 198.675 215.579 197.862 220.364C196.851 226.275 196.523 232.235 197.158 238.195C198.487 250.771 200.371 263.269 202.483 275.736C203.911 284.124 205.895 292.412 207.134 300.83C209.038 313.665 210.387 326.55 210.258 339.555C210.179 347.515 210.814 355.455 210.764 363.415C210.724 369.484 210.149 375.444 209.078 381.424C207.66 389.334 207.154 397.374 207.501 405.433C207.719 410.528 207.819 415.612 207.005 420.667C205.984 427.045 206.529 433.353 207.839 439.631C208.771 444.059 209.871 448.427 211.101 452.785C213.263 460.427 215.683 468.009 217.16 475.839C217.517 477.71 217.755 479.62 217.855 481.511C218.142 486.675 218.192 491.849 218.569 497.003C219.154 505.003 218.172 512.873 217.22 520.773C215.832 532.216 214.275 543.658 214.671 555.24C214.889 561.767 215.812 568.235 216.397 574.722C216.724 578.403 217.557 581.936 219.074 585.309C219.402 586.035 219.709 586.781 220.145 587.438C221.643 589.697 221.524 592.095 220.78 594.532C220.552 595.288 220.245 596.045 219.838 596.721C217.557 600.482 214.889 603.905 211.428 606.671C210.08 607.746 208.592 608.124 206.976 607.666C204.179 606.87 201.72 605.527 199.935 603.089C193.231 593.995 191.158 583.727 193.102 572.802C194.123 567.05 194.342 561.459 193.449 555.747C192.249 548.096 190.038 540.713 187.677 533.37C185.148 525.509 182.322 517.739 180.061 509.789C178.484 504.236 177.631 498.605 177.473 492.854C177.294 486.575 177.185 480.287 177.086 473.999C176.908 462.118 175.688 450.417 172.118 438.995C169.906 431.93 169.083 424.547 167.943 417.234C166.435 407.583 165.404 397.812 162.28 388.489C160.495 383.146 158.313 377.932 156.201 372.698C154.634 368.828 153.642 364.887 153.504 360.679C153.365 356.47 152.869 352.271 153.236 348.052C153.454 345.515 153.642 342.978 153.9 340.45C154.029 339.217 153.98 338.102 153.047 337.127C152.274 336.331 152.115 335.147 151.332 333.863C150.013 336.311 148.416 338.241 146.948 340.271C146.453 340.958 146.482 341.774 146.373 342.56C144.757 353.992 142.516 365.285 139.045 376.31C138.212 378.967 137.25 381.564 136.02 384.071C133.491 389.215 131.825 394.707 129.951 400.1C128.751 403.553 127.729 407.065 126.609 410.548C125.25 414.757 125.141 419.154 124.715 423.503C123.971 431.214 122.463 438.756 119.776 446.039C116.523 454.845 113.647 463.76 111.664 472.954C110.89 476.556 110.633 480.197 110.514 483.849C110.186 493.6 108.619 503.102 105.942 512.495C104.008 519.261 101.053 525.579 98.5239 532.086C96.6794 536.823 94.805 541.549 93.1588 546.365C92.3357 548.762 91.2548 551.071 90.8879 553.618C90.1342 558.802 90.5209 563.926 91.6118 569.011C92.3556 572.503 93.4464 575.906 93.8927 579.478C94.4282 583.756 93.5357 587.707 91.7705 591.517C90.5705 594.114 89.2416 596.652 87.8929 599.179C85.6319 603.398 82.1213 606.293 77.8768 608.343C76.7661 608.88 75.586 609.019 74.396 608.751C71.0837 608.004 68.5549 606.393 66.7897 603.248C63.8543 598.015 62.5452 592.493 62.803 586.552C62.9121 584.164 63.4576 581.826 64.0526 579.518C66.3831 570.424 68.3665 561.25 69.6259 551.946C70.5482 545.161 70.9647 538.335 70.8556 531.479C70.7069 522.644 70.5284 513.818 70.8655 504.983C70.9945 501.64 71.2424 498.306 71.7382 495.003C72.2142 491.849 72.3927 488.675 72.6406 485.511C73.0671 480.088 74.3067 474.854 75.8637 469.65C77.847 463.034 80.2172 456.536 81.4271 449.691C82.7362 442.318 83.46 434.885 84.2236 427.453C85.7806 412.398 85.7409 397.265 86.207 382.161C86.4153 375.325 86.1476 368.459 85.5823 361.644C84.6997 350.838 85.731 340.221 87.8334 329.635C89.7077 320.192 92.2365 310.909 94.3885 301.536C96.005 294.482 97.7206 287.447 98.6231 280.263C99.2379 275.368 99.347 270.433 99.2677 265.497C99.1785 259.906 99.4561 254.383 101.122 248.971C101.916 246.403 102.441 243.717 102.768 241.04C103.72 233.18 103.304 225.349 102.134 217.509C101.073 210.395 98.8512 203.589 97.2843 196.614C96.3125 192.276 95.1819 187.977 94.1307 183.699C93.1589 183.619 93.139 184.336 92.9506 184.783C90.3028 191.191 87.0401 197.261 83.6485 203.3C80.3164 209.211 78.2437 215.658 77.1231 222.384C76.1513 228.225 74.4257 233.807 71.5002 239.011C66.631 247.667 62.208 256.582 56.833 264.94C53.0051 270.89 49.3655 276.96 45.0517 282.571C42.7609 285.547 40.9461 288.8 39.6767 292.352C38.6057 295.347 37.5445 298.342 36.3743 301.297C35.095 304.531 35.0058 307.984 34.4406 311.347C33.4588 317.148 31.9315 322.839 31.1679 328.69C30.3349 335.038 30.1068 341.366 30.7415 347.724C30.8506 348.848 30.8803 349.943 30.4936 351.017C30.1762 351.903 29.6407 352.599 28.6986 352.749C27.7268 352.898 27.0524 352.301 26.5566 351.515C25.3864 349.644 25.0095 347.525 24.7715 345.386C24.593 343.734 24.5732 342.052 23.8393 340.371C23.6608 341.525 23.4327 342.679 23.3236 343.843C23.0658 346.47 22.451 349.017 21.7171 351.535C21.3799 352.679 20.9238 353.803 20.1106 354.699C18.9007 356.022 17.7206 355.823 17.0165 354.171C16.4215 352.758 16.1834 351.266 16.2529 349.734C16.3421 347.674 16.4809 345.614 16.6098 343.326C15.9157 343.953 15.8264 344.639 15.6082 345.266C14.7157 347.813 13.9819 350.43 12.6828 352.818C11.6812 354.669 10.6894 355.395 9.68783 355.007C8.23996 354.44 8.14077 353.087 8.12094 351.813C8.07135 349.505 8.05151 347.196 8.35893 344.898C8.48785 343.963 8.69616 343.017 8.47799 341.883C7.63505 342.43 7.44658 343.346 6.94082 343.993C6.39538 344.699 5.86979 345.425 4.83843 345.306C3.68806 345.177 3.31122 344.241 3.04346 343.316C2.62695 341.853 2.54761 340.341 2.73604 338.819C3.22197 335.018 4.1145 331.316 5.2847 327.675C5.57229 326.779 5.82025 325.864 6.05825 325.068C5.91942 324.749 5.79048 324.719 5.61198 324.849C4.83845 325.396 4.07484 326.152 3.06331 325.486C2.13112 324.869 2.26998 323.824 2.27989 322.879C2.29973 321.754 2.53768 320.67 2.90461 319.615C4.92767 313.784 7.516 308.292 11.7803 303.695C14.2199 301.058 16.114 298.024 17.7999 294.85C19.5849 291.487 21.5584 288.213 23.284 284.81C25.8822 279.686 27.588 274.233 29.0557 268.681C30.9796 261.378 32.1696 253.906 34.1827 246.612C35.8587 240.533 37.8817 234.603 40.599 228.931C43.4154 223.061 46.3508 217.25 50.2878 211.987C54.0166 207.012 56.2975 201.36 57.4677 195.251C58.3602 190.634 59.5404 186.097 61.2164 181.709C64.3898 173.421 65.8376 164.844 65.1633 155.988C64.5583 148.028 66.5318 140.665 70.0226 133.661C73.3051 127.094 78.452 122.397 85.1558 119.432C89.5292 117.502 94.1307 116.288 98.7619 115.203C104.097 113.95 109.274 112.209 114.47 110.497C115.839 110.049 117.059 109.323 118.259 108.517C120.44 107.064 122.622 105.622 124.804 104.179C127.263 102.547 128.959 100.478 129.752 97.4826C131.032 92.6967 130.933 87.871 130.704 83.0253C130.496 78.5777 129.99 74.15 128.959 69.8018C128.582 68.2198 128.007 66.8069 126.886 65.593C123.187 61.5832 120.5 56.9067 118.169 52.0014C117.376 50.3398 116.821 48.6084 116.394 46.8175C115.452 43.0265 116.722 41.156 120.827 40.5888ZM107.796 115.353C107.945 115.631 108.024 115.88 108.183 116.029C110.662 118.377 113.092 120.775 115.65 123.034C117.644 124.795 120.024 125.91 122.692 126.248C124.814 126.517 126.976 126.517 129.078 126.885C133.342 127.641 137.626 127.77 141.871 127.233C151.798 125.959 161.804 125.83 171.761 125.392C181.648 124.954 189.353 120.407 196.86 114.328C194.589 113.273 192.467 112.447 190.256 111.85C185.317 110.527 180.636 108.547 176.501 105.512C169.698 100.517 165.801 93.9503 165.949 85.2441C166.088 77.5528 167.328 70.0506 169.599 62.7175C172.385 53.7227 174.666 44.6782 173.754 35.0765C172.931 26.4101 170.571 18.2611 165.196 11.4454C161.318 6.52018 156.181 2.98793 149.596 2.35113C146.76 2.07253 144.043 2.47054 141.563 3.91328C137.527 6.24157 133.918 9.18677 131.26 12.9777C124.288 22.9276 121.611 33.9223 123.941 46.0215C124.943 51.2153 126.886 56.0908 128.721 60.9961C132.43 70.9262 133.422 81.2244 133.174 91.7216C133.015 98.587 130.357 104.02 124.189 107.462C122.949 108.159 121.769 108.995 120.619 109.83C118.417 111.442 116.017 112.597 113.399 113.383C111.525 113.95 109.601 114.427 107.796 115.353ZM182.53 130.108C181.955 130.516 182.045 131.133 181.955 131.631C180.974 137.591 179.595 143.481 178.375 149.391C177.155 155.312 176.184 161.312 173.853 166.903C169.549 177.202 164.482 187.082 157.173 195.629C156.667 196.226 156.082 196.773 156.092 197.679C156.132 201.44 155.289 205.101 154.743 208.793C153.989 213.897 154.932 218.444 157.837 222.832C161.933 229.001 165.077 235.717 167.506 242.722C169.827 249.408 172.415 255.985 175.192 262.493C176.352 265.219 177.909 267.696 179.853 269.945C180.428 270.612 181.043 271.219 181.797 271.686C184.791 273.537 188.005 274.9 191.485 275.467C193.955 275.875 196.365 275.258 198.725 274.532C199.449 274.303 200.024 273.796 199.657 272.91C198.764 270.801 198.933 268.532 198.616 266.343C197.832 260.831 196.394 255.428 195.819 249.886C195.413 245.936 195.175 241.956 194.818 238.006C194.302 232.275 194.381 226.543 195.343 220.882C196.672 213.031 198.705 205.35 201.264 197.808C202.335 194.634 203.148 191.41 203.663 188.097C204.774 180.953 205.865 173.799 206.996 166.655C207.521 163.361 208.116 160.068 208.681 156.784C209.167 153.959 209.088 153.7 206.837 152.317C202.424 149.6 198.328 146.496 194.748 142.725C191.247 139.034 187.767 135.342 184.256 131.661C183.711 131.094 183.334 130.347 182.53 130.108ZM101.916 274.094C105.406 273.467 108.867 272.373 112.299 271.189C115.581 270.054 118.011 267.836 119.835 264.93C121.7 261.975 123.554 259.01 125.379 256.035C125.835 255.299 126.301 254.523 126.559 253.707C128.999 245.846 132.608 238.513 136.496 231.309C138.797 227.051 140.433 222.474 142.734 218.185C144.628 214.653 145.272 210.693 144.39 206.604C143.834 204.047 143.339 201.45 143.101 198.843C142.972 197.49 142.535 196.455 141.772 195.4C137.379 189.331 133.58 182.933 131.081 175.809C129.207 170.485 127.68 165.053 126.043 159.66C123.802 152.277 121.769 144.854 121.095 137.113C120.916 135.113 120.768 133.054 120.073 131.163C119.28 131.123 118.953 131.641 118.566 132.009C112.784 137.501 106.418 142.198 99.7536 146.546C97.8992 147.76 96.1736 149.173 94.3787 150.486C93.7936 150.914 93.258 151.342 93.2382 152.177C93.139 156.695 92.4548 161.212 93.387 165.739C94.0216 168.854 94.6563 171.978 94.6167 175.182C94.5968 176.475 94.7753 177.719 95.1422 178.943C97.3934 186.395 99.2082 193.967 101.092 201.529C102.511 207.24 103.859 212.962 104.95 218.743C106.001 224.315 105.743 229.996 105.585 235.638C105.446 240.672 104.732 245.607 103.215 250.413C102.243 253.458 101.767 256.602 101.717 259.796C101.658 264.174 101.578 268.542 101.509 272.92C101.509 273.288 101.479 273.686 101.916 274.094ZM108.937 275.656C106.904 276.243 105.049 276.9 103.135 277.308C101.717 277.606 101.241 278.323 101.082 279.716C100.091 288.75 97.8 297.526 95.6678 306.322C92.6134 318.899 89.1325 331.396 88.1904 344.4C87.7838 350.032 87.2781 355.654 87.8533 361.305C88.5772 368.35 88.9937 375.405 88.5376 382.499C88.1508 388.538 88.488 394.588 88.5276 400.628C88.5871 411.782 87.5855 422.856 86.2765 433.91C86.0186 436.079 85.9195 438.139 87.05 440.149C88.4086 442.567 89.6681 443.223 92.2961 442.477C93.4365 442.149 94.5274 441.661 95.6579 441.313C99.2875 440.199 102.55 440.686 105.188 443.661C106.081 444.666 107.003 445.661 107.925 446.646C109.076 447.88 110.424 448.865 111.902 449.641C114.173 450.825 115.849 450.109 116.712 447.721C118.308 443.303 119.578 438.786 120.668 434.229C121.71 429.9 122.543 425.512 122.563 421.035C122.573 417.264 123.049 413.572 124.07 409.971C126.301 402.09 129.524 394.558 132.142 386.807C132.529 385.643 132.787 384.618 132.43 383.364C129.584 373.504 127.709 363.425 125.934 353.326C125.518 350.977 125.518 350.928 123.177 350.749C121.045 350.589 118.893 350.55 116.92 349.555C115.155 348.659 113.34 347.833 111.654 346.798C107.082 344.012 103.304 340.401 101.33 335.316C99.5156 330.64 98.395 325.744 97.9686 320.73C97.4033 313.934 98.3157 307.237 99.6446 300.591C101.41 291.865 105.228 283.915 108.937 275.656ZM199.231 277.258C198.536 277.378 197.941 277.497 197.336 277.567C196.325 277.696 196.017 278.104 196.365 279.169C197.971 284.173 198.844 289.357 199.974 294.482C201.313 300.531 202.721 306.581 202.94 312.819C203.059 316.242 203.128 319.665 203.346 323.078C203.465 324.938 203.257 326.719 202.781 328.5C200.738 336.202 195.948 341.674 188.986 345.276C183.661 348.032 178.018 349.435 171.989 348.361C170.64 348.122 170.59 348.888 170.442 349.803C168.875 359.654 166.306 369.236 162.677 378.519C162.26 379.583 162.34 380.429 162.726 381.454C165.235 388.101 166.872 394.956 167.953 401.981C169.252 410.468 170.174 419.015 172.028 427.403C173.536 434.229 175.271 441.014 176.868 447.82C177.453 450.338 179.099 451.323 181.549 450.537C182.808 450.139 183.74 449.273 184.663 448.407C186.051 447.104 187.31 445.661 188.758 444.427C192.437 441.293 194.232 441.154 198.398 443.582C200.054 444.547 201.749 445.382 203.554 445.999C204.457 446.308 205.498 446.726 206.262 445.979C206.886 445.373 206.341 444.477 206.172 443.721C204.199 435.124 203.346 426.458 204.615 417.672C205.002 414.985 205.002 412.279 204.992 409.573C204.982 405.672 204.873 401.762 205.091 397.881C205.429 391.772 205.667 385.643 206.916 379.623C207.997 374.459 208.255 369.236 208.315 363.972C208.414 355.614 207.739 347.266 207.829 338.918C207.878 333.814 207.452 328.739 206.728 323.705C205.25 313.476 204.1 303.198 202.176 293.039C201.214 287.795 200.45 282.532 199.231 277.258ZM100.17 317.257C100.002 320.899 101.102 325.376 102.054 329.893C103.482 336.689 107.499 341.425 113.251 344.878C115.353 346.132 117.436 347.565 119.895 347.992C126.053 349.047 132.123 348.699 137.696 345.604C142.664 342.848 146.125 338.699 147.603 333.087C149.11 327.356 149.487 321.476 149.795 315.605C150.142 308.879 149.16 302.243 147.821 295.705C146.681 290.143 144.558 284.81 140.254 280.84C136.347 277.228 132.073 274.024 127.154 271.875C123.435 270.253 119.786 270.383 116.226 272.512C114.232 273.706 113.003 275.497 111.842 277.417C107.895 283.905 104.732 290.72 103.195 298.223C103.145 298.452 103.066 298.68 102.987 298.909C100.914 304.491 100.339 310.332 100.17 317.257ZM152.165 308.362C152.165 310.511 152.135 312.66 152.165 314.799C152.264 321.446 153.117 327.953 155.576 334.182C157.103 338.033 159.602 340.848 163.43 342.679C168.032 344.878 172.643 346.072 177.84 345.853C181.449 345.704 184.484 344.749 187.36 342.799C188.808 341.823 190.325 340.938 191.664 339.823C196.732 335.625 199.974 330.61 200.45 323.645C201.006 315.436 199.955 307.466 198.556 299.476C197.386 292.82 195.71 286.273 194.094 279.716C193.796 278.492 193.429 277.666 191.912 277.925C191.238 278.044 190.484 277.865 189.8 277.696C184.712 276.432 179.992 274.572 176.808 270.025C175.757 268.532 175.658 268.652 173.923 269.378C170.571 270.771 167.873 273.139 165.027 275.268C161.566 277.855 158.68 281.039 156.181 284.542C154.991 286.203 154.237 288.134 153.603 290.133C151.718 296.123 152.036 302.243 152.165 308.362ZM180.22 126.835C175.251 127.701 170.501 127.701 165.781 128.118C159.94 128.646 154.059 128.367 148.228 129.064C144.608 129.492 140.988 130.069 137.349 129.979C132.926 129.86 128.503 129.502 124.08 129.213C122.384 129.104 122.315 129.123 122.463 130.825C122.791 134.467 123.534 138.049 124.139 141.66C127.134 159.491 133.511 176.087 142.258 191.828C143.706 194.435 145.58 196.644 147.891 198.524C148.694 199.181 149.319 199.221 150.231 198.743C152.115 197.768 153.424 196.216 154.803 194.674C157.758 191.34 160.495 187.868 162.568 183.878C166.009 177.251 168.766 170.296 172.078 163.61C173.288 161.172 174.091 158.605 174.646 155.949C175.926 149.809 177.205 143.66 178.484 137.521C179.179 134.108 179.813 130.676 180.22 126.835ZM145.986 200.624C145.808 202.355 146.353 203.947 146.671 205.529C147.444 209.3 147.127 212.932 145.828 216.554C144.757 219.549 143.537 222.484 142.258 225.389C139.223 232.304 136.486 239.339 133.184 246.135C130.685 251.279 127.591 256.115 125.409 261.428C124.655 263.269 123.277 264.761 121.987 266.283C121.601 266.741 120.956 267.069 121.095 268.015C125.012 266.841 128.205 268.562 131.28 270.661C133.184 271.955 135.098 273.238 136.952 274.602C143.17 279.159 147.524 285.059 149.636 292.541C149.725 292.87 149.725 293.308 150.251 293.477C150.876 292.432 150.915 291.198 151.252 290.074C151.907 287.944 152.333 285.696 153.642 283.875C157.004 279.218 160.802 274.96 165.592 271.686C167.943 270.074 170.214 268.323 172.584 266.741C173.476 266.144 173.447 265.627 173.02 264.801C171.364 261.617 170.253 258.224 169.182 254.801C167.328 248.881 165.017 243.13 162.756 237.359C160.713 232.155 157.817 227.399 154.971 222.623C152.581 218.613 151.262 214.404 152.095 209.658C152.413 207.857 152.73 206.056 153.018 204.255C153.236 202.833 153.801 201.42 153.553 199.838C149.2 202.325 149.2 202.325 145.986 200.624ZM74.1183 510.963C74.0786 511.729 74.0291 512.117 74.039 512.505C74.277 520.535 74.1877 528.574 74.0786 536.604C74.039 539.778 73.9299 542.972 73.5431 546.126C72.2043 557.11 69.9135 567.896 66.7203 578.503C65.6195 582.164 64.6476 585.896 65.193 589.766C65.8674 594.522 67.3946 599.03 69.5069 603.338C70.3399 605.049 71.8275 605.875 73.672 606.114C75.705 606.373 77.619 606.005 79.3743 604.92C81.0701 603.865 82.5279 602.542 83.7972 600.98C88.2896 595.448 90.4615 588.94 91.711 582.055C92.0581 580.165 91.8994 578.274 91.3143 576.393C90.6598 574.274 90.0747 572.115 89.5689 569.956C87.3872 560.683 88.1309 551.678 91.8101 542.862C94.7257 535.897 97.443 528.863 100.21 521.838C100.458 521.211 100.973 520.594 100.626 519.818C96.7488 522.097 94.1307 521.977 90.8085 519.42C89.7772 518.634 88.9937 517.649 88.3888 516.515C87.3376 514.555 86.2963 512.584 85.265 510.614C83.4998 507.251 82.0221 507.013 79.5131 509.57C78.1247 510.992 76.4884 511.938 74.1183 510.963ZM214.889 511.012C214.185 510.913 213.908 511.381 213.531 511.639C210.02 514.097 207.63 513.818 204.844 510.565C204.169 509.779 203.584 508.923 202.87 508.177C200.381 505.58 198.279 505.998 196.95 509.311C196.127 511.38 195.284 513.44 194.52 515.53C193.171 519.201 190.702 521.669 186.914 522.733C186.934 523.052 186.904 523.311 186.983 523.519C189.988 531.072 191.644 539.041 193.975 546.802C194.887 549.847 195.581 552.951 196.067 556.106C196.841 561.061 196.206 565.916 195.274 570.792C193.618 579.408 194.53 587.756 198.328 595.696C199.915 599.01 201.908 602.084 205.062 604.174C207.452 605.756 208.662 605.825 210.873 604.015C213.967 601.477 216.417 598.343 218.231 594.761C219.342 592.562 219.342 590.323 218.212 588.115C216.496 584.761 215.346 581.209 214.651 577.528C214.037 574.254 213.58 570.931 213.194 567.618C211.557 553.399 212.371 539.181 213.422 524.972C213.769 520.286 214.156 515.629 214.889 511.012ZM179.893 481.68C179.893 482.237 179.932 482.794 179.883 483.351C179.06 494.684 180.557 505.699 184.375 516.405C184.94 517.987 185.506 519.51 187.31 519.758C189.076 519.997 189.591 518.306 190.395 517.201C191.981 514.992 192.923 512.445 193.975 509.958C194.748 508.117 195.581 506.336 197.039 504.903C199.121 502.873 200.688 502.804 202.771 504.814C204.249 506.246 205.587 507.828 207.095 509.231C208.741 510.764 210.07 511.002 211.785 509.629C214.523 507.44 216.922 504.993 216.585 500.923C216.129 495.54 215.762 490.137 215.673 484.744C215.584 479.67 214.701 474.805 213.094 470.029C210.883 463.462 206.45 459.342 199.746 457.74C197.515 457.203 195.194 457.133 192.894 457.123C187.935 457.094 183.869 459.153 180.299 462.437C179.664 463.024 179.347 463.671 179.476 464.546C180.299 470.228 179.823 475.959 179.893 481.68ZM52.5787 213.569C52.182 213.718 51.9936 213.728 51.9142 213.827C51.5176 214.325 51.1308 214.822 50.7738 215.35C45.2599 223.588 41.0254 232.444 37.9115 241.856C35.0852 250.403 33.6075 259.289 31.4556 268.005C29.9184 274.204 27.9747 280.233 25.1484 285.964C23.9187 288.462 22.7683 290.999 21.5188 293.477C21.0328 294.452 21.1122 295.248 21.7171 296.123C24.0278 299.476 27.2904 300.959 31.2572 300.959C33.1315 300.959 33.429 300.73 33.8455 298.889C34.7678 294.87 36.6124 291.288 38.7644 287.835C39.8552 286.084 40.956 284.333 42.1064 282.611C47.2731 274.89 52.2712 267.05 57.3487 259.269C63.041 250.563 67.8111 241.269 72.1052 231.767C72.7398 230.354 73.2853 228.882 73.5332 227.319C72.9283 227.22 72.6605 227.548 72.3233 227.727C70.2606 228.842 68.5946 228.603 66.9781 226.892C66.4922 226.374 66.0955 225.767 65.7087 225.17C63.7253 222.116 63.4278 221.986 59.8775 222.673C59.6395 222.723 59.4114 222.782 59.1833 222.822C56.0397 223.399 54.1555 222.205 53.2629 219.161C52.7373 217.399 52.8365 215.559 52.5787 213.569ZM224.34 226.703C224.916 228.822 225.59 230.245 226.284 231.668C233.295 245.926 241.08 259.776 248.895 273.597C253.704 282.114 258.713 290.502 260.785 300.233C260.904 300.8 261.152 301.188 261.787 301.417C264.306 302.332 266.745 302.332 269.115 300.999C270.861 300.024 272.378 298.81 273.588 297.158C274.371 296.084 274.58 295.238 273.955 293.944C272.12 290.153 270.365 286.333 268.877 282.392C265.773 274.144 264.117 265.617 263.562 256.831C263.046 248.781 260.775 241.239 256.808 234.195C253.347 228.036 250.055 221.777 246.673 215.579C246.435 215.141 246.346 214.494 245.652 214.464C245.592 214.544 245.533 214.593 245.503 214.663C245.414 214.882 245.344 215.111 245.265 215.34C243.797 219.956 240.832 222.742 235.884 223.19C234.009 223.359 232.413 224.245 231.005 225.479C229.18 227.061 227.216 228.046 224.34 226.703ZM73.7315 500.515C73.7315 501.63 73.7018 502.744 73.7415 503.848C73.7911 505.202 74.0191 506.545 74.5447 507.798C75.2389 509.46 75.824 509.619 77.1628 508.505C77.7082 508.047 78.1842 507.51 78.7197 507.032C81.3279 504.674 83.6088 504.804 85.8699 507.5C86.4748 508.226 86.931 509.082 87.3872 509.908C88.2698 511.51 89.083 513.142 89.9457 514.754C90.7986 516.346 92.0978 517.49 93.6349 518.375C95.8464 519.649 97.433 519.43 99.1189 517.51C100.587 515.838 101.717 513.908 102.996 512.097C104.187 510.415 104.791 508.594 105.129 506.624C106.398 499.341 107.31 492.008 108.034 484.655C108.53 479.6 108.728 474.506 110.246 469.601C110.752 467.969 110.702 466.735 109.452 465.163C106.309 461.193 102.292 459.044 97.5025 458.009C95.0629 457.482 92.6531 457.462 90.2235 458.158C87.4765 458.944 84.8782 460.128 82.2403 461.183C81.199 461.601 80.9214 462.407 80.6833 463.372C78.9677 470.148 77.1826 476.904 75.824 483.759C74.7133 489.282 73.7911 494.844 73.7315 500.515ZM90.6499 153.381C89.797 153.282 89.2119 153.919 88.5574 154.297C82.4684 157.869 76.2802 161.282 69.8243 164.137C68.0293 164.933 67.3946 166.018 67.1169 167.799C66.3632 172.595 65.4211 177.341 63.6262 181.888C61.8808 186.336 60.651 190.942 59.7486 195.639C58.9057 200.037 57.4876 204.236 55.3951 208.206C55.1373 208.693 54.7902 209.211 54.7703 209.728C54.6612 212.753 54.8001 215.758 55.5141 218.733C55.8414 220.076 56.6744 220.573 57.9338 220.484C58.9553 220.414 59.9866 220.265 60.9981 220.106C63.6361 219.678 65.6591 220.563 67.0773 222.852C67.583 223.658 68.0987 224.464 68.6937 225.2C69.0904 225.698 69.7449 226.265 70.33 225.817C72.2341 224.384 74.6538 223.429 75.0802 220.573C76.2108 212.992 79.0371 206.037 83.0337 199.529C86.7624 193.48 89.7078 187.072 91.8895 180.306C92.3258 178.963 92.4547 177.729 92.1275 176.356C90.7887 170.674 90.2433 164.913 90.63 159.073C90.7589 157.192 90.6499 155.302 90.6499 153.381ZM211.309 155.332C211.27 155.59 211.19 155.899 211.181 156.197C210.972 163.272 210.576 170.346 209.604 177.361C208.553 184.992 210.397 191.798 214.423 198.246C218.499 204.753 221.702 211.668 222.555 219.429C222.724 220.951 223.309 222.145 224.241 223.26C226.006 225.369 226.839 225.489 229.031 223.887C229.676 223.419 230.281 222.912 230.915 222.434C232.343 221.349 233.9 220.782 235.735 220.663C240.892 220.345 245.027 214.474 243.411 209.439C241.467 203.39 239.89 197.221 237.778 191.221C234.793 182.714 232.284 174.117 232.056 165.023C232.016 163.501 231.371 162.884 229.943 162.406C224.023 160.406 218.023 158.565 212.509 155.521C212.162 155.332 211.815 155.152 211.309 155.332ZM119.28 128.288C115.532 127.203 113.171 124.974 110.831 122.686C109.006 120.905 107.548 118.815 105.823 116.955C105.277 116.368 104.791 116.119 103.968 116.338C99.3074 117.601 94.5869 118.676 89.9755 120.089C82.3196 122.427 76.181 126.915 72.4027 134.108C68.9218 140.735 66.8294 147.78 67.474 155.411C67.5731 156.595 67.5433 157.799 67.5632 158.983C67.6128 161.451 66.988 162.307 70.3598 160.724C84.9972 153.859 98.514 145.183 111.237 135.233C113.895 133.143 116.374 130.805 119.28 128.288ZM231.52 159.988C231.56 159.58 231.629 159.272 231.609 158.963C231.233 152.536 230.509 146.168 228.892 139.899C226.671 131.312 221.266 125.641 213.432 122.029C209.475 120.208 205.399 118.626 201.621 116.447C200.054 115.542 198.993 115.8 197.614 116.845C193.251 120.139 188.877 123.442 183.77 125.571C183.502 125.681 183.145 125.77 183.235 126.337C185.694 128.875 188.233 131.492 190.762 134.108C197.525 141.073 204.665 147.571 213.025 152.615C218.767 156.078 224.886 158.545 231.52 159.988ZM291.538 342.012C291.706 340.261 291.23 339.067 290.843 337.873C289.296 333.117 287.71 328.361 286.143 323.615C285.845 322.71 285.548 321.814 285.895 320.829C286.341 319.546 287.006 319.317 287.928 320.312C289.286 321.754 290.397 323.436 291.974 324.67C292.609 325.167 293.144 325.933 294.126 325.884C294.265 325.088 293.918 324.53 293.66 323.973C292.41 321.307 291.359 318.56 290.447 315.765C289.891 314.073 288.999 312.62 287.839 311.267C284.07 306.879 279.498 303.257 276.236 298.521C275.512 298.651 275.373 299.158 275.125 299.546C272.636 303.367 269.155 305.078 264.593 304.551C261.906 304.243 261.787 304.412 262.193 307.098C262.253 307.486 262.352 307.874 262.431 308.262C263.542 313.974 264.365 319.705 264.137 325.555C264.087 326.66 264.286 327.774 264.345 328.879C264.544 332.361 265.297 335.804 265 339.336C264.732 342.58 264.474 345.843 264.95 349.097C265.04 349.734 264.891 350.5 265.734 350.987C266.735 349.276 266.953 347.455 267.35 345.694C267.747 343.913 268.034 342.102 268.401 340.311C268.61 339.276 268.887 338.241 270.176 338.072C271.168 337.943 271.872 338.57 272.388 340.162C272.705 341.137 272.904 342.162 273.112 343.177C273.737 346.371 274.342 349.574 274.956 352.778C275.075 353.365 275.145 354.002 275.77 354.42C276.305 353.425 276.146 352.48 276.127 351.545C276.077 347.963 276.067 344.381 275.909 340.809C275.849 339.346 276.335 337.993 276.454 336.58C276.494 336.062 276.761 335.654 277.267 335.525C277.902 335.356 278.378 335.744 278.636 336.242C279.072 337.087 279.429 337.973 279.736 338.868C280.986 342.56 282.295 346.221 283.832 349.803C284.199 350.669 284.457 351.674 285.637 352.291C285.776 348.888 285.34 345.833 284.754 342.799C284.368 340.769 283.882 338.759 283.594 336.709C283.326 334.859 283.971 334.341 285.716 334.63C287.174 334.868 287.789 335.973 288.453 337.057C289.405 338.55 289.941 340.341 291.538 342.012ZM10.6895 351.166C12.1968 348.57 13.0893 345.784 13.8331 342.948C14.4579 340.57 15.0033 338.162 15.638 335.784C15.8463 335.028 16.1537 334.261 16.5702 333.615C17.1454 332.719 17.7701 332.749 18.4842 333.585C19.2379 334.47 19.5254 335.495 19.5354 336.669C19.575 339.784 19.0792 342.848 18.742 345.933C18.5437 347.783 18.4346 349.624 18.6924 351.754C19.6742 350.977 19.6742 350.142 19.8825 349.425C20.9734 345.664 21.1518 341.754 21.846 337.923C22.084 336.58 22.3518 335.286 23.3435 334.252C24.1666 333.396 24.593 333.396 25.0095 334.5C25.7632 336.5 26.4871 338.53 26.6557 340.699C26.7846 342.361 26.8838 344.032 27.1219 345.684C27.2904 346.848 27.2111 348.152 28.4507 349.316C28.3119 347.584 28.1829 346.162 28.0838 344.749C27.3797 334.401 29.4027 324.321 31.1184 314.222C31.6638 311.008 32.3382 307.824 32.8142 304.601C32.9431 303.705 32.6952 303.347 31.6936 303.347C26.6161 303.307 22.213 301.785 19.1387 297.198C17.3437 299.944 15.7074 302.68 13.5653 305.019C9.61839 309.307 6.9706 314.322 5.23513 319.854C5.09629 320.302 4.73928 320.759 5.0467 321.346C6.10782 320.6 6.55408 319.526 7.33752 318.749C7.75403 318.332 8.25981 318.093 8.84491 318.342C9.4201 318.58 9.64816 319.098 9.61841 319.695C9.58865 320.252 9.53909 320.809 9.39033 321.346C8.87465 323.177 8.36887 325.018 7.76394 326.829C6.48465 330.689 5.53264 334.62 4.9277 338.63C4.75912 339.744 4.45171 340.928 5.25498 342.122C6.03842 341.425 6.29624 340.58 6.65325 339.794C7.59536 337.684 8.31932 335.505 9.03334 333.306C9.25151 332.63 9.45974 331.923 9.80683 331.316C10.3324 330.391 11.1555 330.371 11.6117 331.296C12.1671 332.421 12.6728 333.595 12.4249 334.938C11.9588 337.515 11.5522 340.112 11.1258 342.689C10.6597 345.485 10.1837 348.281 10.6895 351.166ZM85.1955 442.378C84.3824 447.741 83.0733 453.084 81.794 458.984C93.2184 452.805 103.026 454.566 111.594 463.77C112.755 459.979 113.836 456.457 114.976 452.745C111.009 453.034 108.342 451.293 106.21 448.457C105.357 447.313 104.385 446.248 103.423 445.193C101.906 443.532 100.061 442.935 97.8297 443.402C96.4215 443.701 95.1025 444.218 93.7737 444.726C90.3226 446.049 87.7343 445.183 86.1575 442.835C85.979 442.597 85.8104 442.308 85.1955 442.378ZM143.289 345.704C142.942 345.634 142.843 345.585 142.793 345.614C142.525 345.783 142.258 345.953 142.01 346.152C139.352 348.261 136.387 349.664 133.015 350.231C131.845 350.43 130.675 350.609 129.504 350.798C127.987 351.037 127.898 351.117 128.166 352.649C129.683 361.256 131.18 369.872 133.947 378.2C134.136 378.778 134.126 379.494 135.108 379.991C138.797 368.738 142.287 357.534 143.289 345.704ZM157.123 341.684C156.498 342.102 156.538 342.44 156.518 342.739C156.221 347.256 155.923 351.773 155.745 356.301C155.477 362.738 156.736 368.778 159.503 374.529C159.721 374.987 159.771 375.653 160.594 375.733C160.723 375.395 160.872 375.046 160.991 374.688C162.766 369.086 164.561 363.494 166.296 357.883C167.159 355.077 167.834 352.211 168.24 349.296C168.498 347.395 168.488 347.385 166.713 346.709C163.321 345.415 159.781 344.401 157.123 341.684ZM209.524 459.223C209.653 459.103 209.772 458.974 209.901 458.845C209.138 455.79 208.374 452.736 207.62 449.671C207.442 448.935 206.936 448.905 206.341 449.054C204.596 449.502 203.088 448.905 201.611 448.049C199.836 447.014 197.991 446.089 196.226 445.034C194.411 443.94 192.775 444.139 191.228 445.502C190.514 446.129 189.829 446.795 189.145 447.452C187.836 448.716 186.577 450.049 185.208 451.243C183.413 452.805 181.33 453.681 178.881 453.313C178.564 453.263 178.256 453.283 177.939 453.731C178.276 455.671 178.643 457.74 179.02 459.919C189.095 451.89 199.171 450.517 209.524 459.223ZM125.448 60.24C125.478 59.6728 125.558 59.4141 125.488 59.225C123.703 54.2998 121.839 49.3945 121.214 44.1409C121.204 44.0613 121.184 43.9817 121.164 43.9121C121.016 43.2852 120.579 42.9867 119.974 42.927C119.27 42.8574 118.735 43.1459 118.447 43.8026C118.189 44.3996 118.14 45.0265 118.259 45.6732C119.27 51.1158 121.958 55.7028 125.448 60.24ZM173.724 57.046C174.17 57.0261 174.379 56.7973 174.547 56.5386C177.096 52.5287 178.673 48.1905 178.762 43.3947C178.772 42.5887 179.089 41.3151 178.068 41.1957C177.136 41.0863 176.58 42.2106 176.263 43.126C176.114 43.5638 176.104 44.0613 176.084 44.529C175.926 47.305 175.39 50.0114 174.736 52.7078C174.379 54.1307 173.794 55.5237 173.724 57.046Z" fill="black"/>
</svg>
