<?xml version="1.0" encoding="utf-8"?>
<!-- Generator: Adobe Illustrator 28.0.0, SVG Export Plug-In . SVG Version: 6.00 Build 0)  -->
<svg version="1.1" id="Layer_1" classname="backman" xmlns="http://www.w3.org/2000/svg" xmlns:xlink="http://www.w3.org/1999/xlink" x="0px" y="0px"
	 viewBox="0 0 1800 900" style="enable-background:new 0 0 1920 1080;" xml:space="preserve">
<style type="text/css">
	.st0{fill:#777575;}
</style>
<a href="http://localhost:3000/Shoulders">
<path class="st0" d="M751.83,421.83c0,0,54.26-26.81,54.26-33.19c0,0-14.04-6.38-14.68-13.4l-12.45,3.19l-14.36,4.47l-8.3,9.57
	l-4.47,13.4v10.21V421.83z M 919.06,421.83 916.94,402.89 910.98,389.28 896.94,379.91 883.74,375.23 866.72,386.72 879.91,398.53  892.89,411.4 906.3,416.94 916.94,421.83 z"/>
	</a>
	<a href="http://localhost:3000/Hands">
		<path class="st0" d="M703.32,555.87c0,0,9.57,8.94,14.68,6.38l3.83-6.38l7.02-15.87l7.66-8.38l8.3-12.13l7.02-15.32l5.74-10.85
		v-8.94l-2.55,4.47l-3.19-4.47l-6.38-3.83h-3.83l-3.19-7.02v-3.19l-7.98,12.13l-5.43,12.13l-5.11,10.21l-3.83,16.6l-1.91,13.4
		l-5.74,10.15L703.32,555.87z M 946.72,562.71 958.21,562.71 963.32,556.09 960,549.28 953.11,534.81 950.98,519.49 949.28,504.17  942.04,488.85 932.26,470.34 927.57,479.91 921.19,481.19 916.51,485.02 910.55,485.45 910.55,488.85 919.06,507.57 932.26,530.98  939.49,544.96 945.45,559.49 z"/>
	</a>
	<a href="http://localhost:3000/Triceps">
 		<path class="st0" d="M 738.43,470.34 741.62,480.55 745.45,480.55 748.43,482.04 751.83,484.38 755.02,488.85 758.64,486.3  761.19,482.47 761.19,476.09 765.45,466.72 768,458.64 
 		774.81,449.28 778.96,438.64 776.94,428.85 778.96,416.94 776.94,411.4 764.6,417.79 751.83,423.74 746.3,447.15 z M 907.57,482.89 914.38,486.72 919.06,482.89 927.57,479.91 932.26,470.34 926.3,453.11 919.91,438.21 
		919.06,426.3 919.06,421.83 896.09,413.96 892.89,441.62 897.79,453.53 904.6,466.3 906.72,478.21 z" />  <!--triceps-->
	</a>
	<a href="http://localhost:3000/Back">
		<path class="st0" d="M 806.09,388.64 817.79,435.66 827.57,456.51 834.81,461.19 845.45,450.13 857.36,428.85 863.32,405.87  866.72,386.72 838.6,386.72 z M 866.72,386.72 896.09,413.96 886.3,465.45 879.91,486.72 883.32,513.96 885.45,535.23 870.55,535.23  
			861.19,525.45 856.51,513.96 848.85,496.51 842.89,484.17 838.6,475.66 838.6,457.25 854.38,440.34 861.88,411.4 z M 786.72,535.23 802.04,529.7 811.83,516.53 822.04,495.66 830.55,476.09 830.55,464.17 830.55,458.44  819.49,439.91 812.26,419.91 806.09,398.53 806.09,386.72 776.94,411.4 777.79,433.53 784.6,456.09 785.87,472.26 788.43,486.72  789.28,502.89 785.02,514.38 z" ></path>
	</a>

	<a href="http://localhost:3000/Clavs1">
<path class="st0" d="M 758.69,770.55 763.74,770.55 766.3,770.55 769.7,768.85 776.94,779.49 781.62,782.47 790.13,772.26 794.38,748.85 797.36,726.72 
					782.47,718.64 770.55,718.64 763.74,723.32 757.57,762.89 z M 870.98,782.47 876.51,782.47 881.62,769.7 885.02,765.45 892.89,771.83 899.06,771.4 904.17,765.45 
					904.17,750.55 900.34,731.83 892.89,718.64 885.45,718.64 873.96,718.64 863.32,723.32 863.32,742.89 865.02,763.32 z " ></path>
  </a>
 	
  
	<a href="http://localhost:3000/behind">
		<path class="st0" d="M836.4,589.7l7.77,12.34l14.04,5.53l17.02-4.26l11.49-13.19v-16.17l-1.28-21.28l-5.74-14.47
		c0,0-17.77-8.51-18.14-10.64c-0.37-2.13-8.88,5.53-8.88,5.53L842.47,540l-6.06,16.51l-5.85-9.79l-15.74-13.62l-11.06-1.7l-6.38,3.83
		l-6.38,11.49l-7.23,24.68l2.13,23.4l11.49,12.77l17.45,2.13l11.06-2.55L836.4,589.7z M 863.32,712.26 868.85,712.26 873.96,708 880.34,704.6 888.85,708.43 896.09,708.43 890.13,691.83  892.89,677.79 892.89,662.89 892.89,642.47 896.09,623.32 
 		   896.09,603.32 892.89,583.74 890.98,560.34 887.57,544.96 885.45,535.23  879.7,538.21 886.72,555.23 887.57,570.55 886.72,590.13 883.74,598.21 873.11,605.87 858.21,607.57 
  			852.26,623.74 847.57,640.77  853.53,659.91 853.53,671.83 857.36,693.11 z M768.85,700.34l8.09,5.53l8.09-2.77l8.94,9.15h7.23l5.96-16.6v-17.45l5.53-15.32l8.09-17.87l-8.09-33.19 
			l-17.87-6.81l-5.96-6.38l-3.83-11.49l-1.7-17.87l2.98-11.91l4.68-10.64l3.83-11.49l-9.36,2.55c0,0-4.68,22.62-4.68,24.93 s-3.83,21.46-3.83,21.46s-4.26,11.49-4.26,12.77s0.43,19.15,0.43,19.15l-0.43,23.83l-0.43,31.49L768.85,700.34z"/>
	</a>
<g>
	<g >
		<path d="M806.82,299.73c-0.28-4.85,0.16-9.43,1.38-13.95c1.45-5.39,3.79-10.38,6.95-14.93c3.16-4.54,7.57-7.75,12.34-10.45
			c1.76-1,3.74-1.43,5.76-1.46c4.3-0.05,8.46,0.51,12.02,3.24c0.51,0.39,1.04,0.75,1.59,1.07c5.28,3.05,8.83,7.59,11.03,13.17
			c1.78,4.53,3.63,9.05,4.33,13.93c0.25,1.75,0.2,3.51,0.33,5.26c0.05,0.78-0.18,1.6,0.33,2.4c0.29-0.04,0.6-0.08,0.91-0.11
			c2.12-0.21,3.19,0.56,3.46,2.64c0.22,1.67,0.18,3.37-0.12,5.02c-1.04,5.81-3.42,10.97-7.6,15.21c-0.7,0.71-1.18,1.43-1.48,2.39
			c-1.59,5.06-2.69,10.22-3.09,15.49c-0.36,4.82,0.23,9.6,1.69,14.21c1.68,5.32,5.19,9.26,10.27,11.42
			c4.69,1.99,9.21,4.45,14.13,5.9c3.41,1.01,6.4,2.89,9.54,4.45c3.37,1.68,6.83,3.12,10.28,4.59c4.88,2.08,8.9,5.31,12.44,9.18
			c1.58,1.73,2.62,3.82,3.44,6c2.64,7.02,4.04,14.3,4.21,21.78c0.12,5.28,0.48,10.54,1.03,15.79c0.13,1.28,0.47,2.51,0.93,3.71
			c2.82,7.4,5.03,14.99,6.68,22.74c1.33,6.24,3.78,11.98,7.21,17.37c5.02,7.91,9.23,16.26,12.95,24.86c1.67,3.85,2.15,8,2.94,12.08
			c1.01,5.19,0.9,10.51,1.87,15.7c2.23,11.98,6.86,22.94,14.24,32.67c1.64,2.16,3.54,4.14,5.49,6.02
			c4.87,4.71,7.86,10.43,9.43,16.95c0.21,0.85,0.4,1.72,0.45,2.6c0.12,2.13-1.26,3.1-3.25,2.33c-1.27-0.49-2.21-1.53-3.73-2.42
			c0.59,2.02,1.07,3.67,1.56,5.32c1.05,3.52,2.23,7.01,2.94,10.62c0.15,0.78,0.28,1.57,0.32,2.37c0.06,1.07-0.48,1.81-1.47,2.24
			c-0.95,0.4-1.75,0.09-2.4-0.56c-0.56-0.56-1.02-1.22-1.49-1.87c-0.51-0.7-0.97-1.43-1.66-2.45c-0.32,0.98-0.12,1.65-0.03,2.29
			c0.38,2.62,0.42,5.26,0.43,7.9c0,0.32-0.02,0.64-0.06,0.96c-0.17,1.36-0.3,2.79-1.85,3.35c-1.21,0.43-2.46-0.43-3.54-2.28
			c-0.89-1.53-1.37-3.23-1.92-4.9c-0.42-1.27-0.62-2.63-1.32-3.81c-0.72,0.36-0.32,0.93-0.33,1.38c-0.02,3.61-0.36,7.18-1.14,10.71
			c-0.21,0.94-0.43,1.98-1.57,2.18c-1.31,0.24-2.1-0.66-2.66-1.65c-1.08-1.89-1.57-4.01-2.06-6.11c-0.51-2.22-0.9-4.47-1.7-6.74
			c-0.25,1.18-0.46,2.38-0.76,3.55c-0.42,1.62-0.79,3.28-1.96,4.58c-1.38,1.53-3.15,1.29-3.99-0.6c-0.49-1.1-0.6-2.31-0.75-3.5
			c-0.71-5.81-0.64-11.65-0.79-17.48c-0.14-5.52-0.48-11.01-1.33-16.47c-0.12-0.79-0.23-1.58-0.27-2.38
			c-0.46-10.94-3.87-21-9.13-30.48c-5.24-9.43-10.67-18.75-16.47-27.86c-3.69-5.8-6.7-12-9.12-18.46c-0.45-1.19-0.98-2.36-1.56-3.5
			c-1.95-3.81-3.38-7.79-3.82-12.05c-0.7-6.82-3.01-13.08-6.47-18.91c-3.03-5.11-5.82-10.28-7.2-16.1c-0.81,0.1-0.75,0.66-0.81,1.07
			c-0.9,6.6-2.85,12.95-4.68,19.32c-1.34,4.69-2.82,9.34-3.64,14.15c-1.02,5.94-1.35,11.93-0.71,17.92
			c1.34,12.64,3.24,25.2,5.37,37.73c1.44,8.43,3.44,16.76,4.69,25.22c1.92,12.9,3.28,25.85,3.15,38.92
			c-0.08,8,0.56,15.98,0.51,23.98c-0.04,6.1-0.62,12.09-1.7,18.1c-1.43,7.95-1.94,16.03-1.59,24.13c0.22,5.12,0.32,10.23-0.5,15.31
			c-1.03,6.41-0.48,12.75,0.84,19.06c0.94,4.45,2.05,8.84,3.29,13.22c2.18,7.68,4.62,15.3,6.11,23.17c0.36,1.88,0.6,3.8,0.7,5.7
			c0.29,5.19,0.34,10.39,0.72,15.57c0.59,8.04-0.4,15.95-1.36,23.89c-1.4,11.5-2.97,23-2.57,34.64c0.22,6.56,1.15,13.06,1.74,19.58
			c0.33,3.7,1.17,7.25,2.7,10.64c0.33,0.73,0.64,1.48,1.08,2.14c1.51,2.27,1.39,4.68,0.64,7.13c-0.23,0.76-0.54,1.52-0.95,2.2
			c-2.3,3.78-4.99,7.22-8.48,10c-1.36,1.08-2.86,1.46-4.49,1c-2.82-0.8-5.3-2.15-7.1-4.6c-6.76-9.14-8.85-19.46-6.89-30.44
			c1.03-5.78,1.25-11.4,0.35-17.14c-1.21-7.69-3.44-15.11-5.82-22.49c-2.55-7.9-5.4-15.71-7.68-23.7
			c-1.59-5.58-2.45-11.24-2.61-17.02c-0.18-6.31-0.29-12.63-0.39-18.95c-0.18-11.94-1.41-23.7-5.01-35.18
			c-2.23-7.1-3.06-14.52-4.21-21.87c-1.52-9.7-2.56-19.52-5.71-28.89c-1.8-5.37-4-10.61-6.13-15.87c-1.58-3.89-2.58-7.85-2.72-12.08
			c-0.14-4.23-0.64-8.45-0.27-12.69c0.22-2.55,0.41-5.1,0.67-7.64c0.13-1.24,0.08-2.36-0.86-3.34c-0.78-0.8-0.94-1.99-1.73-3.28
			c-1.33,2.46-2.94,4.4-4.42,6.44c-0.5,0.69-0.47,1.51-0.58,2.3c-1.63,11.49-3.89,22.84-7.39,33.92c-0.84,2.67-1.81,5.28-3.05,7.8
			c-2.55,5.17-4.23,10.69-6.12,16.11c-1.21,3.47-2.24,7-3.37,10.5c-1.37,4.23-1.48,8.65-1.91,13.02
			c-0.75,7.75-2.27,15.33-4.98,22.65c-3.28,8.85-6.18,17.81-8.18,27.05c-0.78,3.62-1.04,7.28-1.16,10.95
			c-0.33,9.8-1.91,19.35-4.61,28.79c-1.95,6.8-4.93,13.15-7.48,19.69c-1.86,4.76-3.75,9.51-5.41,14.35
			c-0.83,2.41-1.92,4.73-2.29,7.29c-0.76,5.21-0.37,10.36,0.73,15.47c0.75,3.51,1.85,6.93,2.3,10.52c0.54,4.3-0.36,8.27-2.14,12.1
			c-1.21,2.61-2.55,5.16-3.91,7.7c-2.28,4.24-5.82,7.15-10.1,9.21c-1.12,0.54-2.31,0.68-3.51,0.41c-3.34-0.75-5.89-2.37-7.67-5.53
			c-2.96-5.26-4.28-10.81-4.02-16.78c0.11-2.4,0.66-4.75,1.26-7.07c2.35-9.14,4.35-18.36,5.62-27.71
			c0.93-6.82,1.35-13.68,1.24-20.57c-0.15-8.88-0.33-17.75,0.01-26.63c0.13-3.36,0.38-6.71,0.88-10.03
			c0.48-3.17,0.66-6.36,0.91-9.54c0.43-5.45,1.68-10.71,3.25-15.94c2-6.65,4.39-13.18,5.61-20.06c1.32-7.41,2.05-14.88,2.82-22.35
			c1.57-15.13,1.53-30.34,2-45.52c0.21-6.87-0.06-13.77-0.63-20.62c-0.89-10.86,0.15-21.53,2.27-32.17
			c1.89-9.49,4.44-18.82,6.61-28.24c1.63-7.09,3.36-14.16,4.27-21.38c0.62-4.92,0.73-9.88,0.65-14.84
			c-0.09-5.62,0.19-11.17,1.87-16.61c0.8-2.58,1.33-5.28,1.66-7.97c0.96-7.9,0.54-15.77-0.64-23.65c-1.07-7.15-3.31-13.99-4.89-21
			c-0.98-4.36-2.12-8.68-3.18-12.98c-0.98-0.08-1,0.64-1.19,1.09c-2.67,6.44-5.96,12.54-9.38,18.61
			c-3.36,5.94-5.45,12.42-6.58,19.18c-0.98,5.87-2.72,11.48-5.67,16.71c-4.91,8.7-9.37,17.66-14.79,26.06
			c-3.86,5.98-7.53,12.08-11.88,17.72c-2.31,2.99-4.14,6.26-5.42,9.83c-1.08,3.01-2.15,6.02-3.33,8.99
			c-1.29,3.25-1.38,6.72-1.95,10.1c-0.99,5.83-2.53,11.55-3.3,17.43c-0.84,6.38-1.07,12.74-0.43,19.13
			c0.11,1.13,0.14,2.23-0.25,3.31c-0.32,0.89-0.86,1.59-1.81,1.74c-0.98,0.15-1.66-0.45-2.16-1.24c-1.18-1.88-1.56-4.01-1.8-6.16
			c-0.18-1.66-0.2-3.35-0.94-5.04c-0.18,1.16-0.41,2.32-0.52,3.49c-0.26,2.64-0.88,5.2-1.62,7.73c-0.34,1.15-0.8,2.28-1.62,3.18
			c-1.22,1.33-2.41,1.13-3.12-0.53c-0.6-1.42-0.84-2.92-0.77-4.46c0.09-2.07,0.23-4.14,0.36-6.44c-0.7,0.63-0.79,1.32-1.01,1.95
			c-0.9,2.56-1.64,5.19-2.95,7.59c-1.01,1.86-2.01,2.59-3.02,2.2c-1.46-0.57-1.56-1.93-1.58-3.21c-0.05-2.32-0.07-4.64,0.24-6.95
			c0.13-0.94,0.34-1.89,0.12-3.03c-0.85,0.55-1.04,1.47-1.55,2.12c-0.55,0.71-1.08,1.44-2.12,1.32c-1.16-0.13-1.54-1.07-1.81-2
			c-0.42-1.47-0.5-2.99-0.31-4.52c0.49-3.82,1.39-7.54,2.57-11.2c0.29-0.9,0.54-1.82,0.78-2.62c-0.14-0.32-0.27-0.35-0.45-0.22
			c-0.78,0.55-1.55,1.31-2.57,0.64c-0.94-0.62-0.8-1.67-0.79-2.62c0.02-1.13,0.26-2.22,0.63-3.28c2.04-5.86,4.65-11.38,8.95-16
			c2.46-2.65,4.37-5.7,6.07-8.89c1.8-3.38,3.79-6.67,5.53-10.09c2.62-5.15,4.34-10.63,5.82-16.21c1.94-7.34,3.14-14.85,5.17-22.18
			c1.69-6.11,3.73-12.07,6.47-17.77c2.84-5.9,5.8-11.74,9.77-17.03c3.76-5,6.06-10.68,7.24-16.82c0.9-4.64,2.09-9.2,3.78-13.61
			c3.2-8.33,4.66-16.95,3.98-25.85c-0.61-8,1.38-15.4,4.9-22.44c3.31-6.6,8.5-11.32,15.26-14.3c4.41-1.94,9.05-3.16,13.72-4.25
			c5.38-1.26,10.6-3.01,15.84-4.73c1.38-0.45,2.61-1.18,3.82-1.99c2.2-1.46,4.4-2.91,6.6-4.36c2.48-1.64,4.19-3.72,4.99-6.73
			c1.29-4.81,1.19-9.66,0.96-14.53c-0.21-4.47-0.72-8.92-1.76-13.29c-0.38-1.59-0.96-3.01-2.09-4.23
			c-3.73-4.03-6.44-8.73-8.79-13.66c-0.8-1.67-1.36-3.41-1.79-5.21C801.4,302.18,802.68,300.3,806.82,299.73z M793.68,374.87
			c0.15,0.28,0.23,0.53,0.39,0.68c2.5,2.36,4.95,4.77,7.53,7.04c2.01,1.77,4.41,2.89,7.1,3.23c2.14,0.27,4.32,0.27,6.44,0.64
			c4.3,0.76,8.62,0.89,12.9,0.35c10.01-1.28,20.1-1.41,30.14-1.85c9.97-0.44,17.74-5.01,25.31-11.12c-2.29-1.06-4.43-1.89-6.66-2.49
			c-4.98-1.33-9.7-3.32-13.87-6.37c-6.86-5.02-10.79-11.62-10.64-20.37c0.14-7.73,1.39-15.27,3.68-22.64
			c2.81-9.04,5.11-18.13,4.19-27.78c-0.83-8.71-3.21-16.9-8.63-23.75c-3.91-4.95-9.09-8.5-15.73-9.14c-2.86-0.28-5.6,0.12-8.1,1.57
			c-4.07,2.34-7.71,5.3-10.39,9.11c-7.03,10-9.73,21.05-7.38,33.21c1.01,5.22,2.97,10.12,4.82,15.05
			c3.74,9.98,4.74,20.33,4.49,30.88c-0.16,6.9-2.84,12.36-9.06,15.82c-1.25,0.7-2.44,1.54-3.6,2.38c-2.22,1.62-4.64,2.78-7.28,3.57
			C797.44,373.46,795.5,373.94,793.68,374.87z M869.04,389.7c-0.58,0.41-0.49,1.03-0.58,1.53c-0.99,5.99-2.38,11.91-3.61,17.85
			c-1.23,5.95-2.21,11.98-4.56,17.6c-4.34,10.35-9.45,20.28-16.82,28.87c-0.51,0.6-1.1,1.15-1.09,2.06
			c0.04,3.78-0.81,7.46-1.36,11.17c-0.76,5.13,0.19,9.7,3.12,14.11c4.13,6.2,7.3,12.95,9.75,19.99c2.34,6.72,4.95,13.33,7.75,19.87
			c1.17,2.74,2.74,5.23,4.7,7.49c0.58,0.67,1.2,1.28,1.96,1.75c3.02,1.86,6.26,3.23,9.77,3.8c2.49,0.41,4.92-0.21,7.3-0.94
			c0.73-0.23,1.31-0.74,0.94-1.63c-0.9-2.12-0.73-4.4-1.05-6.6c-0.79-5.54-2.24-10.97-2.82-16.54c-0.41-3.97-0.65-7.97-1.01-11.94
			c-0.52-5.76-0.44-11.52,0.53-17.21c1.34-7.89,3.39-15.61,5.97-23.19c1.08-3.19,1.9-6.43,2.42-9.76
			c1.12-7.18,2.22-14.37,3.36-21.55c0.53-3.31,1.13-6.62,1.7-9.92c0.49-2.84,0.41-3.1-1.86-4.49c-4.45-2.73-8.58-5.85-12.19-9.64
			c-3.53-3.71-7.04-7.42-10.58-11.12C870.23,390.69,869.85,389.94,869.04,389.7z M787.75,534.41c3.52-0.63,7.01-1.73,10.47-2.92
			c3.31-1.14,5.76-3.37,7.6-6.29c1.88-2.97,3.75-5.95,5.59-8.94c0.46-0.74,0.93-1.52,1.19-2.34c2.46-7.9,6.1-15.27,10.02-22.51
			c2.32-4.28,3.97-8.88,6.29-13.19c1.91-3.55,2.56-7.53,1.67-11.64c-0.56-2.57-1.06-5.18-1.3-7.8c-0.13-1.36-0.57-2.4-1.34-3.46
			c-4.43-6.1-8.26-12.53-10.78-19.69c-1.89-5.35-3.43-10.81-5.08-16.23c-2.26-7.42-4.31-14.88-4.99-22.66
			c-0.18-2.01-0.33-4.08-1.03-5.98c-0.8-0.04-1.13,0.48-1.52,0.85c-5.83,5.52-12.25,10.24-18.97,14.61
			c-1.87,1.22-3.61,2.64-5.42,3.96c-0.59,0.43-1.13,0.86-1.15,1.7c-0.1,4.54-0.79,9.08,0.15,13.63c0.64,3.13,1.28,6.27,1.24,9.49
			c-0.02,1.3,0.16,2.55,0.53,3.78c2.27,7.49,4.1,15.1,6,22.7c1.43,5.74,2.79,11.49,3.89,17.3c1.06,5.6,0.8,11.31,0.64,16.98
			c-0.14,5.06-0.86,10.02-2.39,14.85c-0.98,3.06-1.46,6.22-1.51,9.43c-0.06,4.4-0.14,8.79-0.21,13.19
			C787.34,533.6,787.31,534,787.75,534.41z M794.83,535.98c-2.05,0.59-3.92,1.25-5.85,1.66c-1.43,0.3-1.91,1.02-2.07,2.42
			c-1,9.08-3.31,17.9-5.46,26.74c-3.08,12.64-6.59,25.2-7.54,38.27c-0.41,5.66-0.92,11.31-0.34,16.99
			c0.73,7.08,1.15,14.17,0.69,21.3c-0.39,6.07-0.05,12.15-0.01,18.22c0.06,11.21-0.95,22.34-2.27,33.45
			c-0.26,2.18-0.36,4.25,0.78,6.27c1.37,2.43,2.64,3.09,5.29,2.34c1.15-0.33,2.25-0.82,3.39-1.17c3.66-1.12,6.95-0.63,9.61,2.36
			c0.9,1.01,1.83,2.01,2.76,3c1.16,1.24,2.52,2.23,4.01,3.01c2.29,1.19,3.98,0.47,4.85-1.93c1.61-4.44,2.89-8.98,3.99-13.56
			c1.05-4.35,1.89-8.76,1.91-13.26c0.01-3.79,0.49-7.5,1.52-11.12c2.25-7.92,5.5-15.49,8.14-23.28c0.39-1.17,0.65-2.2,0.29-3.46
			c-2.87-9.91-4.76-20.04-6.55-30.19c-0.42-2.36-0.42-2.41-2.78-2.59c-2.15-0.16-4.32-0.2-6.31-1.2c-1.78-0.9-3.61-1.73-5.31-2.77
			c-4.61-2.8-8.42-6.43-10.41-11.54c-1.83-4.7-2.96-9.62-3.39-14.66c-0.57-6.83,0.35-13.56,1.69-20.24
			C787.24,552.27,791.09,544.28,794.83,535.98z M885.88,537.59c-0.7,0.12-1.3,0.24-1.91,0.31c-1.02,0.13-1.33,0.54-0.98,1.61
			c1.62,5.03,2.5,10.24,3.64,15.39c1.35,6.08,2.77,12.16,2.99,18.43c0.12,3.44,0.19,6.88,0.41,10.31c0.12,1.87-0.09,3.66-0.57,5.45
			c-2.06,7.74-6.89,13.24-13.91,16.86c-5.37,2.77-11.06,4.18-17.14,3.1c-1.36-0.24-1.41,0.53-1.56,1.45
			c-1.58,9.9-4.17,19.53-7.83,28.86c-0.42,1.07-0.34,1.92,0.05,2.95c2.53,6.68,4.18,13.57,5.27,20.63
			c1.31,8.53,2.24,17.12,4.11,25.55c1.52,6.86,3.27,13.68,4.88,20.52c0.59,2.53,2.25,3.52,4.72,2.73c1.27-0.4,2.21-1.27,3.14-2.14
			c1.4-1.31,2.67-2.76,4.13-4c3.71-3.15,5.52-3.29,9.72-0.85c1.67,0.97,3.38,1.81,5.2,2.43c0.91,0.31,1.96,0.73,2.73-0.02
			c0.63-0.61,0.08-1.51-0.09-2.27c-1.99-8.64-2.85-17.35-1.57-26.18c0.39-2.7,0.39-5.42,0.38-8.14c-0.01-3.92-0.12-7.85,0.1-11.75
			c0.34-6.14,0.58-12.3,1.84-18.35c1.09-5.19,1.35-10.44,1.41-15.73c0.1-8.4-0.58-16.79-0.49-25.18c0.05-5.13-0.38-10.23-1.11-15.29
			c-1.49-10.28-2.65-20.61-4.59-30.82C887.88,548.18,887.11,542.89,885.88,537.59z M785.99,577.79c-0.17,3.66,0.94,8.16,1.9,12.7
			c1.44,6.83,5.49,11.59,11.29,15.06c2.12,1.26,4.22,2.7,6.7,3.13c6.21,1.06,12.33,0.71,17.95-2.4c5.01-2.77,8.5-6.94,9.99-12.58
			c1.52-5.76,1.9-11.67,2.21-17.57c0.35-6.76-0.64-13.43-1.99-20c-1.15-5.59-3.29-10.95-7.63-14.94c-3.94-3.63-8.25-6.85-13.21-9.01
			c-3.75-1.63-7.43-1.5-11.02,0.64c-2.01,1.2-3.25,3-4.42,4.93c-3.98,6.52-7.17,13.37-8.72,20.91c-0.05,0.23-0.13,0.46-0.21,0.69
			C786.74,564.96,786.16,570.83,785.99,577.79z M838.42,568.85c0,2.16-0.03,4.32,0,6.47c0.1,6.68,0.96,13.22,3.44,19.48
			c1.54,3.87,4.06,6.7,7.92,8.54c4.64,2.21,9.29,3.41,14.53,3.19c3.64-0.15,6.7-1.11,9.6-3.07c1.46-0.98,2.99-1.87,4.34-2.99
			c5.11-4.22,8.38-9.26,8.86-16.26c0.56-8.25-0.5-16.26-1.91-24.29c-1.18-6.69-2.87-13.27-4.5-19.86c-0.3-1.23-0.67-2.06-2.2-1.8
			c-0.68,0.12-1.44-0.06-2.13-0.23c-5.13-1.27-9.89-3.14-13.1-7.71c-1.06-1.5-1.16-1.38-2.91-0.65c-3.38,1.4-6.1,3.78-8.97,5.92
			c-3.49,2.6-6.4,5.8-8.92,9.32c-1.2,1.67-1.96,3.61-2.6,5.62C837.97,556.55,838.29,562.7,838.42,568.85z M866.71,386.41
			c-5.01,0.87-9.8,0.87-14.56,1.29c-5.89,0.53-11.82,0.25-17.7,0.95c-3.65,0.43-7.3,1.01-10.97,0.92
			c-4.46-0.12-8.92-0.48-13.38-0.77c-1.71-0.11-1.78-0.09-1.63,1.62c0.33,3.66,1.08,7.26,1.69,10.89
			c3.02,17.92,9.45,34.6,18.27,50.42c1.46,2.62,3.35,4.84,5.68,6.73c0.81,0.66,1.44,0.7,2.36,0.22c1.9-0.98,3.22-2.54,4.61-4.09
			c2.98-3.35,5.74-6.84,7.83-10.85c3.47-6.66,6.25-13.65,9.59-20.37c1.22-2.45,2.03-5.03,2.59-7.7c1.29-6.17,2.58-12.35,3.87-18.52
			C865.66,393.72,866.3,390.27,866.71,386.41z M832.19,460.57c-0.18,1.74,0.37,3.34,0.69,4.93c0.78,3.79,0.46,7.44-0.85,11.08
			c-1.08,3.01-2.31,5.96-3.6,8.88c-3.06,6.95-5.82,14.02-9.15,20.85c-2.52,5.17-5.64,10.03-7.84,15.37
			c-0.76,1.85-2.15,3.35-3.45,4.88c-0.39,0.46-1.04,0.79-0.9,1.74c3.95-1.18,7.17,0.55,10.27,2.66c1.92,1.3,3.85,2.59,5.72,3.96
			c6.27,4.58,10.66,10.51,12.79,18.03c0.09,0.33,0.09,0.77,0.62,0.94c0.63-1.05,0.67-2.29,1.01-3.42c0.66-2.14,1.09-4.4,2.41-6.23
			c3.39-4.68,7.22-8.96,12.05-12.25c2.37-1.62,4.66-3.38,7.05-4.97c0.9-0.6,0.87-1.12,0.44-1.95c-1.67-3.2-2.79-6.61-3.87-10.05
			c-1.87-5.95-4.2-11.73-6.48-17.53c-2.06-5.23-4.98-10.01-7.85-14.81c-2.41-4.03-3.74-8.26-2.9-13.03
			c0.32-1.81,0.64-3.62,0.93-5.43c0.22-1.43,0.79-2.85,0.54-4.44C835.43,462.28,835.43,462.28,832.19,460.57z M759.72,772.47
			c-0.04,0.77-0.09,1.16-0.08,1.55c0.24,8.07,0.15,16.15,0.04,24.22c-0.04,3.19-0.15,6.4-0.54,9.57
			c-1.35,11.04-3.66,21.88-6.88,32.54c-1.11,3.68-2.09,7.43-1.54,11.32c0.68,4.78,2.22,9.31,4.35,13.64
			c0.84,1.72,2.34,2.55,4.2,2.79c2.05,0.26,3.98-0.11,5.75-1.2c1.71-1.06,3.18-2.39,4.46-3.96c4.53-5.56,6.72-12.1,7.98-19.02
			c0.35-1.9,0.19-3.8-0.4-5.69c-0.66-2.13-1.25-4.3-1.76-6.47c-2.2-9.32-1.45-18.37,2.26-27.23c2.94-7,5.68-14.07,8.47-21.13
			c0.25-0.63,0.77-1.25,0.42-2.03c-3.91,2.29-6.55,2.17-9.9-0.4c-1.04-0.79-1.83-1.78-2.44-2.92c-1.06-1.97-2.11-3.95-3.15-5.93
			c-1.78-3.38-3.27-3.62-5.8-1.05C763.76,772.5,762.11,773.45,759.72,772.47z M901.67,772.52c-0.71-0.1-0.99,0.37-1.37,0.63
			c-3.54,2.47-5.95,2.19-8.76-1.08c-0.68-0.79-1.27-1.65-1.99-2.4c-2.51-2.61-4.63-2.19-5.97,1.14c-0.83,2.08-1.68,4.15-2.45,6.25
			c-1.36,3.69-3.85,6.17-7.67,7.24c0.02,0.32-0.01,0.58,0.07,0.79c3.03,7.59,4.7,15.6,7.05,23.4c0.92,3.06,1.62,6.18,2.11,9.35
			c0.78,4.98,0.14,9.86-0.8,14.76c-1.67,8.66-0.75,17.05,3.08,25.03c1.6,3.33,3.61,6.42,6.79,8.52c2.41,1.59,3.63,1.66,5.86-0.16
			c3.12-2.55,5.59-5.7,7.42-9.3c1.12-2.21,1.12-4.46-0.02-6.68c-1.73-3.37-2.89-6.94-3.59-10.64c-0.62-3.29-1.08-6.63-1.47-9.96
			c-1.65-14.29-0.83-28.58,0.23-42.86C900.54,781.84,900.93,777.16,901.67,772.52z M866.38,743.04c0,0.56,0.04,1.12-0.01,1.68
			c-0.83,11.39,0.68,22.46,4.53,33.22c0.57,1.59,1.14,3.12,2.96,3.37c1.78,0.24,2.3-1.46,3.11-2.57c1.6-2.22,2.55-4.78,3.61-7.28
			c0.78-1.85,1.62-3.64,3.09-5.08c2.1-2.04,3.68-2.11,5.78-0.09c1.49,1.44,2.84,3.03,4.36,4.44c1.66,1.54,3,1.78,4.73,0.4
			c2.76-2.2,5.18-4.66,4.84-8.75c-0.46-5.41-0.83-10.84-0.92-16.26c-0.09-5.1-0.98-9.99-2.6-14.79c-2.23-6.6-6.7-10.74-13.46-12.35
			c-2.25-0.54-4.59-0.61-6.91-0.62c-5-0.03-9.1,2.04-12.7,5.34c-0.64,0.59-0.96,1.24-0.83,2.12
			C866.79,731.53,866.31,737.29,866.38,743.04z M738,473.58c-0.4,0.15-0.59,0.16-0.67,0.26c-0.4,0.5-0.79,1-1.15,1.53
			c-5.56,8.28-9.83,17.18-12.97,26.64c-2.85,8.59-4.34,17.52-6.51,26.28c-1.55,6.23-3.51,12.29-6.36,18.05
			c-1.24,2.51-2.4,5.06-3.66,7.55c-0.49,0.98-0.41,1.78,0.2,2.66c2.33,3.37,5.62,4.86,9.62,4.86c1.89,0,2.19-0.23,2.61-2.08
			c0.93-4.04,2.79-7.64,4.96-11.11c1.1-1.76,2.21-3.52,3.37-5.25c5.21-7.76,10.25-15.64,15.37-23.46
			c5.74-8.75,10.55-18.09,14.88-27.64c0.64-1.42,1.19-2.9,1.44-4.47c-0.61-0.1-0.88,0.23-1.22,0.41c-2.08,1.12-3.76,0.88-5.39-0.84
			c-0.49-0.52-0.89-1.13-1.28-1.73c-2-3.07-2.3-3.2-5.88-2.51c-0.24,0.05-0.47,0.11-0.7,0.15c-3.17,0.58-5.07-0.62-5.97-3.68
			C738.16,477.43,738.26,475.58,738,473.58z M911.2,486.78c0.58,2.13,1.26,3.56,1.96,4.99c7.07,14.33,14.92,28.25,22.8,42.14
			c4.85,8.56,9.9,16.99,11.99,26.77c0.12,0.57,0.37,0.96,1.01,1.19c2.54,0.92,5,0.92,7.39-0.42c1.76-0.98,3.29-2.2,4.51-3.86
			c0.79-1.08,1-1.93,0.37-3.23c-1.85-3.81-3.62-7.65-5.12-11.61c-3.13-8.29-4.8-16.86-5.36-25.69c-0.52-8.09-2.81-15.67-6.81-22.75
			c-3.49-6.19-6.81-12.48-10.22-18.71c-0.24-0.44-0.33-1.09-1.03-1.12c-0.06,0.08-0.12,0.13-0.15,0.2
			c-0.09,0.22-0.16,0.45-0.24,0.68c-1.48,4.64-4.47,7.44-9.46,7.89c-1.89,0.17-3.5,1.06-4.92,2.3
			C916.08,487.14,914.1,488.13,911.2,486.78z M759.33,761.97c0,1.12-0.03,2.24,0.01,3.35c0.05,1.36,0.28,2.71,0.81,3.97
			c0.7,1.67,1.29,1.83,2.64,0.71c0.55-0.46,1.03-1,1.57-1.48c2.63-2.37,4.93-2.24,7.21,0.47c0.61,0.73,1.07,1.59,1.53,2.42
			c0.89,1.61,1.71,3.25,2.58,4.87c0.86,1.6,2.17,2.75,3.72,3.64c2.23,1.28,3.83,1.06,5.53-0.87c1.48-1.68,2.62-3.62,3.91-5.44
			c1.2-1.69,1.81-3.52,2.15-5.5c1.28-7.32,2.2-14.69,2.93-22.08c0.5-5.08,0.7-10.2,2.23-15.13c0.51-1.64,0.46-2.88-0.8-4.46
			c-3.17-3.99-7.22-6.15-12.05-7.19c-2.46-0.53-4.89-0.55-7.34,0.15c-2.77,0.79-5.39,1.98-8.05,3.04c-1.05,0.42-1.33,1.23-1.57,2.2
			c-1.73,6.81-3.53,13.6-4.9,20.49C760.32,750.68,759.39,756.27,759.33,761.97z M776.39,413.09c-0.86-0.1-1.45,0.54-2.11,0.92
			c-6.14,3.59-12.38,7.02-18.89,9.89c-1.81,0.8-2.45,1.89-2.73,3.68c-0.76,4.82-1.71,9.59-3.52,14.16c-1.76,4.47-3,9.1-3.91,13.82
			c-0.85,4.42-2.28,8.64-4.39,12.63c-0.26,0.49-0.61,1.01-0.63,1.53c-0.11,3.04,0.03,6.06,0.75,9.05c0.33,1.35,1.17,1.85,2.44,1.76
			c1.03-0.07,2.07-0.22,3.09-0.38c2.66-0.43,4.7,0.46,6.13,2.76c0.51,0.81,1.03,1.62,1.63,2.36c0.4,0.5,1.06,1.07,1.65,0.62
			c1.92-1.44,4.36-2.4,4.79-5.27c1.14-7.62,3.99-14.61,8.02-21.15c3.76-6.08,6.73-12.52,8.93-19.32c0.44-1.35,0.57-2.59,0.24-3.97
			c-1.35-5.71-1.9-11.5-1.51-17.37C776.5,416.92,776.39,415.02,776.39,413.09z M898.06,415.05c-0.04,0.26-0.12,0.57-0.13,0.87
			c-0.21,7.11-0.61,14.22-1.59,21.27c-1.06,7.67,0.8,14.51,4.86,20.99c4.11,6.54,7.34,13.49,8.2,21.29c0.17,1.53,0.76,2.73,1.7,3.85
			c1.78,2.12,2.62,2.24,4.83,0.63c0.65-0.47,1.26-0.98,1.9-1.46c1.44-1.09,3.01-1.66,4.86-1.78c5.2-0.32,9.37-6.22,7.74-11.28
			c-1.96-6.08-3.55-12.28-5.68-18.31c-3.01-8.55-5.54-17.19-5.77-26.33c-0.04-1.53-0.69-2.15-2.13-2.63
			c-5.97-2.01-12.02-3.86-17.58-6.92C898.92,415.05,898.57,414.87,898.06,415.05z M805.26,387.87c-3.78-1.09-6.16-3.33-8.52-5.63
			c-1.84-1.79-3.31-3.89-5.05-5.76c-0.55-0.59-1.04-0.84-1.87-0.62c-4.7,1.27-9.46,2.35-14.11,3.77
			c-7.72,2.35-13.91,6.86-17.72,14.09c-3.51,6.66-5.62,13.74-4.97,21.41c0.1,1.19,0.07,2.4,0.09,3.59c0.05,2.48-0.58,3.34,2.82,1.75
			c14.76-6.9,28.39-15.62,41.22-25.62C799.83,392.75,802.33,390.4,805.26,387.87z M918.44,419.73c0.04-0.41,0.11-0.72,0.09-1.03
			c-0.38-6.46-1.11-12.86-2.74-19.16c-2.24-8.63-7.69-14.33-15.59-17.96c-3.99-1.83-8.1-3.42-11.91-5.61
			c-1.58-0.91-2.65-0.65-4.04,0.4c-4.4,3.31-8.81,6.63-13.96,8.77c-0.27,0.11-0.63,0.2-0.54,0.77c2.48,2.55,5.04,5.18,7.59,7.81
			c6.82,7,14.02,13.53,22.45,18.6C905.58,415.8,911.75,418.28,918.44,419.73z M978.96,602.67c0.17-1.76-0.31-2.96-0.7-4.16
			c-1.56-4.78-3.16-9.56-4.74-14.33c-0.3-0.91-0.6-1.81-0.25-2.8c0.45-1.29,1.12-1.52,2.05-0.52c1.37,1.45,2.49,3.14,4.08,4.38
			c0.64,0.5,1.18,1.27,2.17,1.22c0.14-0.8-0.21-1.36-0.47-1.92c-1.26-2.68-2.32-5.44-3.24-8.25c-0.56-1.7-1.46-3.16-2.63-4.52
			c-3.8-4.41-8.41-8.05-11.7-12.81c-0.73,0.13-0.87,0.64-1.12,1.03c-2.51,3.84-6.02,5.56-10.62,5.03c-2.71-0.31-2.83-0.14-2.42,2.56
			c0.06,0.39,0.16,0.78,0.24,1.17c1.12,5.74,1.95,11.5,1.72,17.38c-0.05,1.11,0.15,2.23,0.21,3.34c0.2,3.5,0.96,6.96,0.66,10.51
			c-0.27,3.26-0.53,6.54-0.05,9.81c0.09,0.64-0.06,1.41,0.79,1.9c1.01-1.72,1.23-3.55,1.63-5.32c0.4-1.79,0.69-3.61,1.06-5.41
			c0.21-1.04,0.49-2.08,1.79-2.25c1-0.13,1.71,0.5,2.23,2.1c0.32,0.98,0.52,2.01,0.73,3.03c0.63,3.21,1.24,6.43,1.86,9.65
			c0.12,0.59,0.19,1.23,0.82,1.65c0.54-1,0.38-1.95,0.36-2.89c-0.05-3.6-0.06-7.2-0.22-10.79c-0.06-1.47,0.43-2.83,0.55-4.25
			c0.04-0.52,0.31-0.93,0.82-1.06c0.64-0.17,1.12,0.22,1.38,0.72c0.44,0.85,0.8,1.74,1.11,2.64c1.26,3.71,2.58,7.39,4.13,10.99
			c0.37,0.87,0.63,1.88,1.82,2.5c0.14-3.42-0.3-6.49-0.89-9.54c-0.39-2.04-0.88-4.06-1.17-6.12c-0.27-1.86,0.38-2.38,2.14-2.09
			c1.47,0.24,2.09,1.35,2.76,2.44C976.81,599.19,977.35,600.99,978.96,602.67z M695.76,611.87c1.52-2.61,2.42-5.41,3.17-8.26
			c0.63-2.39,1.18-4.81,1.82-7.2c0.21-0.76,0.52-1.53,0.94-2.18c0.58-0.9,1.21-0.87,1.93-0.03c0.76,0.89,1.05,1.92,1.06,3.1
			c0.04,3.13-0.46,6.21-0.8,9.31c-0.2,1.86-0.31,3.71-0.05,5.85c0.99-0.78,0.99-1.62,1.2-2.34c1.1-3.78,1.28-7.71,1.98-11.56
			c0.24-1.35,0.51-2.65,1.51-3.69c0.83-0.86,1.26-0.86,1.68,0.25c0.76,2.01,1.49,4.05,1.66,6.23c0.13,1.67,0.23,3.35,0.47,5.01
			c0.17,1.17,0.09,2.48,1.34,3.65c-0.14-1.74-0.27-3.17-0.37-4.59c-0.71-10.4,1.33-20.53,3.06-30.68c0.55-3.23,1.23-6.43,1.71-9.67
			c0.13-0.9-0.12-1.26-1.13-1.26c-5.12-0.04-9.56-1.57-12.66-6.18c-1.81,2.76-3.46,5.51-5.62,7.86c-3.98,4.31-6.65,9.35-8.4,14.91
			c-0.14,0.45-0.5,0.91-0.19,1.5c1.07-0.75,1.52-1.83,2.31-2.61c0.42-0.42,0.93-0.66,1.52-0.41c0.58,0.24,0.81,0.76,0.78,1.36
			c-0.03,0.56-0.08,1.12-0.23,1.66c-0.52,1.84-1.03,3.69-1.64,5.51c-1.29,3.88-2.25,7.83-2.86,11.86c-0.17,1.12-0.48,2.31,0.33,3.51
			c0.79-0.7,1.05-1.55,1.41-2.34c0.95-2.12,1.68-4.31,2.4-6.52c0.22-0.68,0.43-1.39,0.78-2c0.53-0.93,1.36-0.95,1.82-0.02
			c0.56,1.13,1.07,2.31,0.82,3.66c-0.47,2.59-0.88,5.2-1.31,7.79C695.73,606.16,695.25,608.97,695.76,611.87z M770.89,703.54
			c-0.82,5.39-2.14,10.76-3.43,16.69c11.52-6.21,21.41-4.44,30.05,4.81c1.17-3.81,2.26-7.35,3.41-11.08c-4,0.29-6.69-1.46-8.84-4.31
			c-0.86-1.15-1.84-2.22-2.81-3.28c-1.53-1.67-3.39-2.27-5.64-1.8c-1.42,0.3-2.75,0.82-4.09,1.33c-3.48,1.33-6.09,0.46-7.68-1.9
			C771.68,703.76,771.51,703.47,770.89,703.54z M829.47,606.38c-0.35-0.07-0.45-0.12-0.5-0.09c-0.27,0.17-0.54,0.34-0.79,0.54
			c-2.68,2.12-5.67,3.53-9.07,4.1c-1.18,0.2-2.36,0.38-3.54,0.57c-1.53,0.24-1.62,0.32-1.35,1.86c1.53,8.65,3.04,17.31,5.83,25.68
			c0.19,0.58,0.18,1.3,1.17,1.8C824.94,629.53,828.46,618.27,829.47,606.38z M843.42,602.34c-0.63,0.42-0.59,0.76-0.61,1.06
			c-0.3,4.54-0.6,9.08-0.78,13.63c-0.27,6.47,1,12.54,3.79,18.32c0.22,0.46,0.27,1.13,1.1,1.21c0.13-0.34,0.28-0.69,0.4-1.05
			c1.79-5.63,3.6-11.25,5.35-16.89c0.87-2.82,1.55-5.7,1.96-8.63c0.26-1.91,0.25-1.92-1.54-2.6
			C849.67,606.09,846.1,605.07,843.42,602.34z M896.26,720.47c0.13-0.12,0.25-0.25,0.38-0.38c-0.77-3.07-1.54-6.14-2.3-9.22
			c-0.18-0.74-0.69-0.77-1.29-0.62c-1.76,0.45-3.28-0.15-4.77-1.01c-1.79-1.04-3.65-1.97-5.43-3.03c-1.83-1.1-3.48-0.9-5.04,0.47
			c-0.72,0.63-1.41,1.3-2.1,1.96c-1.32,1.27-2.59,2.61-3.97,3.81c-1.81,1.57-3.91,2.45-6.38,2.08c-0.32-0.05-0.63-0.03-0.95,0.42
			c0.34,1.95,0.71,4.03,1.09,6.22C875.66,713.1,885.82,711.72,896.26,720.47z M811.48,319.48c0.03-0.57,0.11-0.83,0.04-1.02
			c-1.8-4.95-3.68-9.88-4.31-15.16c-0.01-0.08-0.03-0.16-0.05-0.23c-0.15-0.63-0.59-0.93-1.2-0.99c-0.71-0.07-1.25,0.22-1.54,0.88
			c-0.26,0.6-0.31,1.23-0.19,1.88C805.25,310.31,807.96,314.92,811.48,319.48z M860.16,316.27c0.45-0.02,0.66-0.25,0.83-0.51
			c2.57-4.03,4.16-8.39,4.25-13.21c0.01-0.81,0.33-2.09-0.7-2.21c-0.94-0.11-1.5,1.02-1.82,1.94c-0.15,0.44-0.16,0.94-0.18,1.41
			c-0.16,2.79-0.7,5.51-1.36,8.22C860.82,313.34,860.23,314.74,860.16,316.27z"/>
		<path d="M1061.67,504.66c-0.08,0.45-0.32,0.69-0.8,0.61c-0.34-0.06-0.58-0.27-0.58-0.61c-0.01-0.45,0.27-0.74,0.7-0.76
			C1061.46,503.88,1061.64,504.23,1061.67,504.66z"/>
	</g>
</g>
<path class="st0" d="M581.79,423.96"/>
</svg>