<?xml version="1.0" encoding="utf-8"?>
<!-- Generator: Adobe Illustrator 28.0.0, SVG Export Plug-In . SVG Version: 6.00 Build 0)  -->
<svg version="1.1" id="Layer_1" xmlns="http://www.w3.org/2000/svg" xmlns:xlink="http://www.w3.org/1999/xlink" x="0px" y="0px"
	 viewBox="0 0 800 700" style="enable-background:new 0 0 1800 1300;" xml:space="preserve">
<style type="text/css">
	.st0{fill:#9B9B9A;}
	.st1{fill:#9B9A99;}
</style>
<g id="Warstwa_2">
		<a href="http://localhost:3000/Clavs1">
	<path class="st0" d="M306.6,355.4c0,0,7.1-1,16.3,57.2s26,48,26,48l-2.5,15.3l-2.5,19.4l-9.2,8.2h-6.9l-5.9-3.6h-5.1l-4.1,3.6
		l-3.1-3.6l-3.1-6.6v-8.2l-4.1-11.7l-3.1-14.8v-8.2v-9.7v-11.2v-13.8v-15.3l2-12.3l1.5-17.5L306.6,355.4z
		M366.4,460.6l2.5,13.3c0,0,0,8.7,0,10.7s2.1,10.7,2.1,10.7l4.6,8.2h5.1l7.1-3.1l5.6-2.5h6.6l5.6-2l3.1-8.2
		l4.1-15.3l2.5-11.7v-12.3V432l2-16.3l-2.5-11.7l-1-11.7l-1.5-15.3l-1.5-12.3l-3.1-6.1l-7.1,30.1l-8.7,37.3l-11.2,25.5
		C380.7,451.4,372,462.7,366.4,460.6z"/>
		</a>

		<a href="http://localhost:3000/Hands">
	<path class="st0"  d="M285.2,295.1c-2.7,1.4-5.7,1.7-8.7,1.1c-2.1-0.4-4-1.4-5.1-3.3c-1-1.9-1.1-4.1-1.2-6.1l-8.1,7.9l-4.3,9.7
		l-4.6,18.6l-2.8,16.6l-4.1,15.8l-5.6,20.7l3.3,5.9h6.6l6.6-1.8l4.1-5.4l1.8-6.1l5.4-13.3l5.9-10.2l4.1-11.7l7.2-13.3l3.3-10v-8.4
		l2.9-10.5C289.6,292.3,287.6,293.9,285.2,295.1z M467.2,350l-4.3-21.2l-4.6-18.4l-3.3-11l-3.1-7.7l-5.2-5c-0.6,5-3.3,9.7-7.5,12.6c-2.3,1.6-5.1,2.5-7.9,2.3
		c-2.6-0.2-4.8-1.2-6.8-2.7l1.7,9.4l7.9,22l15.3,31.9l5.4,14.5l6.9,5.1l5.6-1.8l4.1-3.1l3.1-6.5L467.2,350z"/> <!-- hand-->
		</a>

	<a href="http://localhost:3000/Biceps">
		<path class="st0" d="M304.3,261.4c0-6,0.2-16-7.4-17.5c-3.4-0.7-7.2,0.6-10.3,2c-3.4,1.6-6.5,3.6-9.4,5.9c-0.2,0.2-0.5,0.2-0.7,0.2
			l-1.4,8l-1.8,11.2l-1.7,13.5c0.3,0.1,0.6,0.4,0.6,0.9c0,2-0.1,4.4,0.9,6.2c0.9,1.7,2.8,2.2,4.6,2.4c2.9,0.3,5.3-0.3,7.8-1.8
			c2.3-1.4,4.4-2.8,7-3.6l6.8-11.6l4.1-9.7l0.6,1.5C304.2,266.5,304.3,264,304.3,261.4z M408.8,250.1c0-1.3,2-1.3,2,0c0,6-0.7,12.1,0.7,18l11.4,26.8l0.1,0.5c0,0,0,0,0,0c2.1,2,4.7,3.7,7.6,3.8
			c2.5,0.1,4.9-0.7,6.9-2.2c4.4-3.2,6.7-8.8,6.4-14.1l-3.1-13.1l-1.3-9.7l-2.5-10.6c-7.2-2.4-15.2-2.6-22.6-1.5"/><!-- biceps-->
	</a>

	<a href="http://localhost:3000/Abs">
		<path class="st0" d="M328.3,301.3l-1.8-15.3l-5.9-18.4l-8.1-13.2c-0.1,0.5-0.7,0.8-1.2,0.7c-1.9-0.6-3.8-1.3-5.5-2.3
			c1.1,6.6,0.2,13.7,0.2,20.3c0,0.2-0.1,0.4-0.2,0.5l1.8,4.7l3.1,14.8l1.5,17.9l-3.3,13.8l0.8,6.1l-1.3,15.6l-0.8,1.5l4.6,1.8
			c0,0,11,0,14.8-13c3.8-13,2.3-15.3,2.3-15.3L328.3,301.3z M413.3,249.9c-3.5,0.5-7,1.3-10.2,2.8c-2.3,1.1-4.7,2.7-5.6,5.1c-0.3,0.7-1.1,0.8-1.6,0.5
			c-3.8,4.8-8.1,11.1-7.7,14.4c0.8,5.9-5.6,12-2.5,18.9c3.1,6.9-3.6,15.3-3.6,15.3l2.8,2.3l-0.3,14.5l5.4,22l6.6,5.9l6.9-1l-1.3-6.9
			l1.3-10v-5.6l-2-8.7l-2-8.7v-7.9l2-12.3l4.1-11.7l0.9-2.7"/> <!-- left abs-->
	</a>

	<a href="http://localhost:3000/Traps">
		<path class="st0" d="M318.1,203.2c4.3,1,9,0.9,13.4,0.6c3.4-0.2,6.8-0.7,10.2-1l-1.9-0.2l0.5-8.2l-0.5-16.6l-5.9,7.4l-6.1,4.1
			l-9.7,4.8l-9.2,1.3l-2,3.4C310.6,200.4,314.1,202.3,318.1,203.2z M408.5,195.7l-7.9-1.1l-8.7-2.5l-6.9-4.9l-8.9-6.4l-0.8,5.9l-0.5,9.2v3.9C386.2,199.7,397.7,199.3,408.5,195.7
			z"/> <!-- traps-->
	</a>
	
	<a href="http://localhost:3000/Chest">
		<path class="st0" d="M352.9,204.8l-6.2-1.2c-0.1,0.4-0.4,0.7-0.9,0.8c-4.1,0.4-8.2,1-12.4,1.4c-0.1,0.3-0.4,0.6-0.9,0.6
			c-5.8,0-11.2,1.8-15.9,5.1c-8.6,5.8-14.5,14.8-21,22.6c-3.5,4.1-7.3,8.1-11.6,11.3c1.2-0.6,2.5-1.2,3.7-1.7
			c3.4-1.4,7.4-2.3,10.9-1.1c3.4,1.1,5.6,4,6.6,7.4c0,0.2,0.1,0.3,0.1,0.5c0.1,0,0.2,0,0.3,0.1c2,1.3,4,2,6.2,2.8l-0.8-1.3l11.2,5.1
			l7.5,3.1l16.5-6.4l9.2-6.3v-41.7L352.9,204.8z M423.7,235.5c-4.3-4.8-8.4-9.9-12.7-14.7c-1.9-2.1-3.7-4.3-6-6c-2-1.6-4.2-3-6.5-4.2
			c-5.1-2.8-10.6-4.8-16.2-6.3c-4-1.1-8-1.8-12.1-2.2l-5.8,1.7l-6.8,2.5l-0.2-0.1v39.7l0,0l14.3,10.2l11.7,3.1l11.7-4.1l4.6-2.5
			c1.4-1.3,3-2.3,4.8-3.1c7.4-3.3,16.2-3.9,24.1-3.1c2.7,0.3,5.4,0.7,8,1.4C432,244.1,427.7,239.9,423.7,235.5z"/> <!-- chest-->
    </a>

	<a href="http://localhost:3000/Shoulders">
		<path class="st0" d="M384.5,202.7c5.5,1.6,11,3.7,16,6.5c2.2,1.2,4.3,2.6,6.2,4.2c2.3,1.9,4.3,4.2,6.3,6.5c8,9.1,15.4,19,25.2,26.3
			l0.5-6.5l1.3-13.8l-1.8-8.4l-5.6-8.2l-10.7-8.9l-10.1-3.9c-10,3.9-20.6,4.9-31.3,5.1C381.8,202,383.1,202.4,384.5,202.7z M327.1,204.2c-5,1.7-10,3.9-14.5,6.8c-2,1.3-3.8,2.7-5.6,4.3c-2.1,1.9-3.8,4.3-5.6,6.6
			c-7.1,9.2-13.7,19-22.4,26.5l-0.6-6.4l-1.5-13.6l1.4-8.4l5-8.2l9.6-9.1l9.1-4c9.2,3.6,19,4.3,28.8,4.4
			C329.5,203.4,328.3,203.8,327.1,204.2z"/> <!-- shoulders-->
	</a>

	
	<path class="st0" d="M307,198.7l2-3.4c0,0-3.7,0.4-7.2,1C303.5,197,305.2,197.8,307,198.7z"/>
	<a href="/Abs">
	<polygon class="st0" points="337.5,260.5 347.5,260.5 355.9,262.8 364.8,258.9 373.3,258.9 380.9,260.8 383,269.1 384.2,284.5 
		384.2,290.1 384,305.6 380.9,326.8 372,358.5 366.4,367.2 362.5,371.8 357.4,373.6 352.1,372.3 345.2,364.1 339.1,351.1 
		336.2,337.6 333.9,324.3 332.9,312.8 331.4,293.4 331.4,275.3 	"/>
	</a>

</g>
<g id="Warstwa_1">
	<g>
		<g>
			<path d="M303.1,272.1c-0.7,1.5-1.4,2.8-2.1,4.2c-1.3,2.5-2.6,5.1-4.2,7.5c-2,3.1-3.2,6.5-4.5,10c-1.3,3.6-1.8,7.2-1.7,11
				c0.1,4.4-1,8.5-2.6,12.5c-1.3,3.3-3.1,6.4-4.8,9.5c-2.1,3.9-3.3,8.1-4.9,12.2c-1.4,3.7-3.2,7.2-5.4,10.5c-2.9,4.6-5,9.6-7.2,14.6
				c-1.4,3.2-2.4,6.5-3.4,9.8c1,1.9-0.8,3-1.2,4.6c-0.6,2.3-0.4,4.7-0.7,7c-0.5,3.6-1.5,7-2.3,10.5c-0.9,4-1.5,8.1-2.7,12.1
				c-0.8,2.5-1.5,5-1.7,7.7c-0.1,2.5-0.1,5-0.1,7.5c0.1,3.4-0.1,6.7-1.1,10c-0.2,0.6-0.4,1.2-0.8,1.7c-1,1.5-2.8,1.3-3.5-0.3
				c-0.9-2-1.2-4.2-1.5-6.4c-0.4-3.2-1.1-6.4-1.2-9.7c-0.8,3.2-1.6,6.4-2.4,9.6c-0.6,2.4-0.9,4.9-1.6,7.2c-0.6,1.9-1.2,3.7-2.1,5.5
				c-0.7,1.4-1.6,1.9-2.9,1.7c-1.3-0.2-2-0.9-2.3-2.4c-0.5-2.6-0.1-5.1,0.3-7.6c0.6-4,1.5-7.9,2.2-11.9c0-0.2,0-0.5,0-0.7
				c-1.2,2.6-2.8,5-3.7,7.7c-1.3,3.8-2.9,7.5-4.6,11.2c-0.6,1.2-1.3,2.4-2.5,3.1c-1.8,1-3.2,0.5-3.9-1.3c-1.1-2.6-1.1-5.2,0.1-7.7
				c2.2-4.6,3.8-9.4,5.8-14c0.4-1,0.6-2.2,0.8-3.4c-1.3,1.7-2.6,3.4-3.6,5.3c-1.5,2.8-2.8,5.7-4.5,8.3c-1.2,1.8-2.8,3.3-4.4,4.7
				c-1.3,1.1-3.4,0.1-3.8-1.7c-0.4-1.9,0.2-3.7,0.9-5.5c1.1-3.1,2.8-5.8,4.6-8.5c3.5-5.3,5.6-11.2,6.9-17.4c0.1-0.4,0.2-0.9-0.2-1.2
				c-0.5-0.3-0.9,0-1.3,0.4c-1.7,1.6-2.9,3.5-4.3,5.3c-1.5,2-3.4,3.6-5.3,5.2c-1,0.9-2.2,1.3-3.6,0.9c-1.1-0.3-1.7-1.2-1.5-2.4
				c0.2-1.2,0.8-2.3,1.5-3.2c4.4-5.4,8.3-11.2,12.9-16.4c2.4-2.7,5.1-4.8,8.3-6.4c1.2-0.6,2.4-1.3,3.5-2c2-1.3,3.5-3,3.7-5.5
				c0.1-1.2,0.6-2.3,1.1-3.4c1.2-2.8,1.6-5.8,2.7-8.6c0.5-1.1,0.8-2.3,1.3-3.5c0.9-2.2,1.7-4.6,2-7c0.5-4.1,2.3-8,2.9-12.1
				c1-7.8,2.9-15.5,4.3-23.2c1.1-6.1,3.3-11.8,5.1-17.6c0.8-2.5,2.7-4.3,4.4-6.2c3.2-3.6,5.5-7.6,7.3-12c0.9-2.3,1-4.8,1.4-7.2
				c0.8-4.9,1-9.9,2.4-14.8c0.3-1,0.5-2,1-3c1.1-2.4,0.9-4.9,0.5-7.4c-0.3-2-0.5-4-0.7-6.1c-0.5-6-0.4-12,0.5-17.9
				c0.5-3.2,1.5-6.2,3.1-9c1-1.6,1.4-3.5,2.6-5.1c5.1-6.9,11.3-12.4,19.6-15.4c3.1-1.1,6.2-1.1,9.4-0.7c2.7,0.4,5.2-0.2,7.9-1
				c2.7-0.8,5.2-1.8,7.5-3.4c3.6-2.4,7.3-4.6,10.4-7.9c1.4-1.5,2.4-3,2.8-5.1c0.8-4.8,1.5-9.6,1.4-14.5c0-1.7-0.4-3.2-1.7-4.6
				c-1.3-1.4-2.1-3.2-2.5-5.1c-0.4-1.7-1.4-2.9-2.6-3.9c-2.6-2.2-3.8-5-3.7-8.3c0.1-2.1-0.2-4.3,0.2-6.5c0.4-1.7,1.4-2.4,3-1.9
				c0.9,0.3,0.9-0.1,0.9-0.8c0-3,0.3-6,0.8-8.9c1-5.7,3.8-10.4,7.3-14.9c1.5-1.9,3.2-3.5,5.3-4.8c1.4-0.8,2.9-0.8,4.4-1.1
				c2.8-0.7,5.6-1.5,8.5-1.1c3.4,0.5,6.7,1.1,9.6,3.5c4.9,4,7.5,9,9,15c0.9,3.5,1.4,7.1,1.6,10.6c0.1,1.2,0.2,2.3,0.2,3.5
				c0,0.3,0,0.6,0.5,0.5c2.1-0.2,3.6,1,3.5,3.2c-0.2,3.2-0.7,6.4-1.9,9.5c-0.6,1.5-1.6,2.6-3,3.3c-0.7,0.4-1,0.9-1.1,1.7
				c-0.3,2.1-1,4.1-2.1,6c-1.1,1.9-1.3,4-1.4,6.1c-0.2,4.5,0.3,8.9,1,13.4c0.3,1.9,1.6,3.3,2.9,4.4c3.6,2.9,7.2,5.8,11,8.4
				c2.3,1.6,4.9,2.7,7.5,3.8c1.8,0.8,3.6,1.4,5.6,1.6c0.6,0,1.1,0.1,1.7,0c4.1-1,8-0.3,11.7,1.2c4.8,1.9,9.2,4.5,12.9,8.1
				c1.7,1.6,3.2,3.3,4.8,5c1.6,1.7,2.2,4.1,3.5,6.1c2.6,4,3.3,8.6,3.5,13.3c0.2,4.9-0.1,9.6-2,14.2c-0.2,0.6-0.3,1.1-0.4,1.7
				c-0.8,4.9,0.3,9.6,2.2,14.1c1.6,3.9,2.6,7.9,2.5,12.1c-0.1,4.7,1.2,9.1,3.2,13.2c0.5,1.1,1.2,2.2,2.1,3.1c3.9,4,6.1,8.9,7.8,14.1
				c1.7,5.1,3.3,10.3,4.7,15.4c1.8,6.4,3.1,13,4.3,19.5c1.6,8.9,4,17.6,6.8,26.2c1.4,4.4,2.9,8.9,4.2,13.3c0.5,1.6,1.2,3.2,1.9,4.8
				c0.2,0.6,0.8,0.8,1.3,1.1c2,1.3,4.2,2.1,6.3,3.2c2.7,1.5,5.4,3,7.7,5c2.7,2.4,4.7,5.4,6.4,8.6c0.9,1.7,1.8,3.2,3.2,4.5
				c1.7,1.6,3.1,3.4,3.1,5.9c0,1.7-0.8,2.5-2.5,2.3c-2.9-0.4-5.4-1.6-7.1-4.1c-1.5-2.1-3.5-4-5-6.1c-0.2-0.4-0.6-0.7-0.9-0.9
				c-1-0.7-1.9-0.3-2,0.9c-0.1,1.9,0.5,3.7,1.1,5.5c0.8,2.1,1.8,4.1,3.1,6c2.2,3.2,3.5,6.8,5.3,10.2c1.2,2.2,2.2,4.6,2.9,7.1
				c0.2,0.9,0.4,1.8,0.1,2.7c-0.5,1.3-1.8,1.9-3,1.3c-0.9-0.4-1.5-1-2.1-1.8c-2.6-3.3-4.7-6.8-6.9-10.4c-1.2-2-2.7-3.8-4.2-5.5
				c0.2,1.9,0.9,3.7,1.5,5.4c1.6,4.6,3.6,9.1,4.7,14c0.2,1,0.4,2,0.5,3.1c0.2,1.5-0.4,2.7-1.5,3.6c-0.9,0.8-2.3,0.7-3.3-0.1
				c-1.3-1-2.3-2.2-2.9-3.8c-2.4-6-4.8-12.1-6.7-18.3c-0.4-1.1-0.7-2.3-1.9-3.4c0.2,2.8,0.2,5.3,0.9,7.8c1,4,2.1,8,3.1,12.1
				c0.4,1.7,1,3.4,0.3,5.2c-0.8,2.1-2.3,2.6-4.1,1.3c-0.9-0.6-1.4-1.5-1.8-2.5c-2.5-5.4-3.8-11.1-4.8-16.9c-0.4-2.3-0.8-4.7-2-6.9
				c-0.3,0.4-0.2,0.8-0.2,1.1c-0.1,4.1-0.6,8.1-0.6,12.2c0,1.3-0.3,2.6-0.5,3.9c-0.2,1.1-0.7,2-2,2.1c-1.1,0-1.8-0.7-2.2-1.7
				c-1-2-1.2-4-1.4-6.1c-0.4-4.8-0.5-9.5,0-14.2c0.1-0.9,0.1-1.8-0.4-2.6c-0.9-1.6-1.1-3.5-1.5-5.2c-1.4-6.2-2.7-12.4-3.7-18.7
				c-0.5-3.3-1.3-6.6-1.1-10c0.1-1.5-0.6-3-1.2-4.5c-2.1-5.2-4.7-10.3-7.2-15.4c-1-2-1.7-4.2-2.7-6.3c-2-4.3-4.2-8.6-6.2-12.9
				c-2-4.5-4-9-5.4-13.7c-0.7-2.4-2-4.5-3.1-6.7c-2.3-4.7-3.3-9.7-3.3-15c0-3.2-1.1-6.1-2.2-9c-2.6-7.2-6.2-13.9-9.5-20.9
				c-0.5-1.1-1-2.2-1.6-3.6c-0.6,2.8-1.8,5.2-2.1,7.9c-0.4,4-2.1,7.6-3.2,11.4c-1.3,4.2-2.1,8.6-2.7,13c-0.5,4.1,0.4,8.2,0.5,12.3
				c0.1,4.1,1.5,8,2.3,12c0.5,2.6,0.4,5.3,0.2,8c-0.3,3.9-0.6,7.9,0.2,11.8c0.5,2.4,0.8,4.8,1.1,7.2c0.1,1,0.6,1.8,1.1,2.5
				c1.4,2.1,1.9,4.4,2.6,6.8c1,3.8,1.4,7.6,1.5,11.5c0.1,3.5,0.9,7,1,10.6c0.1,3.2,0.9,6.2,1.1,9.4c0.1,3.1,0.1,6.3,1.1,9.4
				c1.2,3.8,1.3,7.7,2,11.5c0.1,0.4,0,0.7,0,1.1c0,3.6,0,7.1,0,10.7c0.1,2.9-0.7,5.7-0.9,8.5c-0.1,1.9-0.4,3.8-0.6,5.7
				c-0.4,4.5-0.3,9.1-0.3,13.6c0,4.8-0.6,9.5-1.7,14.1c-1.1,4.6-1.8,9.4-2.7,14.1c-0.9,4.9-1.6,9.8-3.1,14.6c-0.5,1.4-0.6,3-0.6,4.5
				c-0.1,7.9,1,15.8,0.8,23.7c-0.1,2.8,0.8,5.6,1.1,8.4c0.7,5.4,2,10.7,2.6,16c0.6,5,1.1,10.1,1.6,15.2c0.3,3,0.3,6.1,0.2,9.1
				c0,2.4-0.5,4.8-0.8,7.2c-0.3,2.2-0.7,4.3-0.8,6.5c-0.2,2.8-0.9,5.5-1.5,8.2c-0.6,3-1.2,6-1.9,9c-0.9,4.5-1.9,9-3.2,13.5
				c-0.7,2.3-0.8,4.6-1.1,7c-0.2,1.3-0.7,2.5-1,3.7c-0.6,2.5-0.8,5-1,7.6c-0.1,0.7,0,1.3-0.2,2c-0.2,0.6-0.1,1.3,0,1.9
				c0.7,2.6,1.5,5.1,2,7.8c0.5,2.5,0.6,5.1,0.3,7.6c-0.1,1.1-0.7,2.2-1.1,3.3c-1,2.4-0.7,4.6,1,6.7c1.1,1.4,2.2,2.7,3.6,3.9
				c0.9,0.7,1.5,1.7,2.1,2.6c2.2,3.4,4.2,6.8,5.2,10.8c1,4.2-0.7,7.4-4.8,8.8c-1.7,0.6-3.5,1.3-5.3,1.5c-4.9,0.3-9.6,2.3-14.6,2.2
				c-1.9,0-3.2-0.8-4.4-2c-3.4-3.2-4.8-7.5-5.6-11.9c-0.3-2-0.4-4.2,0.3-6.2c0.9-2.7,0.3-5.2-0.2-7.8c-0.6-2.9-1.4-5.8-1.7-8.7
				c-0.3-3.2-0.2-6.5,0.5-9.8c1.1-5,2.1-10,2-15.2c0-4.6-0.2-9.1-0.5-13.6c-0.3-5.4-0.7-10.8-1.8-16.1c-0.8-3.6-2-7.1-3-10.6
				c-0.9-3.3-1.7-6.5-2-9.9c-0.4-4-0.4-8-0.2-12c0.2-4.4,0.2-8.7,0.9-13.1c0.8-4.8,1.6-9.5,2.3-14.2c0.5-3.6,0.2-7.3-1.1-10.8
				c-1.9-5-3.4-10.2-4.2-15.6c-0.6-3.6-0.8-7.3-0.6-11c0-0.7,0.1-1.4,0.3-2.1c0.8-3.4-0.5-6.3-2.2-9.1c-1.6-2.5-1.9-5.3-1.9-8.2
				c0-2.7,0-5.3-0.4-8c-0.9-5.1-1.8-10.2-2.6-15.3c-0.8-5.2-1.5-10.4-2.3-15.6c-0.5-3.1-1.4-6.1-2.2-9.2c-0.7-2.5-1.1-5.1-1.1-7.8
				c-0.1-5.8,0-11.7,0-17.5c0-1-0.2-1.4-1.3-1.2c-0.4,0.1-0.9,0-1.3-0.1c-1.1-0.4-1.3-0.1-1.1,1c0.6,3.9,1,7.9,0.9,11.8
				c-0.2,4.8-0.8,9.5-1.7,14.2c-0.7,3.7-1.7,7.3-2.4,11c-0.6,3.2-1.1,6.3-1.7,9.5c-0.3,1.8-0.3,3.7-1,5.4c-0.9,2.1-1.5,4.4-2.2,6.6
				c-1.3,4.5-2.3,9.1-2.4,13.9c0,5-0.3,10.1-2.6,14.9c-0.7,1.5-0.7,3.1-0.5,4.7c0.7,4.1,0.2,8.2-0.1,12.2
				c-0.4,5.5-2.4,10.5-4.2,15.6c-1.1,3-1.3,6.3-1.1,9.6c0.1,4.3,0.9,8.6,1.3,12.9c0.4,3.4,1.4,6.6,1.8,10c0.4,3.6,0.8,7.1,0.7,10.7
				c0,2.4,0.1,4.8-0.5,7.1c-1,4.4-1.9,8.9-3.8,13.1c-0.9,2-1.1,4.1-1.4,6.3c-0.7,4.3-1.7,8.6-2,13c-0.4,4.4-0.7,8.8-1.2,13.2
				c-0.1,1.2,0.1,2.5,0.1,3.7c0,0.2,0,0.5,0.1,0.6c1.4,0.9,0.8,2.2,0.6,3.3c-0.2,1.6,0,2.9,0.7,4.3c0.4,0.7,0.7,1.4,0.9,2.2
				c0.5,3,1.6,5.8,2.2,8.8c0.2,1.1,0.1,2.2-0.2,3.2c-0.6,2.5-0.9,4.9-0.6,7.5c0.3,3.1,0,6.2-0.5,9.3c-0.6,3.6-0.5,7.2-1.1,10.8
				c-0.4,2.3-0.5,4.8-1.1,7.1c-1.2,4.1-6.4,7.1-10.1,6.3c-2.8-0.6-5.7-0.5-8.4-1.2c-3.4-0.8-6.8-1.2-10-2.6
				c-2.9-1.3-4.2-4.8-3.3-8.3c1.3-5.2,3.9-9.5,7.4-13.5c1.4-1.6,2.7-3.4,3.7-5.3c0.5-1,0.5-2.1,0.6-3.2c0-0.1,0-0.3-0.1-0.3
				c-2.1-1.8-1.6-4.4-2.1-6.6c-0.9-3.8,0-7.5,1-11.2c0.2-0.7,0.2-1.4,0.3-2.1c0.3-9.6-1.2-19.1-3-28.5c-1.4-7.4-2.7-14.8-4-22.2
				c-0.7-3.7-1.6-7.3-2.2-10.9c-0.7-4-1.3-8-1.4-12.1c-0.1-5.1-0.1-10.2,0.3-15.3c0.2-2,1.1-3.8,1.5-5.8c0.9-4.5,1.7-9,2.4-13.5
				c0.4-2.4,1-4.9,0.7-7.4c-0.3-2.4-0.4-4.8-0.7-7.1c-0.3-2.2-0.2-4.3,0.1-6.4c0.4-2.8,0.5-5.6,0.9-8.4c0.2-1.4,0.8-2.7,0.8-4.1
				c0.1-3.8-0.9-7.5-1.8-11.2c-1.6-6.4-3.2-12.8-4.6-19.2c-1.1-4.8-2.1-9.7-1.8-14.7c0.4-6.1-0.5-12.1-1.2-18.1
				c-0.7-6.3-0.5-12.7-0.4-19c0-3.3,0.5-6.6,0.7-9.9c0.1-1.7-0.2-3.3-0.1-5c0.1-3.2,1.1-6.3,1.7-9.4c0.9-5,1.8-10,2.3-15.1
				c0.5-5.2,1-10.4,1.8-15.6c0.6-4,1.7-7.9,2.5-11.8c1.4-6.5,2.8-13,3.1-19.7c0.3-5.8,0.3-11.6,1.2-17.3c1.2-7.1,0.8-14.3,0-21.4
				c-0.3-2.4-1.3-4.7-1.8-7.1C306.5,281.8,304.9,277,303.1,272.1z M354.6,349.1c0-3.4,0-6.8,0-10.2c0-2.1,0-4.2,0-6.4
				c0-0.6-0.1-1-0.8-0.7c-2.8,1.3-5.9,1.9-8.6,3.3c-0.7,0.3-1.3,0.3-1.7-0.4c-0.4-0.6-0.2-1.3,0.4-1.7c0.5-0.4,1.1-0.6,1.7-0.9
				c2.6-1,5.4-1.8,8-3c0.6-0.3,1-0.6,1-1.3c0-6.8,0-13.6,0-20.4c0-0.8-0.3-0.9-1-0.7c-1.1,0.4-2.2,0.9-3.3,1.2
				c-2.6,0.9-5.1,2.2-7.8,2.7c-0.8,0.1-1.5,0.2-1.8-0.8c-0.2-0.9,0.4-1.4,1.1-1.6c4-1.1,7.8-3,11.7-4.2c0.7-0.2,0.9-0.6,0.9-1.3
				c0-6.5,0-13,0-19.4c0-1.1-0.4-1.2-1.3-0.9c-1.3,0.6-2.6,1-3.9,1.7c-2.4,1.2-5.1,1.7-7.3,3.3c-0.5,0.3-0.9,0.1-1.3-0.2
				c-0.4-0.5-0.5-1-0.2-1.5c0.3-0.5,0.8-0.9,1.4-1.1c3.9-1.5,7.5-3.5,11.4-4.7c0.9-0.3,1.2-0.7,1.2-1.6c0-4.1-0.1-8.2,0-12.2
				c0-1.3-0.5-1.9-1.6-2.2c-4.6-1.4-9.3-2.3-14.1-2c-0.6,0-1.3,0-1.6,0.4c-0.7,1.1-1.9,1.9-2.4,3.1c-1.5,4.1-2.7,8.3-3,12.7
				c-0.4,6.4-0.3,12.9-0.1,19.3c0.1,6,0.5,12,0.8,18c0.2,3,0.3,6,0.9,8.9c1.1,5.4,2.2,10.7,3.4,16.1c1.3,6.3,3.5,12.3,5.8,18.2
				c1.7,4.3,3.8,8.4,6.9,11.9c2.5,2.8,7.4,3.5,10.7,1.7c2.3-1.2,3.4-3.6,5-5.4c1.7-1.8,2.5-4.3,3.8-6.5c1-1.6,1.6-3.5,2.1-5.4
				c1.4-5.3,2.8-10.7,4.3-16c1.3-4.6,2.8-9.1,4-13.7c1.6-5.6,2.2-11.4,2.8-17.1c0.5-5,0.5-9.9,0-14.8c-0.4-3.9-0.5-7.8,0.2-11.7
				c0.2-1.3,0.1-2.5-0.1-3.8c-0.4-3.4-0.8-6.8-1.6-10c-1-4.2-2.2-5.7-5.7-6.6c-2.9-0.7-5.9-0.7-8.8-0.3c-2.6,0.4-5.2,0.8-7.5,2.2
				c-0.5,0.3-0.9,0.7-1.1,1.3c-0.4,1-0.4,1.9-0.4,2.9c0,3,0,6.1,0,9.1c0,3.5,0,3.5,3.5,4.5c2.3,0.6,4.6,1.2,6.8,2.2
				c0.8,0.4,1.6,0.9,1.1,1.9c-0.4,0.9-1.3,0.8-2.1,0.4c-2.7-1.1-5.6-1.7-8.3-2.6c-0.7-0.2-1.1-0.1-1,0.7c0,0,0,0.1,0,0.1
				c0,6.5,0,13,0,19.4c0,0.6,0,1.2,0.8,1.3c3.6,0.5,6.6,2.6,9.7,4.2c0.3,0.2,0.7,0.5,0.9,0.8c0.4,0.4,0.4,1,0.1,1.5
				c-0.3,0.5-0.9,0.5-1.4,0.4c-0.3-0.1-0.6-0.3-1-0.5c-2.6-1.2-4.9-3-7.8-3.6c-1.3-0.3-1.4-0.3-1.4,1.1c0,6.1,0,12.2,0,18.2
				c0,1.3,0.2,2.1,1.7,2.3c0.6,0.1,1.2,0.4,1.8,0.6c2.9,1.2,5.7,2.4,8.6,3.7c0.9,0.4,1.5,1.1,0.9,2.1c-0.6,1-1.3,0.5-2.1,0.1
				c-3.2-1.4-6.4-2.7-9.6-4c-1.2-0.5-1.3-0.4-1.3,0.9c0,2.6,0.1,5.3,0.1,7.9c0.1,8.2,0,16.3,0,24.5c0,1.7-0.5,2.5-1.4,2.5
				c-0.9,0-1.3-0.8-1.3-2.5C354.6,359.5,354.6,354.3,354.6,349.1z M306.6,355.6c-0.8,2.9-1.2,5.6-1.7,8.3c-1,5.5-1.3,11.1-1.9,16.6
				c-0.3,2.8-0.7,5.6-1.2,8.4c-0.7,4-1.3,8-2.4,12c-0.1,0.4-0.1,0.9,0.1,1.3c0.3,0.9,0.3,1.9,0.2,2.9c-1.1,7-1.3,14.1-1.3,21.3
				c0,4,0.2,8,0.6,12.1c0.6,5.1,1.4,10.1,1.1,15.3c-0.1,1.8,0,3.6,0,5.4c0,1.3,0.2,2.6,0.4,3.9c0.7,4.5,1.9,8.9,2.8,13.4
				c0.9,3.9,1.7,7.7,2.9,11.5c0.9,2.7,1.8,5.4,2.1,8.2c0.1,0.7-0.1,1.5,0.4,2.2c0.8,1,1.5,2,2.3,3.1c0.5,0.7,1.2,0.8,2,0.5
				c1-0.5,2.1-1,3.2-1.4c2.8-1,5.5-1.2,8.1,0.8c2.2,1.8,4.9,2.5,7.7,2.8c0.8,0.1,1.5-0.1,2.2-0.5c2.7-1.8,4.5-4.6,6.8-6.8
				c0.1-0.1,0.2-0.3,0.2-0.5c0.6-2.8,0.9-5.8,0.8-8.7c-0.1-5.1,1.1-9.9,2.4-14.8c0.7-2.6,1.7-5.1,2.3-7.8c0.2-1.2,0-1.4-1.2-1.3
				c-0.4,0-0.9,0-1.3-0.1c-3.8-0.9-7-2.9-9.4-5.8c-3.4-4.1-6-8.8-7.7-13.9c-2.8-8.1-4.2-16.6-5.7-25c-1.4-7.5-2.4-15.1-3.6-22.7
				c-1.2-7.7-2.6-15.4-4.1-23c-1-5-2.5-9.9-4.9-14.4C308.1,357.6,307.5,356.6,306.6,355.6z M389.7,539.5c-0.4,0-0.8,0-1.1,0
				c-1.5,0-1.5,0-1.5,1.5c-0.1,3.2-0.2,6.3-0.6,9.5c-0.6,5.8-1.9,11.4-3,17.1c-1,4.9-1.7,9.9-3.9,14.5c-0.2,0.3-0.3,0.8-0.3,1.2
				c0.1,2.1-1.1,3.6-2,5.3c-0.2,0.3-0.4,0.6-0.3,1c0.2,1.1,0.4,2.2,0.8,3.3c1.2,4,2.6,7.8,3.4,12c1,5.3,1.6,10.6,1.8,16
				c0.2,4.7,0.3,9.5,0.4,14.2c0.1,4.9-0.9,9.6-1.7,14.3c-0.3,2-0.8,3.9-0.9,5.9c-0.2,4.4,1,8.5,1.9,12.7c0.5,2.4,1,4.8,0.5,7.2
				c-0.6,3.1-0.9,6.1-0.1,9.2c0.9,3.4,2.3,6.4,4.9,8.8c0.8,0.7,1.7,1.1,2.8,1.1c1.3,0,2.6-0.2,3.9-0.5c1.8-0.4,3.6-1,5.4-1.2
				c3.4-0.3,6.6-1,9.8-2.2c2.9-1.1,3.9-2.8,3.3-5.8c-0.8-3.9-2.9-7.2-5-10.5c-0.5-0.7-0.9-1.5-1.6-2.1c-1.5-1.3-2.7-2.8-4-4.3
				c-2-2.5-2.2-5.2-1.3-8.1c0.7-2.2,1.7-4.3,1.3-6.7c-0.3-2-0.5-3.9-1-5.9c-0.6-2.4-1.6-4.7-1.6-7.2c0-0.8,0.2-1.6,0.2-2.4
				c0.1-2.8,0.5-5.5,1.1-8.3c0.3-1.3,0.8-2.6,1.1-3.9c0.4-2,0.2-4.1,0.9-6.1c1.5-4.6,2.5-9.3,3.5-14c0.6-3,1.1-6.1,1.9-9.1
				c0.8-3.1,1.6-6.2,1.7-9.4c0.2-4,1-7.8,1.4-11.7c0.1-0.8,0.1-1.3-0.8-1.8c-2.4-1.5-4.2-3.5-4.9-6.4c-0.7-2.8-1.4-5.6-1.9-8.4
				c-1.2-6.9-2.2-13.8-3.6-20.7c-0.2-0.9-0.3-1.3-1.4-0.6C395.9,538.7,392.9,539.8,389.7,539.5z M414.4,423.7
				c0-4.3,0.1-7.5-0.3-10.7c-0.3-2.3-0.4-4.6-1.1-6.8c-0.8-2.5-1.3-5.1-1.4-7.7c-0.1-4.2-0.5-8.5-1.2-12.6c-0.5-3.6-0.7-7.3-1-10.9
				c-0.2-3-0.2-6-1-8.9c-0.5-1.7-0.9-3.5-1.3-5.2c0-0.2-0.1-0.5-0.4-0.5c-0.3,0-0.3,0.3-0.4,0.5c-0.1,0.5-0.3,1.1-0.4,1.6
				c-1.3,5-1.8,10.2-3,15.3c-2.7,11.1-6.2,21.9-8.1,33.2c-1,5.9-2.9,11.6-4.2,17.4c-1.4,6.1-3.1,12-5.8,17.6c-1.9,4-3.3,8.4-7.3,11
				c-0.7,0.4-1.4,0.8-2,1.4c-2.3,2.1-4.9,3.5-8,4.1c-0.7,0.1-1.4,0.5-1.2,1.5c0.3,1.8,0.5,3.6,0.9,5.4c0.6,3.2,1.5,6.4,1.9,9.6
				c0.6,4.1,0.8,8.3,0.8,12.4c0,1.5,0.3,2.8,1.2,4.1c1.2,1.8,2.3,3.8,2.8,6c0.2,0.7,0.7,1,1.3,1.3c1.4,0.6,2.8,0.9,4.2,1.3
				c1.8,0.5,3.3,0.2,4.7-0.9c1.2-1,2.4-1.9,3.6-2.8c1.8-1.3,3.8-1.8,6-1.4c1.5,0.3,2.9,0.7,4.3,0.9c2.5,0.4,4.7-0.1,6.1-2.5
				c1.3-2.4,2.6-4.8,2.9-7.5c0.1-1.3,0.4-2.7,0.6-4c0.4-3,1.1-6,1.9-9c0.5-1.6,0.5-3.2,0.9-4.8c1.5-5.8,2.5-11.6,2.4-17.6
				c0-5.1,0-10.1,0.6-15.2C413.9,433.7,414.7,428.2,414.4,423.7z M301.7,687.3c0.1,1.9,0.8,4,3.3,4.8c2.6,0.8,5.4,1,8,2
				c0.4,0.2,0.9,0.2,1.3,0.2c2.4,0.3,4.8,0.5,7.1,0.9c3.6,0.7,7.5-1.8,8.4-5.2c0.6-2.4,0.8-4.9,1.1-7.3c0.4-3.6,0.6-7.2,1.2-10.8
				c0.4-2.7,0.7-5.4,0.3-8.1c-0.3-2.3,0-4.6,0.5-6.9c0.4-1.5,0.6-3,0.1-4.5c-0.6-2.3-1.4-4.6-1.8-7c-0.4-2.3-2.1-4.1-2.2-6.5
				c-0.1-3.1-0.7-6.1-0.4-9.2c0.4-4,0.7-7.9,1.1-11.9c0.2-2.3,0.4-4.7,0.9-7c0.5-2.4,0.8-4.8,1.2-7.2c0.5-2.4,0.7-4.8,1.7-7.1
				c0.9-1.8,1.5-3.7,2-5.6c0.2-0.8,0.9-1.7,0.2-2.7c-1.3-1.7-2.6-3.3-3.6-5.2c-2-3.9-3.4-8.1-4.1-12.5c-1.1-6.7-2.2-13.4-2.8-20.2
				c-0.2-2.4-0.3-4.9-0.4-7.3c0-0.6-0.1-1.2-1-0.9c-3.2,1.1-6.4,0.6-9.5-0.4c-0.8-0.2-0.9-0.1-1,0.7c-0.2,3.8-0.6,7.6-1.3,11.4
				c-0.7,3.8-1.5,7.5-2,11.3c-0.5,3.5-1.2,7-2.3,10.4c-0.7,2-1.5,3.8-3.3,5c-0.8,0.5-0.9,1.1-0.7,1.9c1.1,5.2,2.2,10.5,3.1,15.7
				c1.3,7.5,2.7,14.9,4,22.4c1.4,7.6,2.1,15.2,1.9,23c0,0.4,0,0.9-0.1,1.3c-0.9,2.8-1.4,5.6-1.5,8.5c0,1.8,0.2,3.6,1.2,5.2
				c1.6,2.7,1.8,5.8,0.6,8.6c-1,2.2-2.6,4-4,5.9c-1.8,2.5-4.1,4.6-5.2,7.6C302.9,683,302,685.1,301.7,687.3z M384.3,310.4
				c-0.4,4.5-1,9-2.2,13.4c-2.4,8.8-4.9,17.5-7.3,26.2c-1.4,5-2.6,10-5.4,14.4c-1.6,2.6-3,5.3-5.2,7.7c-5,5.2-13.1,4-16.8-0.6
				c-2.9-3.7-5-7.9-6.9-12.2c-3.6-8.4-5.6-17.3-7.5-26.2c-1.4-6.4-2.4-12.8-2.8-19.3c-0.3-5.7-0.6-11.3-0.7-17
				c-0.1-9.2-0.5-18.5,1.6-27.5c0.3-1.1,0.8-2.2,0-3.4c-0.1-0.2,0-0.7,0.2-1c0.4-1.2,1.1-2.1,2-2.9c0.3-0.2,0.7-0.4,1-1
				c-1.9,0.7-3.8,0.4-5.6,0.7c-1.3,0.3-2.4-0.5-3.6-0.8c-2.5-0.6-4.6-1.7-6.8-3c-2.1-1.3-4.2-2.6-6.3-3.9c0.2,0.3,0.4,0.6,0.6,0.9
				c3,3.7,5.8,7.6,7.5,12.2c1.3,3.5,2.1,7.1,3.4,10.5c2.9,7.7,4.4,15.6,5.2,23.7c0.9,8.8,1,17.6,0.3,26.4
				c-0.6,7.1-2.4,13.5-6.8,19.4c-2.5,3.3-5.4,4.9-9.3,5.3c-1.5,0.1-3-0.1-4.5-0.5c-0.3-0.1-0.6-0.8-1-0.1c-0.3,0.5,0,0.9,0.4,1.2
				c1.1,0.8,2.2,1.4,3.4,2c2.9,1.5,5.9,2.9,7.4,6.2c1.1,2.4,2.9,4.1,4.7,5.9c0.7,0.6,1.3,1.3,1.9,2c4.7,5.7,8.4,12,12.1,18.4
				c2,3.5,3.1,7.5,4.9,11.2c1.7,3.5,3.7,6.5,6.5,9.2c2.6,2.4,5.5,3.4,8.8,3.4c2.3,0,4.4-0.7,5.8-2.7c3.1-4.5,6.1-9.1,8.8-13.9
				c2.8-5.2,5.3-10.7,8.5-15.7c3.5-5.4,6.6-11.2,11.9-15.2c0.2-0.2,0.5-0.5,0.7-0.7c3.4-3.4,6.7-6.7,10.1-10.1
				c0.2-0.2,0.7-0.3,0.5-0.7c-0.2-0.5-0.6-0.1-0.9,0c-2.9,1.3-5.6,0.8-8-1.1c-2.7-2.1-4.9-4.6-6.2-7.8c-2.5-6.5-3.1-13.3-3.8-20.1
				C384.5,318.9,384.3,314.7,384.3,310.4z M423.6,241.8c-1.4-1.4-2.9-2.8-4.3-4.3c-4-4.3-7-9.2-8.7-14.8c-0.4-1.3-0.8-2.5-1.3-3.7
				c-1.8-4.2-4.4-7.6-9.2-8.7c-0.9-0.2-1.7-0.7-2.4-1.3c-1.9-1.3-4.1-2.3-6.4-2.7c-3.2-0.5-6.2-1.5-9.3-2.3c-5-1.2-9.8-0.6-14.6,0.4
				c-2.3,0.5-4.6,1.6-6.8,2.6c-1.7,0.8-2.5,2.2-2.6,4c-0.1,3.6,0,7.1-0.2,10.7c-0.2,4.6-0.1,9.3-0.1,13.9c0,2.5,0.1,5-0.1,7.5
				c-0.1,0.8-0.3,1.7,0.2,2.3c2,2.5,4.2,4.9,6.9,6.5c3.9,2.4,8.1,4,12.4,5.4c2.6,0.8,5.5,1.1,8.2,0.4c3.1-0.7,6-2.1,8.8-3.7
				c4.5-2.6,8.5-5.8,13-8.3c2.7-1.5,5.3-3,8.5-3.3c2.3-0.2,4.6-0.7,7-0.5C423,242.2,423.3,242.2,423.6,241.8z M339.8,206
				c-2.9-0.1-6.2,0.1-9.5,0.5c-3.6,0.4-7.2,0.4-10.6,2.1c-5.1,2.6-9.7,5.9-12.9,10.6c-2,2.9-4,5.8-5.5,8.9c-1.9,3.9-5,6.9-7.6,10.1
				c-0.2,0.3-0.8,0.5-0.6,1c0.2,0.4,0.7,0.2,1.1,0.2c3,0.2,6,0.8,8.1,3c2.8,2.9,6,5.2,9.1,7.7c4.9,4,10.4,6.9,16.7,8.1
				c3.4,0.6,6.6,0.6,9.5-1.5c0.8-0.6,1.7-1.2,2.6-1.8c3.9-2.4,7.9-4.8,11.8-7.2c2-1.2,3.5-2.7,3.2-5.5c-0.2-2.4,0-4.8,0.1-7.2
				c0.2-8,0-16.1,0.3-24.1c0-0.9,0.2-1.9-1.2-1.7c-0.3,0-0.4-0.2-0.5-0.4c-0.5-1-1.4-1.3-2.4-1.7C347.7,206,344,206,339.8,206z
				 M377.6,135.9c-0.3-5.6-0.6-10.9-2-16.2c-1.5-5.4-4-9.8-8.4-13.3c-2.5-2-5.4-2.5-8.3-2.8c-4-0.4-7.8,0.9-11.5,2.4
				c-0.8,0.3-1.7,0.5-2.3,1.2c-2.9,3.1-5.4,6.5-7.2,10.2c-2,4.2-2.6,8.8-2.8,13.4c-0.2,6.1,0.5,12.2,1.1,18.3
				c0.5,4.4,2.2,8.1,5.2,11.3c2.1,2.2,4.2,4.4,6.5,6.3c3.1,2.5,6.5,4.2,10.7,3.6c2.8-0.4,5.2-1.9,7.2-3.6c2.3-2,4.6-4.3,6.3-7
				c1.6-2.6,3.2-5.2,3.6-8.3C376.4,146.1,377,140.9,377.6,135.9z M360.4,423.3L360.4,423.3c0,2.3,0.1,4.6,0,7c0,2,0,4,0.4,6
				c0.5,2.7,1.3,5.3,1.9,7.9c0.9,3.7,1.6,7.4,2,11.2c0.1,1.6,0.5,3.2,0.7,4.8c0,0.2,0,0.8,0.5,0.6c1.1-0.6,2.5-0.6,3.6-1.1
				c2.7-1.3,4.8-3.2,7.2-5c1.5-1.1,2.6-2.5,3.5-4.2c0.6-1.2,1.1-2.4,1.6-3.6c2.5-5.6,5-11.2,6.1-17.4c1.1-6.2,3.2-12.1,4.4-18.3
				c1-5,1.8-10.2,3.3-15.1c2.1-7,3.9-14.1,5.6-21.2c1.4-5.8,1.8-11.9,4-17.5c0.4-0.9-0.6-1.5-1.1-2c-0.5-0.4-0.8,0.4-1,0.6
				c-4.1,4-8,8.3-12.4,12.1c-0.8,0.7-1.5,1.4-2.1,2.3c-4.2,6.4-8.6,12.7-11.9,19.7c-3.2,6.8-7.3,13.1-11.6,19.3
				c-1,1.4-2,2.7-3.8,3.1c-0.9,0.2-1,0.6-1,1.4C360.5,416.9,360.4,420.1,360.4,423.3z M290.1,292.7c-0.7,0.5-1.2,0.7-1.7,1.1
				c-3.5,2.8-7.5,4.1-11.9,4.4c-2.1,0.1-3.8-0.5-5-2.4c-1.2-1.9-2.1-4-2.1-6.3c0-0.3,0.1-0.8-0.4-0.9c-0.4-0.1-0.5,0.4-0.6,0.6
				c-1,1.9-2.3,3.4-3.6,5.1c-1.5,1.9-3.5,3.5-4.4,5.8c-2.2,5.4-4.1,10.9-5.2,16.6c-1.4,7.5-3.4,15-4.3,22.6
				c-0.6,5.5-2.8,10.6-3.6,16c-0.4,2.7-1.8,5.1-2.6,7.7c-1,3.2-2.1,6.4-3,9.6c-0.4,1.5-0.8,2.9-0.4,4.5c1.3,4.6,6.5,7.3,11.3,4
				c3.5-2.4,6-5.7,7.6-9.5c1.4-3,2.2-6.3,3.6-9.4c1.5-3.5,2.9-7,4.8-10.3c2.4-4.1,4.5-8.5,6.8-12.7c0.8-1.4,1.3-3,1.8-4.5
				c0.9-2.7,1.8-5.5,3.2-8c1.9-3.5,3.6-7,5.2-10.6c1.8-4,2.7-8.2,2.5-12.6c-0.1-2.7,0.2-5.2,0.9-7.8
				C289.4,294.8,289.8,293.9,290.1,292.7z M425.1,298.6c1,3.1,0.6,6.2,1,9.3c0.3,2.3,0.7,4.6,1.5,6.9c1.6,4.2,3.6,8.3,5.5,12.4
				c2.8,6.2,5,12.6,8,18.7c3.3,6.7,6.2,13.6,9.6,20.4c1.5,3,2.9,6,3.8,9.2c0.5,1.8,1.5,3.1,2.6,4.5c3.2,4,8,3.2,10.9,0.6
				c1.5-1.4,2-3.2,2.9-4.9c1.1-2.1,1-4.2,0.2-6.3c-1.9-4.8-3.3-9.7-4.7-14.6c-1.6-5.6-3.1-11.2-4-16.9c-1.1-6.6-2.5-13.2-4.3-19.6
				c-1.5-5.1-3.2-10.2-4.7-15.3c-1.6-5.6-4.9-10.1-8.5-14.5c-0.3,0.3-0.2,0.7-0.2,1c-0.1,3.6-1.4,6.8-3,9.9c-1.8,3.3-6.7,6.2-11.3,3
				C428.7,300.9,427,299.8,425.1,298.6z M310.2,356.6c0.2,0.4,0.3,0.6,0.4,0.8c2.1,3.8,3.6,7.9,4.5,12.1c3.1,13.8,5.1,27.8,7.4,41.8
				c1.5,9.1,3.1,18.3,5.4,27.2c1.6,6.4,4.4,12.4,8.8,17.4c2.6,3,5.8,5.4,10.2,4.9c0.9-0.1,1-0.4,1.1-1.1c0.3-3.7,1.1-7.3,1.9-10.8
				c0.9-3.4,1.7-6.9,2.3-10.4c0.7-3.9,1.1-7.8,1.3-11.8c0.1-4.2-0.2-8.5-0.8-12.7c-0.2-1.2-0.6-2.2-1.9-2.6
				c-0.8-0.3-1.5-0.8-2.2-1.4c-1.2-1.2-2.4-2.3-3.6-3.5c-1.2-1.1-2.1-2.4-2.8-3.8c-1.8-3.7-3.7-7.5-5.1-11.4
				c-1.6-4.3-4.4-8-6.7-11.9c-2.7-4.5-5.8-8.8-9.6-12.5c-1.3-1.2-2.6-2.5-3.3-4.2C316,359.8,313.4,358.1,310.2,356.6z M462.8,434.5
				c0.4-2.1,0.6-3.9,0.6-5.8c0-4,0.5-8,0.7-12.1c0-1,0.4-1.9,1.5-2.1c1.1-0.2,1.7,0.6,2.1,1.4c0.7,1.5,1.4,3,1.8,4.6
				c1.1,5.1,1.8,10.3,3.5,15.3c0.7,1.9,1.4,3.8,2.4,5.6c0.2,0.4,0.6,0.9,1.1,0.8c0.6-0.1,0.5-0.7,0.6-1.2c0.2-0.6,0-1.1-0.1-1.7
				c-0.5-2.1-0.9-4.2-1.5-6.3c-1.4-4.8-2.6-9.6-2.9-14.6c0-0.9-0.1-1.9,0.4-2.7c0.7-1.1,1.6-1.3,2.6-0.5c1,0.8,1.7,1.8,2.1,3
				c0.6,1.6,1.1,3.2,1.7,4.7c1.5,4,2.9,8.1,4.4,12.1c0.8,2,1.5,4.1,3.2,5.7c0.7,0.6,1.1,0.5,1.6-0.3c0.2-0.4,0.3-0.8,0.2-1.3
				c-0.3-1.9-0.5-3.7-1.2-5.5c-1.5-4.5-3.2-8.9-4.7-13.4c-0.6-1.8-1.5-3.5-1.4-5.5c0-0.8,0.2-1.6,1.1-2c0.9-0.3,1.5,0.2,1.9,0.9
				c1.9,2.6,4.1,5,5.8,7.8c2.1,3.4,4.1,6.8,6.6,9.9c0.2,0.3,0.5,0.6,0.8,0.9c0.2,0.2,0.4,0.3,0.6,0.2c0.1-0.1,0.1-0.4,0.1-0.5
				c-0.1-1.1-0.5-2.1-0.9-3.1c-2.6-6-5.6-11.8-9-17.4c-1.6-2.6-2.6-5.6-2.8-8.7c-0.1-1.4-0.1-2.9,1.5-3.7c1.8-0.9,3-0.6,4.5,0.9
				c0.3,0.3,0.6,0.6,0.8,0.9c1.6,2.4,3.8,4.4,5.5,6.7c1.1,1.5,2.6,2.1,4.4,2.5c0.8,0.2,0.8-0.1,0.7-0.7c-0.3-1.5-1.2-2.6-2.3-3.6
				c-1.6-1.5-2.7-3.3-3.7-5.2c-1.7-3-3.5-6-6.2-8.2c-2.1-1.8-4.6-3.1-7-4.5c-2-1.2-4.2-1.9-6.1-3.2c-0.7-0.5-1.5-0.7-1.9-1.5
				c-0.8-1.4-1.6-2.8-2-4.5c-0.2-0.7-0.4-1.4-0.7-2.1c-1.3,3.8-3.6,6.5-7.4,8c-4.1,1.6-7.3-0.3-10.8-2.2c0.6,2.1,0.5,4.2,0.9,6.1
				c0.9,4.5,1.7,9,2.7,13.5c0.6,2.9,1,5.8,2,8.6c0.7,1.9,0.9,3.9,0.7,6c-0.5,5.1-0.3,10.2,0.5,15.3
				C461.8,432.6,462.1,433.5,462.8,434.5z M327.3,314.6c-0.1-2.4-0.3-5.5-0.5-8.7c-0.3-7.6-1.8-15-3.6-22.4c-0.7-2.8-2-5.4-2.7-8.2
				c-1.3-5-2.8-10-5.9-14.3c-2-2.8-3.9-5.7-6.9-7.6c-0.4-0.2-0.7-0.7-1.3-0.4c-0.5,0.3-0.4,0.9-0.3,1.3c0.6,3.6,0,7.1-0.7,10.6
				c-0.5,3-0.2,5.8,0.7,8.6c1,3,2.3,5.9,2.9,9c1,5.2,3,10.1,3.2,15.5c0.2,4.7,0.6,9.4,0,14.1c-0.7,5.9-1.5,11.9-1.6,17.9
				c-0.2,5.8-0.5,11.6-2.2,17.3c-0.7,2.2-0.5,2.2,1.7,2.3c0.2,0,0.4,0,0.6,0c3.9,0.5,7.2-0.3,9.3-4c0.2-0.3,0.5-0.6,0.6-0.9
				c1.3-2,3.1-3.8,3.9-6.1c0.6-1.9,1.2-3.7,1.6-5.6C327.1,327.2,327,321.3,327.3,314.6z M258.4,380.5c-0.6,0.1-0.9,0.5-1.2,0.7
				c-1.8,1.4-3.7,2.7-5.8,3.6c-3.6,1.5-6.4,0.9-9.2-1.9c-0.9-0.9-1.7-1.8-2.4-2.9c-0.2-0.4-0.4-0.7-0.8-0.1c-1.9,2.3-4.4,3.8-7,5.1
				c-2.9,1.4-5.4,3.5-7.5,5.9c-3.7,4.1-6.7,8.7-10.2,12.9c-1,1.2-2,2.5-2.9,3.8c-0.3,0.5-1.2,1.2-0.5,1.7c0.6,0.5,1.3-0.2,1.9-0.7
				c2.1-2,4.2-3.9,5.9-6.3c1-1.5,2.1-3,3.6-4.1c1.1-0.9,2.3-1,3.5-0.3c1.1,0.6,1.3,1.8,1.2,2.9c-0.1,0.5-0.2,0.9-0.3,1.4
				c-1.5,6.7-4,13-7.9,18.6c-1.5,2.1-2.7,4.4-3.6,6.9c-0.4,1.2-0.8,2.4-0.7,3.6c0,0.3,0,0.7,0.4,0.8c0.3,0.2,0.5-0.1,0.7-0.3
				c1.6-1.4,3.1-2.9,4.1-4.8c1.3-2.3,2.4-4.7,3.7-7c1.4-2.4,2.9-4.8,4.8-6.8c0.6-0.6,1.4-1.1,2.3-0.7c0.9,0.4,0.9,1.3,0.8,2.1
				c-0.3,1.9-0.7,3.7-1.4,5.4c-1.9,4.7-3.6,9.5-5.8,14c-0.9,1.8-0.8,3.7-0.1,5.6c0.3,0.8,0.7,0.8,1.3,0.4c1.1-0.9,1.5-2.1,2.1-3.3
				c1.3-3,2.6-6.1,3.7-9.2c1.1-3.3,3.1-6.2,4.3-9.5c0.3-0.8,0.8-1.5,1.4-2.2c0.4-0.5,1-0.7,1.6-0.5c0.7,0.2,1,0.7,1.1,1.4
				c0.1,0.4,0.1,0.7,0,1.1c-0.5,4.3-1.7,8.5-2.4,12.8c-0.4,2.7-1,5.4-0.9,8.1c0,0.7-0.1,1.7,0.7,1.9c0.9,0.2,1-0.9,1.2-1.5
				c1.2-3,2-6,2.7-9.2c1-4.6,2.2-9.2,3.4-13.8c0.2-0.7,0.6-1.4,1.1-1.9c0.8-0.7,1.8-0.5,2.3,0.5c0.1,0.4,0.2,0.8,0.2,1.2
				c0.2,4.2,0.4,8.5,1.1,12.6c0.3,1.7,0.4,3.4,1.1,5.1c0.5-0.3,0.5-0.8,0.6-1.1c1-3.4,0.9-6.9,0.9-10.3c0-4.2-0.1-8.4,1.2-12.5
				c0.8-2.3,1.3-4.6,1.8-7c1-5.1,2.2-10.1,3.4-15.1C258.4,385.1,257.9,382.8,258.4,380.5z M386.7,315.4c0,0.3,0,0.6,0,1
				c0.3,5.3,0.9,10.5,1.5,15.7c0.7,6.1,2.8,11.5,7.3,15.9c1.6,1.5,3.3,2.2,5.5,2.1c1.7-0.1,2.4-1,2.1-2.7c-0.4-2.1-0.9-4.2-0.8-6.4
				c0.2-2.5,0.2-5.1,0.5-7.6c0.3-2.2-0.2-4.5-0.5-6.7c-0.4-2.6-1.4-5.1-1.9-7.8c-0.2-1.4-0.2-2.7-0.2-4c-0.1-2.9-0.7-5.8-0.8-8.7
				c-0.1-2.1,0.4-4.2,0.7-6.3c0.7-4.2,1.4-8.4,2.9-12.5c0.8-2.1,1.7-4.2,2.1-6.5c0.5-3.2,1.3-6.3,2.3-9.4c0.8-2.5,1-4.9,0.1-7.5
				c-1.3-4.3-1.1-8.6,0.6-12.8c0.2-0.5,0.9-1.2,0.3-1.6c-0.5-0.4-1.1,0.2-1.6,0.6c-5.1,3.9-9.5,8.5-12.4,14.3
				c-4.2,8.5-6.9,17.5-6.5,27.1c0.2,3.7,0,7.4-0.5,11C387.1,306.9,386.9,311.1,386.7,315.4z M442.2,286.1c-0.1-1.3,0.3-2.6-0.2-3.8
				c-1.5-3.7-2-7.5-2-11.5c0-2.5-0.5-4.9-1.2-7.3c-1.2-4.1-3.3-7.9-4-12.1c-0.1-0.7-0.6-1.2-1.3-1.3c-1.9-0.5-3.6-1.5-5.3-2.5
				c-3.5-2-7.3-2-11.2-1.5c-3.4,0.5-4.6,1.6-5.5,4.9c-0.9,3.6-1.2,7.2-1.2,10.9c0,1.1-0.2,2.2,0.3,3.4c2.2,4.6,4.2,9.2,6.1,13.9
				c1.5,3.8,3.9,7.2,5.2,11c0.6,1.8,1.3,3.4,2.8,4.8c2.3,2,4.7,3.8,7.2,5.3c0.5,0.3,1,0.6,1.6,0.5c2.4-0.3,4.5-1,5.8-3.4
				C441.4,293.9,442.5,290.2,442.2,286.1z M303.5,253.9c0-5.7-2.6-8.5-6.1-10.8c-0.4-0.2-0.8-0.3-1.2-0.4c-3.6-0.7-6.9,0.2-9.9,2.1
				c-2.7,1.6-5,3.6-6.8,6.3c-0.5,0.8-1.4,1.4-1.2,2.5c0.1,0.4-0.2,0.7-0.6,0.9s-0.6,0.4-0.7,0.8c-0.9,3.1-2,6.1-2.5,9.4
				c-0.9,5.9-1.4,11.9-2.8,17.7c-0.3,1.3-0.4,2.7-0.1,4c0.3,1.3,0.4,2.7,0.5,4c0.1,1.3,0.6,2.6,1.8,3.2c2.1,1.1,4.5,1.8,6.8,1
				c5.1-1.9,9.9-4.4,12.5-9.6c2.5-5.1,6-9.6,7.9-15c0.9-2.5,1.7-5,2.1-7.7C303.7,259.1,303.8,256,303.5,253.9z M341.1,163.1
				c0,1.6,0.1,2.8,0,4.1c-0.5,6.2-1,12.5-0.6,18.8c0.3,5.1,0.2,10.2-0.7,15.3c-0.3,1.5-0.2,1.5,1.3,1.4c0.3,0,0.6,0,0.8,0
				c4.4,0,8.4,1.6,12.4,3.3c0.7,0.3,1.2,0.4,2,0.2c5.6-1.8,10.9-4.5,17-4.7c-1-2.3-0.9-4.6-0.9-6.9c-0.1-4.3,0-8.5,0.2-12.8
				c0-0.9,0.7-1.6,0.6-2.5c-0.9-4.9-1.3-9.9-1.2-14.9c0-0.1-0.1-0.2-0.2-0.5c-1,1.4-2.5,2.1-3.5,3.3c-1.1,1.3-2.6,1.9-4,2.8
				c-3.3,2.1-6.8,3.5-10.7,2c-1.3-0.5-2.5-1-3.8-1.5c-1.2-0.4-2.1-1.1-3-1.9C345,166.8,343.2,165.1,341.1,163.1z M308.3,501.6
				c-0.1,1.8-1.1,3.2-1.2,4.9c-0.1,1.9-0.2,3.8-0.5,5.7c-0.7,4.2-0.3,8.3,0.1,12.4c0.2,2.6,0.3,5.2,0,7.8c-0.4,3.5,0.2,4.4,3.1,5.9
				c2.3,1.2,4.8,1.9,7.4,2.4c2.2,0.5,4.4,0.4,6.5-0.4c0.7-0.3,1-1,1.7-1.1c2-0.3,3.4-1.6,4.9-2.8c1.6-1.3,2.9-2.8,4.5-4.2
				c1-0.9,1.6-1.8,2-3c1-3.1,2-6.2,2.3-9.5c0.4-4.2,0.9-8.5,0.2-12.8c-0.2-1.5-0.3-3,0.3-4.5c-1,0.1-1.3,0.9-1.8,1.5
				c-1.6,1.8-3.6,2.6-6,2.4c-2.9-0.2-5.7-1.1-8.2-2.8c-1.9-1.3-4-2-6.3-0.9c-1.1,0.5-2.3,0.8-3.5,1.3c-2,0.8-3.3,0.5-4.6-1.2
				C308.9,502.3,308.6,501.9,308.3,501.6z M373.7,504.5c-0.2,1.3-0.5,2.6-0.6,3.8c-0.3,3.4,0.2,6.9,0.6,10.2c0.6,4.5,2,8.9,3.4,13.3
				c0.2,0.7,0.5,1.3,1.1,1.6c2.3,1.2,4.5,2.9,6.9,3.5c3.5,1,7.1,0.8,10.5-0.9c3.4-1.7,5.8-4.5,8-7.4c1.2-1.6,1.7-3.7,1.8-5.9
				c0.2-7.5-0.9-15-0.6-22.5c0-0.1-0.1-0.2-0.1-0.3c-0.3-0.1-0.4,0.1-0.5,0.2c-1.4,1.2-3,1.8-4.8,1.7c-1.7,0-3.4-0.2-5.1-0.8
				c-2.4-0.7-4.5-0.4-6.4,1.3c-0.9,0.8-1.9,1.5-2.8,2.3c-2,1.5-4.1,2.1-6.5,1.3C377.1,505.7,375.4,505.2,373.7,504.5z M386.9,202.3
				c0,0.1,0,0.2,0,0.3c1,0.3,1.9,0.7,2.8,0.9c3.5,0.6,6.7,1.7,9.7,3.7c0.5,0.4,1.2,0.7,1.8,0.9c4.6,1.2,7.9,4,9.8,8.4
				c1,2.3,2,4.6,2.7,7c1.4,4.8,4.2,8.7,7.5,12.4c2.6,2.9,5.6,5.3,8.4,8c1,1,2.4,1.5,3.7,2.2c0.4,0.2,0.6,0.2,0.6-0.3
				c0-0.3,0.1-0.6,0.2-0.8c2.1-4.4,2.3-9.2,3-14c0.4-3-0.4-5.9-0.1-8.8c0-0.4-0.1-0.9-0.4-1.1c-0.8-0.5-0.9-1.2-1.2-1.9
				c-0.7-1.3-1.4-2.6-2.2-3.8c-3.1-4.3-7-7.7-10.8-11.4c-2.8-2.7-6.1-4.3-9.9-5.1c-0.4-0.1-0.9-0.1-1.3,0c-0.7,0.2-1.4,0-2.1-0.1
				c-2.1-0.3-4.3-0.7-6.4-0.3c-3.8,0.7-7.6,1.8-11.5,2.5C389.8,201.3,388.3,201.6,386.9,202.3z M321.1,205.5
				c-0.5-0.2-0.8-0.3-1.1-0.4c-4-1.4-7.8-3-11.4-5.3c-1.1-0.7-2.4-1-3.8-1.1c-4.9-0.7-8.7,1.8-12.2,4.7c-1.6,1.3-2.9,3-4.6,4.2
				c-1.4,0.9-2.5,2-3.5,3.3c-3.5,4.6-5.8,9.7-6.9,15.3c-0.6,3-1.7,6-1.5,9.2c0.3,4.1,0.5,8.1,0.7,12.2c0,0.3-0.1,0.8,0.3,0.9
				c0.3,0.1,0.6-0.2,0.8-0.4c2.1-1.7,4.2-3.5,6.4-5.1c4.7-3.6,8.7-7.9,12.3-12.5c2.1-2.7,3.1-6,5.3-8.7c1.4-1.8,2.2-3.9,3.7-5.6
				C310.1,211.4,314.8,207.5,321.1,205.5z M309.4,197.9c2.4,0.9,4.6,2.1,6.9,3.1c2,0.9,3.8,2,6,2.2c3.4,0.4,6.8,0.7,10.2,1.1
				c0.9,0.1,1.8,0,2.6-0.2c1.6-0.5,2.5-1.8,2.7-3.4c0.2-1.6,0.5-3.2,0-4.8c-0.3-1,0.4-1.9,0.5-2.9c0.2-2-0.2-4.1-0.1-5.7
				c0-1.3,0-2.1,0-3c0-0.5,0.3-1.1-0.4-1.3c-0.6-0.2-1.1,0.1-1.5,0.6c-1.6,2.4-3.7,4.2-6.2,5.7c-0.4,0.2-0.6,0.6-1,0.9
				c-2.5,1.9-5.1,3.7-8,4.8c-3.7,1.5-7.6,2.4-11.7,2.1c-0.3,0-0.6,0-0.6,0.3C308.9,197.7,309.1,197.8,309.4,197.9 M333.9,536.4
				c-0.4,0.2-0.5,0.2-0.6,0.3c-1.9,1.6-3.7,3.3-6,4.4c-0.6,0.3-0.6,0.8-0.5,1.3c0.1,1.8,0.2,3.7,0.3,5.5c0.3,5.3,1.1,10.6,1.9,15.9
				c0.8,5,1.4,10,3.4,14.8c0.9,2.2,1.9,4.2,3.3,6.1c0.2,0.3,0.4,0.7,0.8,0.7c0.5-0.1,0.3-0.6,0.4-0.9c0.3-1.5,0.4-3,0.4-4.5
				c0.1-3.9,0-7.8-0.6-11.7c-1-6-2.2-11.9-2.9-18c-0.3-2.6-0.9-5.2-0.6-7.8C333.4,540.5,333.7,538.5,333.9,536.4z M376.3,584
				c0.8-2.7,2.1-4.9,2.8-7.4c1.6-6.1,2.6-12.3,3.9-18.5c1.1-5.8,1.7-11.6,1.7-17.5c0-0.8-0.2-1.3-1.1-1.6c-1.1-0.4-2.2-1-3.3-1.4
				c-0.4-0.2-0.7-0.6-1.1-0.4c-0.4,0.3,0,0.7,0,1.1c0,0.4,0,0.7,0,1.1c0.6,5.7-1.1,11.1-1.8,16.6c-0.4,3.3-1.1,6.7-1.3,10.1
				c-0.2,5.2-0.5,10.4-0.3,15.6C375.9,582.3,375.9,583,376.3,584z M303.4,578.5c0.7-0.5,1-1.1,1.2-1.6c1-1.9,1.5-4,1.9-6.2
				c1.1-6.2,2.3-12.3,3.3-18.5c0.5-3.1,0.7-6.3,1.1-9.4c0.1-1.1-0.2-1.8-1.3-2.2c-0.9-0.3-1.7-0.9-2.5-1.4c-1.1-0.8-1.1-0.8-1.4,0.6
				c-0.7,3.2-0.8,6.5-1.8,9.6c-1.4,4.1-1.7,8.3-1.7,12.6c0,3.3-0.1,6.5,0.2,9.8C302.7,574,303.1,576.2,303.4,578.5z M338.2,259.5
				c0,0.1,0,0.1,0,0.2c0.9,0,1.8,0,2.8,0c4.5-0.2,8.7,0.8,12.9,2.3c1.2,0.4,2,0.4,3-0.3c3.7-2.4,8.1-3,12.5-3.8
				c-1-0.4-2-0.6-2.8-1.2c-2.1-1.4-4.1-3-6.4-4.1c-1-0.5-1.9-1.4-2.6-2.3c-1.5-1.9-1.5-1.9-3.6-0.6c-0.4,0.2-0.7,0.5-1.1,0.8
				c-3.1,2.2-6.1,4.6-9.6,6.3C341.6,257.6,339.9,258.5,338.2,259.5z M375.3,183.5c-0.2,0.4-0.2,0.7-0.1,1c1.1,3.8-0.2,7.5-0.4,11.3
				c-0.1,1.6,0.3,3.1,0.9,4.5c0.2,0.4,0.4,0.8,0.8,0.8c1.3,0,2.5,0.4,3.8,0.1c3.6-0.8,7-2.1,10.7-2.5c2.1-0.2,4.1-0.7,6.1-1.2
				c0.3-0.1,0.6-0.1,0.6-0.4c0-0.4-0.3-0.4-0.6-0.5c-0.9-0.2-1.7-0.4-2.5-0.6c-2.1-0.6-4-1.7-5.8-2.8c-2.7-1.6-5.8-2.7-8.2-4.9
				C378.8,186.7,377.1,185.1,375.3,183.5z M411,568.6c0-0.5-0.1-1.1-0.1-1.7c-0.2-3.1-0.8-6.1-1-9.1c-0.3-4.2-0.8-8.5-1.6-12.7
				c-0.6-3.3-1.3-6.6-1.6-10c-0.1-1.3-0.3-2.5-0.5-3.8c0-0.3,0-0.7-0.4-0.8c-0.3-0.1-0.4,0.3-0.6,0.5c-0.9,0.9-1.7,1.9-2.6,2.8
				c-0.8,0.7-0.9,1.5-0.7,2.5c0.6,2.5,1.1,5.1,1.6,7.6c1.3,6.9,2.1,13.8,3.8,20.6c0.4,1.7,0.8,3.3,2,4.7c0.4,0.4,0.9,1.2,1.4,1
				C411.3,570,410.8,569.1,411,568.6z M380.1,261.1c1.1,2.3,2.2,4.2,2.7,6.3c0.7,3.3,1.3,6.6,1.6,9.9c0.2,1.7,0.3,3.3,0.1,5
				c-0.2,1.6-0.4,3.2-0.3,4.9c0.2,4.5,0.5,9,0.7,13.5c-0.5-15.6,1.8-30.6,11.4-43.6C391.2,259.3,386.3,262.4,380.1,261.1z
				 M333.9,148.2c-0.2-2.1-0.5-4-0.7-5.9c-0.2-1.9-0.3-3.8-0.4-5.7c0-1-0.8-1.4-1.5-1.5c-0.8-0.1-0.6,0.8-0.6,1.3
				c-0.1,2.1-0.2,4.2,0,6.4C331.1,144.9,331.9,146.8,333.9,148.2z M378.1,148.5c1.3-0.9,1.8-1.9,2.2-3.1c0.5-1.6,0.8-3.2,1-4.9
				c0.1-0.9,0.3-1.8,0.3-2.7c0-0.5-0.2-1.3-0.8-1.2c-0.6,0.1-1.2,0.4-1.3,1.2c0,0.2,0,0.3,0,0.5c0,1.1-0.2,2.2-0.4,3.3
				C378.7,143.8,378.3,145.9,378.1,148.5z"/>
			<path d="M301.7,249.5c-0.6-0.5-1.3-1-1.5-2C301.2,247.9,301.4,248.7,301.7,249.5z"/>
		</g>
	</g>
</g>

</svg>
 