<svg width="297" height="600" viewBox="0 0 297 600" fill="none" xmlns="http://www.w3.org/2000/svg">

<style type="text/css">
	.st0{fill:#9B9B9A;}
	.st1{fill:#9B9A99;}
</style>

<a href="http://localhost:3000/Clavs1">
<path class="st0" d="M97.6 257.4C97.6 257.4 104.7 256.4 113.9 314.6C123.1 372.8 139.9 362.6 139.9 362.6L137.4 377.9L134.9 397.3L125.7 405.5H118.8L112.9 401.9H107.8L103.7 405.5L100.6 401.9L97.5 395.3V387.1L93.4 375.4L90.3 360.6V352.4V342.7V331.5V317.7V302.4L92.3 290.1L93.8 272.6L97.6 257.4ZM157.4 362.6L159.9 375.9C159.9 375.9 159.9 384.6 159.9 386.6C159.9 388.6 162 397.3 162 397.3L166.6 405.5H171.7L178.8 402.4L184.4 399.9H191L196.6 397.9L199.7 389.7L203.8 374.4L206.3 362.7V350.4V334L208.3 317.7L205.8 306L204.8 294.3L203.3 279L201.8 266.7L198.7 260.6L191.6 290.7L182.9 328L171.7 353.5C171.7 353.4 163 364.7 157.4 362.6Z" fill="#9B9B9A"/>
</a>
<a href="http://localhost:3000/Hands">
<path class="st0" d="M76.2 197.1C73.5 198.5 70.5 198.8 67.5 198.2C65.4 197.8 63.5 196.8 62.4 194.9C61.4 193 61.3 190.8 61.2 188.8L53.1 196.7L48.8 206.4L44.2 225L41.4 241.6L37.3 257.4L31.7 278.1L35 284H41.6L48.2 282.2L52.3 276.8L54.1 270.7L59.5 257.4L65.4 247.2L69.5 235.5L76.7 222.2L80 212.2V203.8L82.9 193.3C80.6 194.3 78.6 195.9 76.2 197.1ZM258.2 252L253.9 230.8L249.3 212.4L246 201.4L242.9 193.7L237.7 188.7C237.1 193.7 234.4 198.4 230.2 201.3C227.9 202.9 225.1 203.8 222.3 203.6C219.7 203.4 217.5 202.4 215.5 200.9L217.2 210.3L225.1 232.3L240.4 264.2L245.8 278.7L252.7 283.8L258.3 282L262.4 278.9L265.5 272.4L258.2 252Z" fill="#9B9B9A"/>
</a>
<a href="http://localhost:3000/Biceps">
<path class="st0" d="M95.3 163.4C95.3 157.4 95.5 147.4 87.9 145.9C84.5 145.2 80.7 146.5 77.6 147.9C74.2 149.5 71.1 151.5 68.2 153.8C68 154 67.7 154 67.5 154L66.1 162L64.3 173.2L62.6 186.7C62.9 186.8 63.2 187.1 63.2 187.6C63.2 189.6 63.1 192 64.1 193.8C65 195.5 66.9 196 68.7 196.2C71.6 196.5 74 195.9 76.5 194.4C78.8 193 80.9 191.6 83.5 190.8L90.3 179.2L94.4 169.5L95 171C95.2 168.5 95.3 166 95.3 163.4ZM199.8 152.1C199.8 150.8 201.8 150.8 201.8 152.1C201.8 158.1 201.1 164.2 202.5 170.1L213.9 196.9L214 197.4C216.1 199.4 218.7 201.1 221.6 201.2C224.1 201.3 226.5 200.5 228.5 199C232.9 195.8 235.2 190.2 234.9 184.9L231.8 171.8L230.5 162.1L228 151.5C220.8 149.1 212.8 148.9 205.4 150" fill="#9B9B9A"/>
</a>
<a href="http://localhost:3000/Abs">
<path class="st0" d="M119.3 203.3L117.5 188L111.6 169.6L103.5 156.4C103.4 156.9 102.8 157.2 102.3 157.1C100.4 156.5 98.5 155.8 96.8 154.8C97.9 161.4 97 168.5 97 175.1C97 175.3 96.9 175.5 96.8 175.6L98.6 180.3L101.7 195.1L103.2 213L99.9 226.8L100.7 232.9L99.4 248.5L98.6 250L103.2 251.8C103.2 251.8 114.2 251.8 118 238.8C121.8 225.8 120.3 223.5 120.3 223.5L119.3 203.3ZM204.3 151.9C200.8 152.4 197.3 153.2 194.1 154.7C191.8 155.8 189.4 157.4 188.5 159.8C188.2 160.5 187.4 160.6 186.9 160.3C183.1 165.1 178.8 171.4 179.2 174.7C180 180.6 173.6 186.7 176.7 193.6C179.8 200.5 173.1 208.9 173.1 208.9L175.9 211.2L175.6 225.7L181 247.7L187.6 253.6L194.5 252.6L193.2 245.7L194.5 235.7V230.1L192.5 221.4L190.5 212.7V204.8L192.5 192.5L196.6 180.8L197.5 178.1" fill="#9B9B9A"/>
</a>

	<a href="http://localhost:3000/Traps">
<path class="st0" d="M109.1 105.2C113.4 106.2 118.1 106.1 122.5 105.8C125.9 105.6 129.3 105.1 132.7 104.8L130.8 104.6L131.3 96.4L130.8 79.8L124.9 87.2L118.8 91.3L109.1 96.1L99.9 97.4L97.9 100.8C101.6 102.4 105.1 104.3 109.1 105.2ZM199.5 97.7L191.6 96.6L182.9 94.1L176 89.2L167.1 82.8L166.3 88.7L165.8 97.9V101.8C177.2 101.7 188.7 101.3 199.5 97.7Z" fill="#9B9B9A"/>
</a>
<a href="http://localhost:3000/Chest">
<path class="st0" d="M143.9 106.8L137.7 105.6C137.6 106 137.3 106.3 136.8 106.4C132.7 106.8 128.6 107.4 124.4 107.8C124.3 108.1 124 108.4 123.5 108.4C117.7 108.4 112.3 110.2 107.6 113.5C99 119.3 93.1 128.3 86.6 136.1C83.1 140.2 79.3 144.2 75 147.4C76.2 146.8 77.5 146.2 78.7 145.7C82.1 144.3 86.1 143.4 89.6 144.6C93 145.7 95.2 148.6 96.2 152C96.2 152.2 96.3 152.3 96.3 152.5C96.4 152.5 96.5 152.5 96.6 152.6C98.6 153.9 100.6 154.6 102.8 155.4L102 154.1L113.2 159.2L120.7 162.3L137.2 155.9L146.4 149.6V107.9L143.9 106.8ZM214.7 137.5C210.4 132.7 206.3 127.6 202 122.8C200.1 120.7 198.3 118.5 196 116.8C194 115.2 191.8 113.8 189.5 112.6C184.4 109.8 178.9 107.8 173.3 106.3C169.3 105.2 165.3 104.5 161.2 104.1L155.4 105.8L148.6 108.3L148.4 108.2V147.9L162.7 158.1L174.4 161.2L186.1 157.1L190.7 154.6C192.1 153.3 193.7 152.3 195.5 151.5C202.9 148.2 211.7 147.6 219.6 148.4C222.3 148.7 225 149.1 227.6 149.8C223 146.1 218.7 141.9 214.7 137.5Z" fill="#9B9B9A"/>
</a>

<a href="http://localhost:3000/Shoulders">
<path  class="st0" d="M175.5 104.7C181 106.3 186.5 108.4 191.5 111.2C193.7 112.4 195.8 113.8 197.7 115.4C200 117.3 202 119.6 204 121.9C212 131 219.4 140.9 229.2 148.2L229.7 141.7L231 127.9L229.2 119.5L223.6 111.3L212.9 102.4L202.8 98.5C192.8 102.4 182.2 103.4 171.5 103.6C172.8 104 174.1 104.4 175.5 104.7ZM118.1 106.2C113.1 107.9 108.1 110.1 103.6 113C101.6 114.3 99.8 115.7 98 117.3C95.9 119.2 94.2 121.6 92.4 123.9C85.3 133.1 78.7 142.9 70 150.4L69.4 144L67.9 130.4L69.3 122L74.3 113.8L83.9 104.7L93 100.7C102.2 104.3 112 105 121.8 105.1C120.5 105.4 119.3 105.8 118.1 106.2Z" fill="#9B9B9A"/>
</a>

<a href="/Abs">
<path  class="st0" d="M128.5 162.5H138.5L146.9 164.8L155.8 160.9H164.3L171.9 162.8L174 171.1L175.2 186.5V192.1L175 207.6L171.9 228.8L163 260.5L157.4 269.2L153.5 273.8L148.4 275.6L143.1 274.3L136.2 266.1L130.1 253.1L127.2 239.6L124.9 226.3L123.9 214.8L122.4 195.4V177.3L128.5 162.5Z" fill="#9B9B9A"/>
</a>

<path d="M94.1 174.1C93.4 175.6 92.7 176.9 92 178.3C90.7 180.8 89.4 183.4 87.8 185.8C85.8 188.9 84.6 192.3 83.3 195.8C82 199.4 81.5 203 81.6 206.8C81.7 211.2 80.6 215.3 79 219.3C77.7 222.6 75.9 225.7 74.2 228.8C72.1 232.7 70.9 236.9 69.3 241C67.9 244.7 66.1 248.2 63.9 251.5C61 256.1 58.9 261.1 56.7 266.1C55.3 269.3 54.3 272.6 53.3 275.9C54.3 277.8 52.5 278.9 52.1 280.5C51.5 282.8 51.7 285.2 51.4 287.5C50.9 291.1 49.9 294.5 49.1 298C48.2 302 47.6 306.1 46.4 310.1C45.6 312.6 44.9 315.1 44.7 317.8C44.6 320.3 44.6 322.8 44.6 325.3C44.7 328.7 44.5 332 43.5 335.3C43.3 335.9 43.1 336.5 42.7 337C41.7 338.5 39.9 338.3 39.2 336.7C38.3 334.7 38 332.5 37.7 330.3C37.3 327.1 36.6 323.9 36.5 320.6C35.7 323.8 34.9 327 34.1 330.2C33.5 332.6 33.2 335.1 32.5 337.4C31.9 339.3 31.3 341.1 30.4 342.9C29.7 344.3 28.8 344.8 27.5 344.6C26.2 344.4 25.5 343.7 25.2 342.2C24.7 339.6 25.1 337.1 25.5 334.6C26.1 330.6 27 326.7 27.7 322.7C27.7 322.5 27.7 322.2 27.7 322C26.5 324.6 24.9 327 24 329.7C22.7 333.5 21.1 337.2 19.4 340.9C18.8 342.1 18.1 343.3 16.9 344C15.1 345 13.7 344.5 13 342.7C11.9 340.1 11.9 337.5 13.1 335C15.3 330.4 16.9 325.6 18.9 321C19.3 320 19.5 318.8 19.7 317.6C18.4 319.3 17.1 321 16.1 322.9C14.6 325.7 13.3 328.6 11.6 331.2C10.4 333 8.8 334.5 7.2 335.9C5.9 337 3.8 336 3.4 334.2C3 332.3 3.60001 330.5 4.30001 328.7C5.40001 325.6 7.1 322.9 8.9 320.2C12.4 314.9 14.5 309 15.8 302.8C15.9 302.4 16 301.9 15.6 301.6C15.1 301.3 14.7 301.6 14.3 302C12.6 303.6 11.4 305.5 10 307.3C8.50001 309.3 6.6 310.9 4.7 312.5C3.7 313.4 2.50001 313.8 1.10001 313.4C1.23978e-05 313.1 -0.599988 312.2 -0.399988 311C-0.199988 309.8 0.400012 308.7 1.10001 307.8C5.50001 302.4 9.40001 296.6 14 291.4C16.4 288.7 19.1 286.6 22.3 285C23.5 284.4 24.7 283.7 25.8 283C27.8 281.7 29.3 280 29.5 277.5C29.6 276.3 30.1 275.2 30.6 274.1C31.8 271.3 32.2 268.3 33.3 265.5C33.8 264.4 34.1 263.2 34.6 262C35.5 259.8 36.3 257.4 36.6 255C37.1 250.9 38.9 247 39.5 242.9C40.5 235.1 42.4 227.4 43.8 219.7C44.9 213.6 47.1 207.9 48.9 202.1C49.7 199.6 51.6 197.8 53.3 195.9C56.5 192.3 58.8 188.3 60.6 183.9C61.5 181.6 61.6 179.1 62 176.7C62.8 171.8 63 166.8 64.4 161.9C64.7 160.9 64.9 159.9 65.4 158.9C66.5 156.5 66.3 154 65.9 151.5C65.6 149.5 65.4 147.5 65.2 145.4C64.7 139.4 64.8 133.4 65.7 127.5C66.2 124.3 67.2 121.3 68.8 118.5C69.8 116.9 70.2 115 71.4 113.4C76.5 106.5 82.7 101 91 98C94.1 96.9 97.2 96.9 100.4 97.3C103.1 97.7 105.6 97.1 108.3 96.3C111 95.5 113.5 94.5 115.8 92.9C119.4 90.5 123.1 88.3 126.2 85C127.6 83.5 128.6 82 129 79.9C129.8 75.1 130.5 70.3 130.4 65.4C130.4 63.7 130 62.2 128.7 60.8C127.4 59.4 126.6 57.6 126.2 55.7C125.8 54 124.8 52.8 123.6 51.8C121 49.6 119.8 46.8 119.9 43.5C120 41.4 119.7 39.2 120.1 37C120.5 35.3 121.5 34.6 123.1 35.1C124 35.4 124 35 124 34.3C124 31.3 124.3 28.3 124.8 25.4C125.8 19.7 128.6 15 132.1 10.5C133.6 8.6 135.3 6.99999 137.4 5.69999C138.8 4.89999 140.3 4.89999 141.8 4.59999C144.6 3.89999 147.4 3.1 150.3 3.5C153.7 4 157 4.6 159.9 7C164.8 11 167.4 16 168.9 22C169.8 25.5 170.3 29.1 170.5 32.6C170.6 33.8 170.7 34.9 170.7 36.1C170.7 36.4 170.7 36.7 171.2 36.6C173.3 36.4 174.8 37.6 174.7 39.8C174.5 43 174 46.2 172.8 49.3C172.2 50.8 171.2 51.9 169.8 52.6C169.1 53 168.8 53.5 168.7 54.3C168.4 56.4 167.7 58.4 166.6 60.3C165.5 62.2 165.3 64.3 165.2 66.4C165 70.9 165.5 75.3 166.2 79.8C166.5 81.7 167.8 83.1 169.1 84.2C172.7 87.1 176.3 90 180.1 92.6C182.4 94.2 185 95.3 187.6 96.4C189.4 97.2 191.2 97.8 193.2 98C193.8 98 194.3 98.1 194.9 98C199 97 202.9 97.7 206.6 99.2C211.4 101.1 215.8 103.7 219.5 107.3C221.2 108.9 222.7 110.6 224.3 112.3C225.9 114 226.5 116.4 227.8 118.4C230.4 122.4 231.1 127 231.3 131.7C231.5 136.6 231.2 141.3 229.3 145.9C229.1 146.5 229 147 228.9 147.6C228.1 152.5 229.2 157.2 231.1 161.7C232.7 165.6 233.7 169.6 233.6 173.8C233.5 178.5 234.8 182.9 236.8 187C237.3 188.1 238 189.2 238.9 190.1C242.8 194.1 245 199 246.7 204.2C248.4 209.3 250 214.5 251.4 219.6C253.2 226 254.5 232.6 255.7 239.1C257.3 248 259.7 256.7 262.5 265.3C263.9 269.7 265.4 274.2 266.7 278.6C267.2 280.2 267.9 281.8 268.6 283.4C268.8 284 269.4 284.2 269.9 284.5C271.9 285.8 274.1 286.6 276.2 287.7C278.9 289.2 281.6 290.7 283.9 292.7C286.6 295.1 288.6 298.1 290.3 301.3C291.2 303 292.1 304.5 293.5 305.8C295.2 307.4 296.6 309.2 296.6 311.7C296.6 313.4 295.8 314.2 294.1 314C291.2 313.6 288.7 312.4 287 309.9C285.5 307.8 283.5 305.9 282 303.8C281.8 303.4 281.4 303.1 281.1 302.9C280.1 302.2 279.2 302.6 279.1 303.8C279 305.7 279.6 307.5 280.2 309.3C281 311.4 282 313.4 283.3 315.3C285.5 318.5 286.8 322.1 288.6 325.5C289.8 327.7 290.8 330.1 291.5 332.6C291.7 333.5 291.9 334.4 291.6 335.3C291.1 336.6 289.8 337.2 288.6 336.6C287.7 336.2 287.1 335.6 286.5 334.8C283.9 331.5 281.8 328 279.6 324.4C278.4 322.4 276.9 320.6 275.4 318.9C275.6 320.8 276.3 322.6 276.9 324.3C278.5 328.9 280.5 333.4 281.6 338.3C281.8 339.3 282 340.3 282.1 341.4C282.3 342.9 281.7 344.1 280.6 345C279.7 345.8 278.3 345.7 277.3 344.9C276 343.9 275 342.7 274.4 341.1C272 335.1 269.6 329 267.7 322.8C267.3 321.7 267 320.5 265.8 319.4C266 322.2 266 324.7 266.7 327.2C267.7 331.2 268.8 335.2 269.8 339.3C270.2 341 270.8 342.7 270.1 344.5C269.3 346.6 267.8 347.1 266 345.8C265.1 345.2 264.6 344.3 264.2 343.3C261.7 337.9 260.4 332.2 259.4 326.4C259 324.1 258.6 321.7 257.4 319.5C257.1 319.9 257.2 320.3 257.2 320.6C257.1 324.7 256.6 328.7 256.6 332.8C256.6 334.1 256.3 335.4 256.1 336.7C255.9 337.8 255.4 338.7 254.1 338.8C253 338.8 252.3 338.1 251.9 337.1C250.9 335.1 250.7 333.1 250.5 331C250.1 326.2 250 321.5 250.5 316.8C250.6 315.9 250.6 315 250.1 314.2C249.2 312.6 249 310.7 248.6 309C247.2 302.8 245.9 296.6 244.9 290.3C244.4 287 243.6 283.7 243.8 280.3C243.9 278.8 243.2 277.3 242.6 275.8C240.5 270.6 237.9 265.5 235.4 260.4C234.4 258.4 233.7 256.2 232.7 254.1C230.7 249.8 228.5 245.5 226.5 241.2C224.5 236.7 222.5 232.2 221.1 227.5C220.4 225.1 219.1 223 218 220.8C215.7 216.1 214.7 211.1 214.7 205.8C214.7 202.6 213.6 199.7 212.5 196.8C209.9 189.6 206.3 182.9 203 175.9C202.5 174.8 202 173.7 201.4 172.3C200.8 175.1 199.6 177.5 199.3 180.2C198.9 184.2 197.2 187.8 196.1 191.6C194.8 195.8 194 200.2 193.4 204.6C192.9 208.7 193.8 212.8 193.9 216.9C194 221 195.4 224.9 196.2 228.9C196.7 231.5 196.6 234.2 196.4 236.9C196.1 240.8 195.8 244.8 196.6 248.7C197.1 251.1 197.4 253.5 197.7 255.9C197.8 256.9 198.3 257.7 198.8 258.4C200.2 260.5 200.7 262.8 201.4 265.2C202.4 269 202.8 272.8 202.9 276.7C203 280.2 203.8 283.7 203.9 287.3C204 290.5 204.8 293.5 205 296.7C205.1 299.8 205.1 303 206.1 306.1C207.3 309.9 207.4 313.8 208.1 317.6C208.2 318 208.1 318.3 208.1 318.7C208.1 322.3 208.1 325.8 208.1 329.4C208.2 332.3 207.4 335.1 207.2 337.9C207.1 339.8 206.8 341.7 206.6 343.6C206.2 348.1 206.3 352.7 206.3 357.2C206.3 362 205.7 366.7 204.6 371.3C203.5 375.9 202.8 380.7 201.9 385.4C201 390.3 200.3 395.2 198.8 400C198.3 401.4 198.2 403 198.2 404.5C198.1 412.4 199.2 420.3 199 428.2C198.9 431 199.8 433.8 200.1 436.6C200.8 442 202.1 447.3 202.7 452.6C203.3 457.6 203.8 462.7 204.3 467.8C204.6 470.8 204.6 473.9 204.5 476.9C204.5 479.3 204 481.7 203.7 484.1C203.4 486.3 203 488.4 202.9 490.6C202.7 493.4 202 496.1 201.4 498.8C200.8 501.8 200.2 504.8 199.5 507.8C198.6 512.3 197.6 516.8 196.3 521.3C195.6 523.6 195.5 525.9 195.2 528.3C195 529.6 194.5 530.8 194.2 532C193.6 534.5 193.4 537 193.2 539.6C193.1 540.3 193.2 540.9 193 541.6C192.8 542.2 192.9 542.9 193 543.5C193.7 546.1 194.5 548.6 195 551.3C195.5 553.8 195.6 556.4 195.3 558.9C195.2 560 194.6 561.1 194.2 562.2C193.2 564.6 193.5 566.8 195.2 568.9C196.3 570.3 197.4 571.6 198.8 572.8C199.7 573.5 200.3 574.5 200.9 575.4C203.1 578.8 205.1 582.2 206.1 586.2C207.1 590.4 205.4 593.6 201.3 595C199.6 595.6 197.8 596.3 196 596.5C191.1 596.8 186.4 598.8 181.4 598.7C179.5 598.7 178.2 597.9 177 596.7C173.6 593.5 172.2 589.2 171.4 584.8C171.1 582.8 171 580.6 171.7 578.6C172.6 575.9 172 573.4 171.5 570.8C170.9 567.9 170.1 565 169.8 562.1C169.5 558.9 169.6 555.6 170.3 552.3C171.4 547.3 172.4 542.3 172.3 537.1C172.3 532.5 172.1 528 171.8 523.5C171.5 518.1 171.1 512.7 170 507.4C169.2 503.8 168 500.3 167 496.8C166.1 493.5 165.3 490.3 165 486.9C164.6 482.9 164.6 478.9 164.8 474.9C165 470.5 165 466.2 165.7 461.8C166.5 457 167.3 452.3 168 447.6C168.5 444 168.2 440.3 166.9 436.8C165 431.8 163.5 426.6 162.7 421.2C162.1 417.6 161.9 413.9 162.1 410.2C162.1 409.5 162.2 408.8 162.4 408.1C163.2 404.7 161.9 401.8 160.2 399C158.6 396.5 158.3 393.7 158.3 390.8C158.3 388.1 158.3 385.5 157.9 382.8C157 377.7 156.1 372.6 155.3 367.5C154.5 362.3 153.8 357.1 153 351.9C152.5 348.8 151.6 345.8 150.8 342.7C150.1 340.2 149.7 337.6 149.7 334.9C149.6 329.1 149.7 323.2 149.7 317.4C149.7 316.4 149.5 316 148.4 316.2C148 316.3 147.5 316.2 147.1 316.1C146 315.7 145.8 316 146 317.1C146.6 321 147 325 146.9 328.9C146.7 333.7 146.1 338.4 145.2 343.1C144.5 346.8 143.5 350.4 142.8 354.1C142.2 357.3 141.7 360.4 141.1 363.6C140.8 365.4 140.8 367.3 140.1 369C139.2 371.1 138.6 373.4 137.9 375.6C136.6 380.1 135.6 384.7 135.5 389.5C135.5 394.5 135.2 399.6 132.9 404.4C132.2 405.9 132.2 407.5 132.4 409.1C133.1 413.2 132.6 417.3 132.3 421.3C131.9 426.8 129.9 431.8 128.1 436.9C127 439.9 126.8 443.2 127 446.5C127.1 450.8 127.9 455.1 128.3 459.4C128.7 462.8 129.7 466 130.1 469.4C130.5 473 130.9 476.5 130.8 480.1C130.8 482.5 130.9 484.9 130.3 487.2C129.3 491.6 128.4 496.1 126.5 500.3C125.6 502.3 125.4 504.4 125.1 506.6C124.4 510.9 123.4 515.2 123.1 519.6C122.7 524 122.4 528.4 121.9 532.8C121.8 534 122 535.3 122 536.5C122 536.7 122 537 122.1 537.1C123.5 538 122.9 539.3 122.7 540.4C122.5 542 122.7 543.3 123.4 544.7C123.8 545.4 124.1 546.1 124.3 546.9C124.8 549.9 125.9 552.7 126.5 555.7C126.7 556.8 126.6 557.9 126.3 558.9C125.7 561.4 125.4 563.8 125.7 566.4C126 569.5 125.7 572.6 125.2 575.7C124.6 579.3 124.7 582.9 124.1 586.5C123.7 588.8 123.6 591.3 123 593.6C121.8 597.7 116.6 600.7 112.9 599.9C110.1 599.3 107.2 599.4 104.5 598.7C101.1 597.9 97.7 597.5 94.5 596.1C91.6 594.8 90.3 591.3 91.2 587.8C92.5 582.6 95.1 578.3 98.6 574.3C100 572.7 101.3 570.9 102.3 569C102.8 568 102.8 566.9 102.9 565.8C102.9 565.7 102.9 565.5 102.8 565.5C100.7 563.7 101.2 561.1 100.7 558.9C99.8 555.1 100.7 551.4 101.7 547.7C101.9 547 101.9 546.3 102 545.6C102.3 536 100.8 526.5 99 517.1C97.6 509.7 96.3 502.3 95 494.9C94.3 491.2 93.4 487.6 92.8 484C92.1 480 91.5 476 91.4 471.9C91.3 466.8 91.3 461.7 91.7 456.6C91.9 454.6 92.8 452.8 93.2 450.8C94.1 446.3 94.9 441.8 95.6 437.3C96 434.9 96.6 432.4 96.3 429.9C96 427.5 95.9 425.1 95.6 422.8C95.3 420.6 95.4 418.5 95.7 416.4C96.1 413.6 96.2 410.8 96.6 408C96.8 406.6 97.4 405.3 97.4 403.9C97.5 400.1 96.5 396.4 95.6 392.7C94 386.3 92.4 379.9 91 373.5C89.9 368.7 88.9 363.8 89.2 358.8C89.6 352.7 88.7 346.7 88 340.7C87.3 334.4 87.5 328 87.6 321.7C87.6 318.4 88.1 315.1 88.3 311.8C88.4 310.1 88.1 308.5 88.2 306.8C88.3 303.6 89.3 300.5 89.9 297.4C90.8 292.4 91.7 287.4 92.2 282.3C92.7 277.1 93.2 271.9 94 266.7C94.6 262.7 95.7 258.8 96.5 254.9C97.9 248.4 99.3 241.9 99.6 235.2C99.9 229.4 99.9 223.6 100.8 217.9C102 210.8 101.6 203.6 100.8 196.5C100.5 194.1 99.5 191.8 99 189.4C97.5 183.8 95.9 179 94.1 174.1ZM145.6 251.1C145.6 247.7 145.6 244.3 145.6 240.9C145.6 238.8 145.6 236.7 145.6 234.5C145.6 233.9 145.5 233.5 144.8 233.8C142 235.1 138.9 235.7 136.2 237.1C135.5 237.4 134.9 237.4 134.5 236.7C134.1 236.1 134.3 235.4 134.9 235C135.4 234.6 136 234.4 136.6 234.1C139.2 233.1 142 232.3 144.6 231.1C145.2 230.8 145.6 230.5 145.6 229.8C145.6 223 145.6 216.2 145.6 209.4C145.6 208.6 145.3 208.5 144.6 208.7C143.5 209.1 142.4 209.6 141.3 209.9C138.7 210.8 136.2 212.1 133.5 212.6C132.7 212.7 132 212.8 131.7 211.8C131.5 210.9 132.1 210.4 132.8 210.2C136.8 209.1 140.6 207.2 144.5 206C145.2 205.8 145.4 205.4 145.4 204.7C145.4 198.2 145.4 191.7 145.4 185.3C145.4 184.2 145 184.1 144.1 184.4C142.8 185 141.5 185.4 140.2 186.1C137.8 187.3 135.1 187.8 132.9 189.4C132.4 189.7 132 189.5 131.6 189.2C131.2 188.7 131.1 188.2 131.4 187.7C131.7 187.2 132.2 186.8 132.8 186.6C136.7 185.1 140.3 183.1 144.2 181.9C145.1 181.6 145.4 181.2 145.4 180.3C145.4 176.2 145.3 172.1 145.4 168.1C145.4 166.8 144.9 166.2 143.8 165.9C139.2 164.5 134.5 163.6 129.7 163.9C129.1 163.9 128.4 163.9 128.1 164.3C127.4 165.4 126.2 166.2 125.7 167.4C124.2 171.5 123 175.7 122.7 180.1C122.3 186.5 122.4 193 122.6 199.4C122.7 205.4 123.1 211.4 123.4 217.4C123.6 220.4 123.7 223.4 124.3 226.3C125.4 231.7 126.5 237 127.7 242.4C129 248.7 131.2 254.7 133.5 260.6C135.2 264.9 137.3 269 140.4 272.5C142.9 275.3 147.8 276 151.1 274.2C153.4 273 154.5 270.6 156.1 268.8C157.8 267 158.6 264.5 159.9 262.3C160.9 260.7 161.5 258.8 162 256.9C163.4 251.6 164.8 246.2 166.3 240.9C167.6 236.3 169.1 231.8 170.3 227.2C171.9 221.6 172.5 215.8 173.1 210.1C173.6 205.1 173.6 200.2 173.1 195.3C172.7 191.4 172.6 187.5 173.3 183.6C173.5 182.3 173.4 181.1 173.2 179.8C172.8 176.4 172.4 173 171.6 169.8C170.6 165.6 169.4 164.1 165.9 163.2C163 162.5 160 162.5 157.1 162.9C154.5 163.3 151.9 163.7 149.6 165.1C149.1 165.4 148.7 165.8 148.5 166.4C148.1 167.4 148.1 168.3 148.1 169.3C148.1 172.3 148.1 175.4 148.1 178.4C148.1 181.9 148.1 181.9 151.6 182.9C153.9 183.5 156.2 184.1 158.4 185.1C159.2 185.5 160 186 159.5 187C159.1 187.9 158.2 187.8 157.4 187.4C154.7 186.3 151.8 185.7 149.1 184.8C148.4 184.6 148 184.7 148.1 185.5V185.6C148.1 192.1 148.1 198.6 148.1 205C148.1 205.6 148.1 206.2 148.9 206.3C152.5 206.8 155.5 208.9 158.6 210.5C158.9 210.7 159.3 211 159.5 211.3C159.9 211.7 159.9 212.3 159.6 212.8C159.3 213.3 158.7 213.3 158.2 213.2C157.9 213.1 157.6 212.9 157.2 212.7C154.6 211.5 152.3 209.7 149.4 209.1C148.1 208.8 148 208.8 148 210.2C148 216.3 148 222.4 148 228.4C148 229.7 148.2 230.5 149.7 230.7C150.3 230.8 150.9 231.1 151.5 231.3C154.4 232.5 157.2 233.7 160.1 235C161 235.4 161.6 236.1 161 237.1C160.4 238.1 159.7 237.6 158.9 237.2C155.7 235.8 152.5 234.5 149.3 233.2C148.1 232.7 148 232.8 148 234.1C148 236.7 148.1 239.4 148.1 242C148.2 250.2 148.1 258.3 148.1 266.5C148.1 268.2 147.6 269 146.7 269C145.8 269 145.4 268.2 145.4 266.5C145.6 261.5 145.6 256.3 145.6 251.1ZM97.6 257.6C96.8 260.5 96.4 263.2 95.9 265.9C94.9 271.4 94.6 277 94 282.5C93.7 285.3 93.3 288.1 92.8 290.9C92.1 294.9 91.5 298.9 90.4 302.9C90.3 303.3 90.3 303.8 90.5 304.2C90.8 305.1 90.8 306.1 90.7 307.1C89.6 314.1 89.4 321.2 89.4 328.4C89.4 332.4 89.6 336.4 90 340.5C90.6 345.6 91.4 350.6 91.1 355.8C91 357.6 91.1 359.4 91.1 361.2C91.1 362.5 91.3 363.8 91.5 365.1C92.2 369.6 93.4 374 94.3 378.5C95.2 382.4 96 386.2 97.2 390C98.1 392.7 99 395.4 99.3 398.2C99.4 398.9 99.2 399.7 99.7 400.4C100.5 401.4 101.2 402.4 102 403.5C102.5 404.2 103.2 404.3 104 404C105 403.5 106.1 403 107.2 402.6C110 401.6 112.7 401.4 115.3 403.4C117.5 405.2 120.2 405.9 123 406.2C123.8 406.3 124.5 406.1 125.2 405.7C127.9 403.9 129.7 401.1 132 398.9C132.1 398.8 132.2 398.6 132.2 398.4C132.8 395.6 133.1 392.6 133 389.7C132.9 384.6 134.1 379.8 135.4 374.9C136.1 372.3 137.1 369.8 137.7 367.1C137.9 365.9 137.7 365.7 136.5 365.8C136.1 365.8 135.6 365.8 135.2 365.7C131.4 364.8 128.2 362.8 125.8 359.9C122.4 355.8 119.8 351.1 118.1 346C115.3 337.9 113.9 329.4 112.4 321C111 313.5 110 305.9 108.8 298.3C107.6 290.6 106.2 282.9 104.7 275.3C103.7 270.3 102.2 265.4 99.8 260.9C99.1 259.6 98.5 258.6 97.6 257.6ZM180.7 441.5C180.3 441.5 179.9 441.5 179.6 441.5C178.1 441.5 178.1 441.5 178.1 443C178 446.2 177.9 449.3 177.5 452.5C176.9 458.3 175.6 463.9 174.5 469.6C173.5 474.5 172.8 479.5 170.6 484.1C170.4 484.4 170.3 484.9 170.3 485.3C170.4 487.4 169.2 488.9 168.3 490.6C168.1 490.9 167.9 491.2 168 491.6C168.2 492.7 168.4 493.8 168.8 494.9C170 498.9 171.4 502.7 172.2 506.9C173.2 512.2 173.8 517.5 174 522.9C174.2 527.6 174.3 532.4 174.4 537.1C174.5 542 173.5 546.7 172.7 551.4C172.4 553.4 171.9 555.3 171.8 557.3C171.6 561.7 172.8 565.8 173.7 570C174.2 572.4 174.7 574.8 174.2 577.2C173.6 580.3 173.3 583.3 174.1 586.4C175 589.8 176.4 592.8 179 595.2C179.8 595.9 180.7 596.3 181.8 596.3C183.1 596.3 184.4 596.1 185.7 595.8C187.5 595.4 189.3 594.8 191.1 594.6C194.5 594.3 197.7 593.6 200.9 592.4C203.8 591.3 204.8 589.6 204.2 586.6C203.4 582.7 201.3 579.4 199.2 576.1C198.7 575.4 198.3 574.6 197.6 574C196.1 572.7 194.9 571.2 193.6 569.7C191.6 567.2 191.4 564.5 192.3 561.6C193 559.4 194 557.3 193.6 554.9C193.3 552.9 193.1 551 192.6 549C192 546.6 191 544.3 191 541.8C191 541 191.2 540.2 191.2 539.4C191.3 536.6 191.7 533.9 192.3 531.1C192.6 529.8 193.1 528.5 193.4 527.2C193.8 525.2 193.6 523.1 194.3 521.1C195.8 516.5 196.8 511.8 197.8 507.1C198.4 504.1 198.9 501 199.7 498C200.5 494.9 201.3 491.8 201.4 488.6C201.6 484.6 202.4 480.8 202.8 476.9C202.9 476.1 202.9 475.6 202 475.1C199.6 473.6 197.8 471.6 197.1 468.7C196.4 465.9 195.7 463.1 195.2 460.3C194 453.4 193 446.5 191.6 439.6C191.4 438.7 191.3 438.3 190.2 439C186.9 440.7 183.9 441.8 180.7 441.5ZM205.4 325.7C205.4 321.4 205.5 318.2 205.1 315C204.8 312.7 204.7 310.4 204 308.2C203.2 305.7 202.7 303.1 202.6 300.5C202.5 296.3 202.1 292 201.4 287.9C200.9 284.3 200.7 280.6 200.4 277C200.2 274 200.2 271 199.4 268.1C198.9 266.4 198.5 264.6 198.1 262.9C198.1 262.7 198 262.4 197.7 262.4C197.4 262.4 197.4 262.7 197.3 262.9C197.2 263.4 197 264 196.9 264.5C195.6 269.5 195.1 274.7 193.9 279.8C191.2 290.9 187.7 301.7 185.8 313C184.8 318.9 182.9 324.6 181.6 330.4C180.2 336.5 178.5 342.4 175.8 348C173.9 352 172.5 356.4 168.5 359C167.8 359.4 167.1 359.8 166.5 360.4C164.2 362.5 161.6 363.9 158.5 364.5C157.8 364.6 157.1 365 157.3 366C157.6 367.8 157.8 369.6 158.2 371.4C158.8 374.6 159.7 377.8 160.1 381C160.7 385.1 160.9 389.3 160.9 393.4C160.9 394.9 161.2 396.2 162.1 397.5C163.3 399.3 164.4 401.3 164.9 403.5C165.1 404.2 165.6 404.5 166.2 404.8C167.6 405.4 169 405.7 170.4 406.1C172.2 406.6 173.7 406.3 175.1 405.2C176.3 404.2 177.5 403.3 178.7 402.4C180.5 401.1 182.5 400.6 184.7 401C186.2 401.3 187.6 401.7 189 401.9C191.5 402.3 193.7 401.8 195.1 399.4C196.4 397 197.7 394.6 198 391.9C198.1 390.6 198.4 389.2 198.6 387.9C199 384.9 199.7 381.9 200.5 378.9C201 377.3 201 375.7 201.4 374.1C202.9 368.3 203.9 362.5 203.8 356.5C203.8 351.4 203.8 346.4 204.4 341.3C204.9 335.7 205.7 330.2 205.4 325.7ZM92.7 589.3C92.8 591.2 93.5 593.3 96 594.1C98.6 594.9 101.4 595.1 104 596.1C104.4 596.3 104.9 596.3 105.3 596.3C107.7 596.6 110.1 596.8 112.4 597.2C116 597.9 119.9 595.4 120.8 592C121.4 589.6 121.6 587.1 121.9 584.7C122.3 581.1 122.5 577.5 123.1 573.9C123.5 571.2 123.8 568.5 123.4 565.8C123.1 563.5 123.4 561.2 123.9 558.9C124.3 557.4 124.5 555.9 124 554.4C123.4 552.1 122.6 549.8 122.2 547.4C121.8 545.1 120.1 543.3 120 540.9C119.9 537.8 119.3 534.8 119.6 531.7C120 527.7 120.3 523.8 120.7 519.8C120.9 517.5 121.1 515.1 121.6 512.8C122.1 510.4 122.4 508 122.8 505.6C123.3 503.2 123.5 500.8 124.5 498.5C125.4 496.7 126 494.8 126.5 492.9C126.7 492.1 127.4 491.2 126.7 490.2C125.4 488.5 124.1 486.9 123.1 485C121.1 481.1 119.7 476.9 119 472.5C117.9 465.8 116.8 459.1 116.2 452.3C116 449.9 115.9 447.4 115.8 445C115.8 444.4 115.7 443.8 114.8 444.1C111.6 445.2 108.4 444.7 105.3 443.7C104.5 443.5 104.4 443.6 104.3 444.4C104.1 448.2 103.7 452 103 455.8C102.3 459.6 101.5 463.3 101 467.1C100.5 470.6 99.8 474.1 98.7 477.5C98 479.5 97.2 481.3 95.4 482.5C94.6 483 94.5 483.6 94.7 484.4C95.8 489.6 96.9 494.9 97.8 500.1C99.1 507.6 100.5 515 101.8 522.5C103.2 530.1 103.9 537.7 103.7 545.5C103.7 545.9 103.7 546.4 103.6 546.8C102.7 549.6 102.2 552.4 102.1 555.3C102.1 557.1 102.3 558.9 103.3 560.5C104.9 563.2 105.1 566.3 103.9 569.1C102.9 571.3 101.3 573.1 99.9 575C98.1 577.5 95.8 579.6 94.7 582.6C93.9 585 93 587.1 92.7 589.3ZM175.3 212.4C174.9 216.9 174.3 221.4 173.1 225.8C170.7 234.6 168.2 243.3 165.8 252C164.4 257 163.2 262 160.4 266.4C158.8 269 157.4 271.7 155.2 274.1C150.2 279.3 142.1 278.1 138.4 273.5C135.5 269.8 133.4 265.6 131.5 261.3C127.9 252.9 125.9 244 124 235.1C122.6 228.7 121.6 222.3 121.2 215.8C120.9 210.1 120.6 204.5 120.5 198.8C120.4 189.6 120 180.3 122.1 171.3C122.4 170.2 122.9 169.1 122.1 167.9C122 167.7 122.1 167.2 122.3 166.9C122.7 165.7 123.4 164.8 124.3 164C124.6 163.8 125 163.6 125.3 163C123.4 163.7 121.5 163.4 119.7 163.7C118.4 164 117.3 163.2 116.1 162.9C113.6 162.3 111.5 161.2 109.3 159.9C107.2 158.6 105.1 157.3 103 156C103.2 156.3 103.4 156.6 103.6 156.9C106.6 160.6 109.4 164.5 111.1 169.1C112.4 172.6 113.2 176.2 114.5 179.6C117.4 187.3 118.9 195.2 119.7 203.3C120.6 212.1 120.7 220.9 120 229.7C119.4 236.8 117.6 243.2 113.2 249.1C110.7 252.4 107.8 254 103.9 254.4C102.4 254.5 100.9 254.3 99.4 253.9C99.1 253.8 98.8 253.1 98.4 253.8C98.1 254.3 98.4 254.7 98.8 255C99.9 255.8 101 256.4 102.2 257C105.1 258.5 108.1 259.9 109.6 263.2C110.7 265.6 112.5 267.3 114.3 269.1C115 269.7 115.6 270.4 116.2 271.1C120.9 276.8 124.6 283.1 128.3 289.5C130.3 293 131.4 297 133.2 300.7C134.9 304.2 136.9 307.2 139.7 309.9C142.3 312.3 145.2 313.3 148.5 313.3C150.8 313.3 152.9 312.6 154.3 310.6C157.4 306.1 160.4 301.5 163.1 296.7C165.9 291.5 168.4 286 171.6 281C175.1 275.6 178.2 269.8 183.5 265.8C183.7 265.6 184 265.3 184.2 265.1C187.6 261.7 190.9 258.4 194.3 255C194.5 254.8 195 254.7 194.8 254.3C194.6 253.8 194.2 254.2 193.9 254.3C191 255.6 188.3 255.1 185.9 253.2C183.2 251.1 181 248.6 179.7 245.4C177.2 238.9 176.6 232.1 175.9 225.3C175.5 220.9 175.3 216.7 175.3 212.4ZM214.6 143.8C213.2 142.4 211.7 141 210.3 139.5C206.3 135.2 203.3 130.3 201.6 124.7C201.2 123.4 200.8 122.2 200.3 121C198.5 116.8 195.9 113.4 191.1 112.3C190.2 112.1 189.4 111.6 188.7 111C186.8 109.7 184.6 108.7 182.3 108.3C179.1 107.8 176.1 106.8 173 106C168 104.8 163.2 105.4 158.4 106.4C156.1 106.9 153.8 108 151.6 109C149.9 109.8 149.1 111.2 149 113C148.9 116.6 149 120.1 148.8 123.7C148.6 128.3 148.7 133 148.7 137.6C148.7 140.1 148.8 142.6 148.6 145.1C148.5 145.9 148.3 146.8 148.8 147.4C150.8 149.9 153 152.3 155.7 153.9C159.6 156.3 163.8 157.9 168.1 159.3C170.7 160.1 173.6 160.4 176.3 159.7C179.4 159 182.3 157.6 185.1 156C189.6 153.4 193.6 150.2 198.1 147.7C200.8 146.2 203.4 144.7 206.6 144.4C208.9 144.2 211.2 143.7 213.6 143.9C214 144.2 214.3 144.2 214.6 143.8ZM130.8 108C127.9 107.9 124.6 108.1 121.3 108.5C117.7 108.9 114.1 108.9 110.7 110.6C105.6 113.2 101 116.5 97.8 121.2C95.8 124.1 93.8 127 92.3 130.1C90.4 134 87.3 137 84.7 140.2C84.5 140.5 83.9 140.7 84.1 141.2C84.3 141.6 84.8 141.4 85.2 141.4C88.2 141.6 91.2 142.2 93.3 144.4C96.1 147.3 99.3 149.6 102.4 152.1C107.3 156.1 112.8 159 119.1 160.2C122.5 160.8 125.7 160.8 128.6 158.7C129.4 158.1 130.3 157.5 131.2 156.9C135.1 154.5 139.1 152.1 143 149.7C145 148.5 146.5 147 146.2 144.2C146 141.8 146.2 139.4 146.3 137C146.5 129 146.3 120.9 146.6 112.9C146.6 112 146.8 111 145.4 111.2C145.1 111.2 145 111 144.9 110.8C144.4 109.8 143.5 109.5 142.5 109.1C138.7 108 135 108 130.8 108ZM168.6 37.9C168.3 32.3 168 27 166.6 21.7C165.1 16.3 162.6 11.9 158.2 8.4C155.7 6.4 152.8 5.89999 149.9 5.59999C145.9 5.19999 142.1 6.5 138.4 8C137.6 8.3 136.7 8.49999 136.1 9.19999C133.2 12.3 130.7 15.7 128.9 19.4C126.9 23.6 126.3 28.2 126.1 32.8C125.9 38.9 126.6 45 127.2 51.1C127.7 55.5 129.4 59.2 132.4 62.4C134.5 64.6 136.6 66.8 138.9 68.7C142 71.2 145.4 72.9 149.6 72.3C152.4 71.9 154.8 70.4 156.8 68.7C159.1 66.7 161.4 64.4 163.1 61.7C164.7 59.1 166.3 56.5 166.7 53.4C167.4 48.1 168 42.9 168.6 37.9ZM151.4 325.3C151.4 327.6 151.5 329.9 151.4 332.3C151.4 334.3 151.4 336.3 151.8 338.3C152.3 341 153.1 343.6 153.7 346.2C154.6 349.9 155.3 353.6 155.7 357.4C155.8 359 156.2 360.6 156.4 362.2C156.4 362.4 156.4 363 156.9 362.8C158 362.2 159.4 362.2 160.5 361.7C163.2 360.4 165.3 358.5 167.7 356.7C169.2 355.6 170.3 354.2 171.2 352.5C171.8 351.3 172.3 350.1 172.8 348.9C175.3 343.3 177.8 337.7 178.9 331.5C180 325.3 182.1 319.4 183.3 313.2C184.3 308.2 185.1 303 186.6 298.1C188.7 291.1 190.5 284 192.2 276.9C193.6 271.1 194 265 196.2 259.4C196.6 258.5 195.6 257.9 195.1 257.4C194.6 257 194.3 257.8 194.1 258C190 262 186.1 266.3 181.7 270.1C180.9 270.8 180.2 271.5 179.6 272.4C175.4 278.8 171 285.1 167.7 292.1C164.5 298.9 160.4 305.2 156.1 311.4C155.1 312.8 154.1 314.1 152.3 314.5C151.4 314.7 151.3 315.1 151.3 315.9C151.5 318.9 151.4 322.1 151.4 325.3ZM81.1 194.7C80.4 195.2 79.9 195.4 79.4 195.8C75.9 198.6 71.9 199.9 67.5 200.2C65.4 200.3 63.7 199.7 62.5 197.8C61.3 195.9 60.4 193.8 60.4 191.5C60.4 191.2 60.5 190.7 60 190.6C59.6 190.5 59.5 191 59.4 191.2C58.4 193.1 57.1 194.6 55.8 196.3C54.3 198.2 52.3 199.8 51.4 202.1C49.2 207.5 47.3 213 46.2 218.7C44.8 226.2 42.8 233.7 41.9 241.3C41.3 246.8 39.1 251.9 38.3 257.3C37.9 260 36.5 262.4 35.7 265C34.7 268.2 33.6 271.4 32.7 274.6C32.3 276.1 31.9 277.5 32.3 279.1C33.6 283.7 38.8 286.4 43.6 283.1C47.1 280.7 49.6 277.4 51.2 273.6C52.6 270.6 53.4 267.3 54.8 264.2C56.3 260.7 57.7 257.2 59.6 253.9C62 249.8 64.1 245.4 66.4 241.2C67.2 239.8 67.7 238.2 68.2 236.7C69.1 234 70 231.2 71.4 228.7C73.3 225.2 75 221.7 76.6 218.1C78.4 214.1 79.3 209.9 79.1 205.5C79 202.8 79.3 200.3 80 197.7C80.4 196.8 80.8 195.9 81.1 194.7ZM216.1 200.6C217.1 203.7 216.7 206.8 217.1 209.9C217.4 212.2 217.8 214.5 218.6 216.8C220.2 221 222.2 225.1 224.1 229.2C226.9 235.4 229.1 241.8 232.1 247.9C235.4 254.6 238.3 261.5 241.7 268.3C243.2 271.3 244.6 274.3 245.5 277.5C246 279.3 247 280.6 248.1 282C251.3 286 256.1 285.2 259 282.6C260.5 281.2 261 279.4 261.9 277.7C263 275.6 262.9 273.5 262.1 271.4C260.2 266.6 258.8 261.7 257.4 256.8C255.8 251.2 254.3 245.6 253.4 239.9C252.3 233.3 250.9 226.7 249.1 220.3C247.6 215.2 245.9 210.1 244.4 205C242.8 199.4 239.5 194.9 235.9 190.5C235.6 190.8 235.7 191.2 235.7 191.5C235.6 195.1 234.3 198.3 232.7 201.4C230.9 204.7 226 207.6 221.4 204.4C219.7 202.9 218 201.8 216.1 200.6ZM101.2 258.6C101.4 259 101.5 259.2 101.6 259.4C103.7 263.2 105.2 267.3 106.1 271.5C109.2 285.3 111.2 299.3 113.5 313.3C115 322.4 116.6 331.6 118.9 340.5C120.5 346.9 123.3 352.9 127.7 357.9C130.3 360.9 133.5 363.3 137.9 362.8C138.8 362.7 138.9 362.4 139 361.7C139.3 358 140.1 354.4 140.9 350.9C141.8 347.5 142.6 344 143.2 340.5C143.9 336.6 144.3 332.7 144.5 328.7C144.6 324.5 144.3 320.2 143.7 316C143.5 314.8 143.1 313.8 141.8 313.4C141 313.1 140.3 312.6 139.6 312C138.4 310.8 137.2 309.7 136 308.5C134.8 307.4 133.9 306.1 133.2 304.7C131.4 301 129.5 297.2 128.1 293.3C126.5 289 123.7 285.3 121.4 281.4C118.7 276.9 115.6 272.6 111.8 268.9C110.5 267.7 109.2 266.4 108.5 264.7C107 261.8 104.4 260.1 101.2 258.6ZM253.8 336.5C254.2 334.4 254.4 332.6 254.4 330.7C254.4 326.7 254.9 322.7 255.1 318.6C255.1 317.6 255.5 316.7 256.6 316.5C257.7 316.3 258.3 317.1 258.7 317.9C259.4 319.4 260.1 320.9 260.5 322.5C261.6 327.6 262.3 332.8 264 337.8C264.7 339.7 265.4 341.6 266.4 343.4C266.6 343.8 267 344.3 267.5 344.2C268.1 344.1 268 343.5 268.1 343C268.3 342.4 268.1 341.9 268 341.3C267.5 339.2 267.1 337.1 266.5 335C265.1 330.2 263.9 325.4 263.6 320.4C263.6 319.5 263.5 318.5 264 317.7C264.7 316.6 265.6 316.4 266.6 317.2C267.6 318 268.3 319 268.7 320.2C269.3 321.8 269.8 323.4 270.4 324.9C271.9 328.9 273.3 333 274.8 337C275.6 339 276.3 341.1 278 342.7C278.7 343.3 279.1 343.2 279.6 342.4C279.8 342 279.9 341.6 279.8 341.1C279.5 339.2 279.3 337.4 278.6 335.6C277.1 331.1 275.4 326.7 273.9 322.2C273.3 320.4 272.4 318.7 272.5 316.7C272.5 315.9 272.7 315.1 273.6 314.7C274.5 314.4 275.1 314.9 275.5 315.6C277.4 318.2 279.6 320.6 281.3 323.4C283.4 326.8 285.4 330.2 287.9 333.3C288.1 333.6 288.4 333.9 288.7 334.2C288.9 334.4 289.1 334.5 289.3 334.4C289.4 334.3 289.4 334 289.4 333.9C289.3 332.8 288.9 331.8 288.5 330.8C285.9 324.8 282.9 319 279.5 313.4C277.9 310.8 276.9 307.8 276.7 304.7C276.6 303.3 276.6 301.8 278.2 301C280 300.1 281.2 300.4 282.7 301.9C283 302.2 283.3 302.5 283.5 302.8C285.1 305.2 287.3 307.2 289 309.5C290.1 311 291.6 311.6 293.4 312C294.2 312.2 294.2 311.9 294.1 311.3C293.8 309.8 292.9 308.7 291.8 307.7C290.2 306.2 289.1 304.4 288.1 302.5C286.4 299.5 284.6 296.5 281.9 294.3C279.8 292.5 277.3 291.2 274.9 289.8C272.9 288.6 270.7 287.9 268.8 286.6C268.1 286.1 267.3 285.9 266.9 285.1C266.1 283.7 265.3 282.3 264.9 280.6C264.7 279.9 264.5 279.2 264.2 278.5C262.9 282.3 260.6 285 256.8 286.5C252.7 288.1 249.5 286.2 246 284.3C246.6 286.4 246.5 288.5 246.9 290.4C247.8 294.9 248.6 299.4 249.6 303.9C250.2 306.8 250.6 309.7 251.6 312.5C252.3 314.4 252.5 316.4 252.3 318.5C251.8 323.6 252 328.7 252.8 333.8C252.8 334.6 253.1 335.5 253.8 336.5ZM118.3 216.6C118.2 214.2 118 211.1 117.8 207.9C117.5 200.3 116 192.9 114.2 185.5C113.5 182.7 112.2 180.1 111.5 177.3C110.2 172.3 108.7 167.3 105.6 163C103.6 160.2 101.7 157.3 98.7 155.4C98.3 155.2 98 154.7 97.4 155C96.9 155.3 97 155.9 97.1 156.3C97.7 159.9 97.1 163.4 96.4 166.9C95.9 169.9 96.2 172.7 97.1 175.5C98.1 178.5 99.4 181.4 100 184.5C101 189.7 103 194.6 103.2 200C103.4 204.7 103.8 209.4 103.2 214.1C102.5 220 101.7 226 101.6 232C101.4 237.8 101.1 243.6 99.4 249.3C98.7 251.5 98.9 251.5 101.1 251.6C101.3 251.6 101.5 251.6 101.7 251.6C105.6 252.1 108.9 251.3 111 247.6C111.2 247.3 111.5 247 111.6 246.7C112.9 244.7 114.7 242.9 115.5 240.6C116.1 238.7 116.7 236.9 117.1 235C118.1 229.2 118 223.3 118.3 216.6ZM49.4 282.5C48.8 282.6 48.5 283 48.2 283.2C46.4 284.6 44.5 285.9 42.4 286.8C38.8 288.3 36 287.7 33.2 284.9C32.3 284 31.5 283.1 30.8 282C30.6 281.6 30.4 281.3 30 281.9C28.1 284.2 25.6 285.7 23 287C20.1 288.4 17.6 290.5 15.5 292.9C11.8 297 8.80001 301.6 5.30001 305.8C4.30001 307 3.3 308.3 2.4 309.6C2.1 310.1 1.2 310.8 1.9 311.3C2.5 311.8 3.20001 311.1 3.80001 310.6C5.90001 308.6 8 306.7 9.7 304.3C10.7 302.8 11.8 301.3 13.3 300.2C14.4 299.3 15.6 299.2 16.8 299.9C17.9 300.5 18.1 301.7 18 302.8C17.9 303.3 17.8 303.7 17.7 304.2C16.2 310.9 13.7 317.2 9.80001 322.8C8.30001 324.9 7.1 327.2 6.2 329.7C5.8 330.9 5.40001 332.1 5.50001 333.3C5.50001 333.6 5.5 334 5.9 334.1C6.2 334.3 6.40001 334 6.60001 333.8C8.20001 332.4 9.7 330.9 10.7 329C12 326.7 13.1 324.3 14.4 322C15.8 319.6 17.3 317.2 19.2 315.2C19.8 314.6 20.6 314.1 21.5 314.5C22.4 314.9 22.4 315.8 22.3 316.6C22 318.5 21.6 320.3 20.9 322C19 326.7 17.3 331.5 15.1 336C14.2 337.8 14.3 339.7 15 341.6C15.3 342.4 15.7 342.4 16.3 342C17.4 341.1 17.8 339.9 18.4 338.7C19.7 335.7 21 332.6 22.1 329.5C23.2 326.2 25.2 323.3 26.4 320C26.7 319.2 27.2 318.5 27.8 317.8C28.2 317.3 28.8 317.1 29.4 317.3C30.1 317.5 30.4 318 30.5 318.7C30.6 319.1 30.6 319.4 30.5 319.8C30 324.1 28.8 328.3 28.1 332.6C27.7 335.3 27.1 338 27.2 340.7C27.2 341.4 27.1 342.4 27.9 342.6C28.8 342.8 28.9 341.7 29.1 341.1C30.3 338.1 31.1 335.1 31.8 331.9C32.8 327.3 34 322.7 35.2 318.1C35.4 317.4 35.8 316.7 36.3 316.2C37.1 315.5 38.1 315.7 38.6 316.7C38.7 317.1 38.8 317.5 38.8 317.9C39 322.1 39.2 326.4 39.9 330.5C40.2 332.2 40.3 333.9 41 335.6C41.5 335.3 41.5 334.8 41.6 334.5C42.6 331.1 42.5 327.6 42.5 324.2C42.5 320 42.4 315.8 43.7 311.7C44.5 309.4 45 307.1 45.5 304.7C46.5 299.6 47.7 294.6 48.9 289.6C49.4 287.1 48.9 284.8 49.4 282.5ZM177.7 217.4C177.7 217.7 177.7 218 177.7 218.4C178 223.7 178.6 228.9 179.2 234.1C179.9 240.2 182 245.6 186.5 250C188.1 251.5 189.8 252.2 192 252.1C193.7 252 194.4 251.1 194.1 249.4C193.7 247.3 193.2 245.2 193.3 243C193.5 240.5 193.5 237.9 193.8 235.4C194.1 233.2 193.6 230.9 193.3 228.7C192.9 226.1 191.9 223.6 191.4 220.9C191.2 219.5 191.2 218.2 191.2 216.9C191.1 214 190.5 211.1 190.4 208.2C190.3 206.1 190.8 204 191.1 201.9C191.8 197.7 192.5 193.5 194 189.4C194.8 187.3 195.7 185.2 196.1 182.9C196.6 179.7 197.4 176.6 198.4 173.5C199.2 171 199.4 168.6 198.5 166C197.2 161.7 197.4 157.4 199.1 153.2C199.3 152.7 200 152 199.4 151.6C198.9 151.2 198.3 151.8 197.8 152.2C192.7 156.1 188.3 160.7 185.4 166.5C181.2 175 178.5 184 178.9 193.6C179.1 197.3 178.9 201 178.4 204.6C178.1 208.9 177.9 213.1 177.7 217.4ZM233.2 188.1C233.1 186.8 233.5 185.5 233 184.3C231.5 180.6 231 176.8 231 172.8C231 170.3 230.5 167.9 229.8 165.5C228.6 161.4 226.5 157.6 225.8 153.4C225.7 152.7 225.2 152.2 224.5 152.1C222.6 151.6 220.9 150.6 219.2 149.6C215.7 147.6 211.9 147.6 208 148.1C204.6 148.6 203.4 149.7 202.5 153C201.6 156.6 201.3 160.2 201.3 163.9C201.3 165 201.1 166.1 201.6 167.3C203.8 171.9 205.8 176.5 207.7 181.2C209.2 185 211.6 188.4 212.9 192.2C213.5 194 214.2 195.6 215.7 197C218 199 220.4 200.8 222.9 202.3C223.4 202.6 223.9 202.9 224.5 202.8C226.9 202.5 229 201.8 230.3 199.4C232.4 195.9 233.5 192.2 233.2 188.1ZM94.5 155.9C94.5 150.2 91.9 147.4 88.4 145.1C88 144.9 87.6 144.8 87.2 144.7C83.6 144 80.3 144.9 77.3 146.8C74.6 148.4 72.3 150.4 70.5 153.1C70 153.9 69.1 154.5 69.3 155.6C69.4 156 69.1 156.3 68.7 156.5C68.3 156.7 68.1 156.9 68 157.3C67.1 160.4 66 163.4 65.5 166.7C64.6 172.6 64.1 178.6 62.7 184.4C62.4 185.7 62.3 187.1 62.6 188.4C62.9 189.7 63 191.1 63.1 192.4C63.2 193.7 63.7 195 64.9 195.6C67 196.7 69.4 197.4 71.7 196.6C76.8 194.7 81.6 192.2 84.2 187C86.7 181.9 90.2 177.4 92.1 172C93 169.5 93.8 167 94.2 164.3C94.7 161.1 94.8 158 94.5 155.9ZM132.1 65.1C132.1 66.7 132.2 67.9 132.1 69.2C131.6 75.4 131.1 81.7 131.5 88C131.8 93.1 131.7 98.2 130.8 103.3C130.5 104.8 130.6 104.8 132.1 104.7C132.4 104.7 132.7 104.7 132.9 104.7C137.3 104.7 141.3 106.3 145.3 108C146 108.3 146.5 108.4 147.3 108.2C152.9 106.4 158.2 103.7 164.3 103.5C163.3 101.2 163.4 98.9 163.4 96.6C163.3 92.3 163.4 88.1 163.6 83.8C163.6 82.9 164.3 82.2 164.2 81.3C163.3 76.4 162.9 71.4 163 66.4C163 66.3 162.9 66.2 162.8 65.9C161.8 67.3 160.3 68 159.3 69.2C158.2 70.5 156.7 71.1 155.3 72C152 74.1 148.5 75.5 144.6 74C143.3 73.5 142.1 73 140.8 72.5C139.6 72.1 138.7 71.4 137.8 70.6C136 68.8 134.2 67.1 132.1 65.1ZM99.3 403.6C99.2 405.4 98.2 406.8 98.1 408.5C98 410.4 97.9 412.3 97.6 414.2C96.9 418.4 97.3 422.5 97.7 426.6C97.9 429.2 98 431.8 97.7 434.4C97.3 437.9 97.9 438.8 100.8 440.3C103.1 441.5 105.6 442.2 108.2 442.7C110.4 443.2 112.6 443.1 114.7 442.3C115.4 442 115.7 441.3 116.4 441.2C118.4 440.9 119.8 439.6 121.3 438.4C122.9 437.1 124.2 435.6 125.8 434.2C126.8 433.3 127.4 432.4 127.8 431.2C128.8 428.1 129.8 425 130.1 421.7C130.5 417.5 131 413.2 130.3 408.9C130.1 407.4 130 405.9 130.6 404.4C129.6 404.5 129.3 405.3 128.8 405.9C127.2 407.7 125.2 408.5 122.8 408.3C119.9 408.1 117.1 407.2 114.6 405.5C112.7 404.2 110.6 403.5 108.3 404.6C107.2 405.1 106 405.4 104.8 405.9C102.8 406.7 101.5 406.4 100.2 404.7C99.9 404.3 99.6 403.9 99.3 403.6ZM164.7 406.5C164.5 407.8 164.2 409.1 164.1 410.3C163.8 413.7 164.3 417.2 164.7 420.5C165.3 425 166.7 429.4 168.1 433.8C168.3 434.5 168.6 435.1 169.2 435.4C171.5 436.6 173.7 438.3 176.1 438.9C179.6 439.9 183.2 439.7 186.6 438C190 436.3 192.4 433.5 194.6 430.6C195.8 429 196.3 426.9 196.4 424.7C196.6 417.2 195.5 409.7 195.8 402.2C195.8 402.1 195.7 402 195.7 401.9C195.4 401.8 195.3 402 195.2 402.1C193.8 403.3 192.2 403.9 190.4 403.8C188.7 403.8 187 403.6 185.3 403C182.9 402.3 180.8 402.6 178.9 404.3C178 405.1 177 405.8 176.1 406.6C174.1 408.1 172 408.7 169.6 407.9C168.1 407.7 166.4 407.2 164.7 406.5ZM177.9 104.3C177.9 104.4 177.9 104.5 177.9 104.6C178.9 104.9 179.8 105.3 180.7 105.5C184.2 106.1 187.4 107.2 190.4 109.2C190.9 109.6 191.6 109.9 192.2 110.1C196.8 111.3 200.1 114.1 202 118.5C203 120.8 204 123.1 204.7 125.5C206.1 130.3 208.9 134.2 212.2 137.9C214.8 140.8 217.8 143.2 220.6 145.9C221.6 146.9 223 147.4 224.3 148.1C224.7 148.3 224.9 148.3 224.9 147.8C224.9 147.5 225 147.2 225.1 147C227.2 142.6 227.4 137.8 228.1 133C228.5 130 227.7 127.1 228 124.2C228 123.8 227.9 123.3 227.6 123.1C226.8 122.6 226.7 121.9 226.4 121.2C225.7 119.9 225 118.6 224.2 117.4C221.1 113.1 217.2 109.7 213.4 106C210.6 103.3 207.3 101.7 203.5 100.9C203.1 100.8 202.6 100.8 202.2 100.9C201.5 101.1 200.8 100.9 200.1 100.8C198 100.5 195.8 100.1 193.7 100.5C189.9 101.2 186.1 102.3 182.2 103C180.8 103.3 179.3 103.6 177.9 104.3ZM112.1 107.5C111.6 107.3 111.3 107.2 111 107.1C107 105.7 103.2 104.1 99.6 101.8C98.5 101.1 97.2 100.8 95.8 100.7C90.9 100 87.1 102.5 83.6 105.4C82 106.7 80.7 108.4 79 109.6C77.6 110.5 76.5 111.6 75.5 112.9C72 117.5 69.7 122.6 68.6 128.2C68 131.2 66.9 134.2 67.1 137.4C67.4 141.5 67.6 145.5 67.8 149.6C67.8 149.9 67.7 150.4 68.1 150.5C68.4 150.6 68.7 150.3 68.9 150.1C71 148.4 73.1 146.6 75.3 145C80 141.4 84 137.1 87.6 132.5C89.7 129.8 90.7 126.5 92.9 123.8C94.3 122 95.1 119.9 96.6 118.2C101.1 113.4 105.8 109.5 112.1 107.5ZM100.4 99.9C102.8 100.8 105 102 107.3 103C109.3 103.9 111.1 105 113.3 105.2C116.7 105.6 120.1 105.9 123.5 106.3C124.4 106.4 125.3 106.3 126.1 106.1C127.7 105.6 128.6 104.3 128.8 102.7C129 101.1 129.3 99.5 128.8 97.9C128.5 96.9 129.2 96 129.3 95C129.5 93 129.1 90.9 129.2 89.3C129.2 88 129.2 87.2 129.2 86.3C129.2 85.8 129.5 85.2 128.8 85C128.2 84.8 127.7 85.1 127.3 85.6C125.7 88 123.6 89.8 121.1 91.3C120.7 91.5 120.5 91.9 120.1 92.2C117.6 94.1 115 95.9 112.1 97C108.4 98.5 104.5 99.4 100.4 99.1C100.1 99.1 99.8 99.1 99.8 99.4C99.9 99.7 100.1 99.8 100.4 99.9ZM124.9 438.4C124.5 438.6 124.4 438.6 124.3 438.7C122.4 440.3 120.6 442 118.3 443.1C117.7 443.4 117.7 443.9 117.8 444.4C117.9 446.2 118 448.1 118.1 449.9C118.4 455.2 119.2 460.5 120 465.8C120.8 470.8 121.4 475.8 123.4 480.6C124.3 482.8 125.3 484.8 126.7 486.7C126.9 487 127.1 487.4 127.5 487.4C128 487.3 127.8 486.8 127.9 486.5C128.2 485 128.3 483.5 128.3 482C128.4 478.1 128.3 474.2 127.7 470.3C126.7 464.3 125.5 458.4 124.8 452.3C124.5 449.7 123.9 447.1 124.2 444.5C124.4 442.5 124.7 440.5 124.9 438.4ZM167.3 486C168.1 483.3 169.4 481.1 170.1 478.6C171.7 472.5 172.7 466.3 174 460.1C175.1 454.3 175.7 448.5 175.7 442.6C175.7 441.8 175.5 441.3 174.6 441C173.5 440.6 172.4 440 171.3 439.6C170.9 439.4 170.6 439 170.2 439.2C169.8 439.5 170.2 439.9 170.2 440.3C170.2 440.7 170.2 441 170.2 441.4C170.8 447.1 169.1 452.5 168.4 458C168 461.3 167.3 464.7 167.1 468.1C166.9 473.3 166.6 478.5 166.8 483.7C166.9 484.3 166.9 485 167.3 486ZM94.4 480.5C95.1 480 95.4 479.4 95.6 478.9C96.6 477 97.1 474.9 97.5 472.7C98.6 466.5 99.8 460.4 100.8 454.2C101.3 451.1 101.5 447.9 101.9 444.8C102 443.7 101.7 443 100.6 442.6C99.7 442.3 98.9 441.7 98.1 441.2C97 440.4 97 440.4 96.7 441.8C96 445 95.9 448.3 94.9 451.4C93.5 455.5 93.2 459.7 93.2 464C93.2 467.3 93.1 470.5 93.4 473.8C93.7 476 94.1 478.2 94.4 480.5ZM129.2 161.5C129.2 161.6 129.2 161.6 129.2 161.7C130.1 161.7 131 161.7 132 161.7C136.5 161.5 140.7 162.5 144.9 164C146.1 164.4 146.9 164.4 147.9 163.7C151.6 161.3 156 160.7 160.4 159.9C159.4 159.5 158.4 159.3 157.6 158.7C155.5 157.3 153.5 155.7 151.2 154.6C150.2 154.1 149.3 153.2 148.6 152.3C147.1 150.4 147.1 150.4 145 151.7C144.6 151.9 144.3 152.2 143.9 152.5C140.8 154.7 137.8 157.1 134.3 158.8C132.6 159.6 130.9 160.5 129.2 161.5ZM166.3 85.5C166.1 85.9 166.1 86.2 166.2 86.5C167.3 90.3 166 94 165.8 97.8C165.7 99.4 166.1 100.9 166.7 102.3C166.9 102.7 167.1 103.1 167.5 103.1C168.8 103.1 170 103.5 171.3 103.2C174.9 102.4 178.3 101.1 182 100.7C184.1 100.5 186.1 100 188.1 99.5C188.4 99.4 188.7 99.4 188.7 99.1C188.7 98.7 188.4 98.7 188.1 98.6C187.2 98.4 186.4 98.2 185.6 98C183.5 97.4 181.6 96.3 179.8 95.2C177.1 93.6 174 92.5 171.6 90.3C169.8 88.7 168.1 87.1 166.3 85.5ZM202 470.6C202 470.1 201.9 469.5 201.9 468.9C201.7 465.8 201.1 462.8 200.9 459.8C200.6 455.6 200.1 451.3 199.3 447.1C198.7 443.8 198 440.5 197.7 437.1C197.6 435.8 197.4 434.6 197.2 433.3C197.2 433 197.2 432.6 196.8 432.5C196.5 432.4 196.4 432.8 196.2 433C195.3 433.9 194.5 434.9 193.6 435.8C192.8 436.5 192.7 437.3 192.9 438.3C193.5 440.8 194 443.4 194.5 445.9C195.8 452.8 196.6 459.7 198.3 466.5C198.7 468.2 199.1 469.8 200.3 471.2C200.7 471.6 201.2 472.4 201.7 472.2C202.3 472 201.8 471.1 202 470.6ZM171.1 163.1C172.2 165.4 173.3 167.3 173.8 169.4C174.5 172.7 175.1 176 175.4 179.3C175.6 181 175.7 182.6 175.5 184.3C175.3 185.9 175.1 187.5 175.2 189.2C175.4 193.7 175.7 198.2 175.9 202.7C175.4 187.1 177.7 172.1 187.3 159.1C182.2 161.3 177.3 164.4 171.1 163.1ZM124.9 50.2C124.7 48.1 124.4 46.2 124.2 44.3C124 42.4 123.9 40.5 123.8 38.6C123.8 37.6 123 37.2 122.3 37.1C121.5 37 121.7 37.9 121.7 38.4C121.6 40.5 121.5 42.6 121.7 44.8C122.1 46.9 122.9 48.8 124.9 50.2ZM169.1 50.5C170.4 49.6 170.9 48.6 171.3 47.4C171.8 45.8 172.1 44.2 172.3 42.5C172.4 41.6 172.6 40.7 172.6 39.8C172.6 39.3 172.4 38.5 171.8 38.6C171.2 38.7 170.6 39 170.5 39.8C170.5 40 170.5 40.1 170.5 40.3C170.5 41.4 170.3 42.5 170.1 43.6C169.7 45.8 169.3 47.9 169.1 50.5Z" fill="black"/>
<path d="M92.7 151.5C92.1 151 91.4 150.5 91.2 149.5C92.2 149.9 92.4 150.7 92.7 151.5Z" fill="black"/>
<path d="M94.1 174.1C93.4 175.6 92.7 176.9 92 178.3C90.7 180.8 89.4 183.4 87.8 185.8C85.8 188.9 84.6 192.3 83.3 195.8C82 199.4 81.5 203 81.6 206.8C81.7 211.2 80.6 215.3 79 219.3C77.7 222.6 75.9 225.7 74.2 228.8C72.1 232.7 70.9 236.9 69.3 241C67.9 244.7 66.1 248.2 63.9 251.5C61 256.1 58.9 261.1 56.7 266.1C55.3 269.3 54.3 272.6 53.3 275.9C54.3 277.8 52.5 278.9 52.1 280.5C51.5 282.8 51.7 285.2 51.4 287.5C50.9 291.1 49.9 294.5 49.1 298C48.2 302 47.6 306.1 46.4 310.1C45.6 312.6 44.9 315.1 44.7 317.8C44.6 320.3 44.6 322.8 44.6 325.3C44.7 328.7 44.5 332 43.5 335.3C43.3 335.9 43.1 336.5 42.7 337C41.7 338.5 39.9 338.3 39.2 336.7C38.3 334.7 38 332.5 37.7 330.3C37.3 327.1 36.6 323.9 36.5 320.6C35.7 323.8 34.9 327 34.1 330.2C33.5 332.6 33.2 335.1 32.5 337.4C31.9 339.3 31.3 341.1 30.4 342.9C29.7 344.3 28.8 344.8 27.5 344.6C26.2 344.4 25.5 343.7 25.2 342.2C24.7 339.6 25.1 337.1 25.5 334.6C26.1 330.6 27 326.7 27.7 322.7C27.7 322.5 27.7 322.2 27.7 322C26.5 324.6 24.9 327 24 329.7C22.7 333.5 21.1 337.2 19.4 340.9C18.8 342.1 18.1 343.3 16.9 344C15.1 345 13.7 344.5 13 342.7C11.9 340.1 11.9 337.5 13.1 335C15.3 330.4 16.9 325.6 18.9 321C19.3 320 19.5 318.8 19.7 317.6C18.4 319.3 17.1 321 16.1 322.9C14.6 325.7 13.3 328.6 11.6 331.2C10.4 333 8.8 334.5 7.2 335.9C5.9 337 3.8 336 3.4 334.2C3 332.3 3.60001 330.5 4.30001 328.7C5.40001 325.6 7.1 322.9 8.9 320.2C12.4 314.9 14.5 309 15.8 302.8C15.9 302.4 16 301.9 15.6 301.6C15.1 301.3 14.7 301.6 14.3 302C12.6 303.6 11.4 305.5 10 307.3C8.50001 309.3 6.6 310.9 4.7 312.5C3.7 313.4 2.50001 313.8 1.10001 313.4C1.23978e-05 313.1 -0.599988 312.2 -0.399988 311C-0.199988 309.8 0.400012 308.7 1.10001 307.8C5.50001 302.4 9.40001 296.6 14 291.4C16.4 288.7 19.1 286.6 22.3 285C23.5 284.4 24.7 283.7 25.8 283C27.8 281.7 29.3 280 29.5 277.5C29.6 276.3 30.1 275.2 30.6 274.1C31.8 271.3 32.2 268.3 33.3 265.5C33.8 264.4 34.1 263.2 34.6 262C35.5 259.8 36.3 257.4 36.6 255C37.1 250.9 38.9 247 39.5 242.9C40.5 235.1 42.4 227.4 43.8 219.7C44.9 213.6 47.1 207.9 48.9 202.1C49.7 199.6 51.6 197.8 53.3 195.9C56.5 192.3 58.8 188.3 60.6 183.9C61.5 181.6 61.6 179.1 62 176.7C62.8 171.8 63 166.8 64.4 161.9C64.7 160.9 64.9 159.9 65.4 158.9C66.5 156.5 66.3 154 65.9 151.5C65.6 149.5 65.4 147.5 65.2 145.4C64.7 139.4 64.8 133.4 65.7 127.5C66.2 124.3 67.2 121.3 68.8 118.5C69.8 116.9 70.2 115 71.4 113.4C76.5 106.5 82.7 101 91 98C94.1 96.9 97.2 96.9 100.4 97.3C103.1 97.7 105.6 97.1 108.3 96.3C111 95.5 113.5 94.5 115.8 92.9C119.4 90.5 123.1 88.3 126.2 85C127.6 83.5 128.6 82 129 79.9C129.8 75.1 130.5 70.3 130.4 65.4C130.4 63.7 130 62.2 128.7 60.8C127.4 59.4 126.6 57.6 126.2 55.7C125.8 54 124.8 52.8 123.6 51.8C121 49.6 119.8 46.8 119.9 43.5C120 41.4 119.7 39.2 120.1 37C120.5 35.3 121.5 34.6 123.1 35.1C124 35.4 124 35 124 34.3C124 31.3 124.3 28.3 124.8 25.4C125.8 19.7 128.6 15 132.1 10.5C133.6 8.6 135.3 6.99999 137.4 5.69999C138.8 4.89999 140.3 4.89999 141.8 4.59999C144.6 3.89999 147.4 3.1 150.3 3.5C153.7 4 157 4.6 159.9 7C164.8 11 167.4 16 168.9 22C169.8 25.5 170.3 29.1 170.5 32.6C170.6 33.8 170.7 34.9 170.7 36.1C170.7 36.4 170.7 36.7 171.2 36.6C173.3 36.4 174.8 37.6 174.7 39.8C174.5 43 174 46.2 172.8 49.3C172.2 50.8 171.2 51.9 169.8 52.6C169.1 53 168.8 53.5 168.7 54.3C168.4 56.4 167.7 58.4 166.6 60.3C165.5 62.2 165.3 64.3 165.2 66.4C165 70.9 165.5 75.3 166.2 79.8C166.5 81.7 167.8 83.1 169.1 84.2C172.7 87.1 176.3 90 180.1 92.6C182.4 94.2 185 95.3 187.6 96.4C189.4 97.2 191.2 97.8 193.2 98C193.8 98 194.3 98.1 194.9 98C199 97 202.9 97.7 206.6 99.2C211.4 101.1 215.8 103.7 219.5 107.3C221.2 108.9 222.7 110.6 224.3 112.3C225.9 114 226.5 116.4 227.8 118.4C230.4 122.4 231.1 127 231.3 131.7C231.5 136.6 231.2 141.3 229.3 145.9C229.1 146.5 229 147 228.9 147.6C228.1 152.5 229.2 157.2 231.1 161.7C232.7 165.6 233.7 169.6 233.6 173.8C233.5 178.5 234.8 182.9 236.8 187C237.3 188.1 238 189.2 238.9 190.1C242.8 194.1 245 199 246.7 204.2C248.4 209.3 250 214.5 251.4 219.6C253.2 226 254.5 232.6 255.7 239.1C257.3 248 259.7 256.7 262.5 265.3C263.9 269.7 265.4 274.2 266.7 278.6C267.2 280.2 267.9 281.8 268.6 283.4C268.8 284 269.4 284.2 269.9 284.5C271.9 285.8 274.1 286.6 276.2 287.7C278.9 289.2 281.6 290.7 283.9 292.7C286.6 295.1 288.6 298.1 290.3 301.3C291.2 303 292.1 304.5 293.5 305.8C295.2 307.4 296.6 309.2 296.6 311.7C296.6 313.4 295.8 314.2 294.1 314C291.2 313.6 288.7 312.4 287 309.9C285.5 307.8 283.5 305.9 282 303.8C281.8 303.4 281.4 303.1 281.1 302.9C280.1 302.2 279.2 302.6 279.1 303.8C279 305.7 279.6 307.5 280.2 309.3C281 311.4 282 313.4 283.3 315.3C285.5 318.5 286.8 322.1 288.6 325.5C289.8 327.7 290.8 330.1 291.5 332.6C291.7 333.5 291.9 334.4 291.6 335.3C291.1 336.6 289.8 337.2 288.6 336.6C287.7 336.2 287.1 335.6 286.5 334.8C283.9 331.5 281.8 328 279.6 324.4C278.4 322.4 276.9 320.6 275.4 318.9C275.6 320.8 276.3 322.6 276.9 324.3C278.5 328.9 280.5 333.4 281.6 338.3C281.8 339.3 282 340.3 282.1 341.4C282.3 342.9 281.7 344.1 280.6 345C279.7 345.8 278.3 345.7 277.3 344.9C276 343.9 275 342.7 274.4 341.1C272 335.1 269.6 329 267.7 322.8C267.3 321.7 267 320.5 265.8 319.4C266 322.2 266 324.7 266.7 327.2C267.7 331.2 268.8 335.2 269.8 339.3C270.2 341 270.8 342.7 270.1 344.5C269.3 346.6 267.8 347.1 266 345.8C265.1 345.2 264.6 344.3 264.2 343.3C261.7 337.9 260.4 332.2 259.4 326.4C259 324.1 258.6 321.7 257.4 319.5C257.1 319.9 257.2 320.3 257.2 320.6C257.1 324.7 256.6 328.7 256.6 332.8C256.6 334.1 256.3 335.4 256.1 336.7C255.9 337.8 255.4 338.7 254.1 338.8C253 338.8 252.3 338.1 251.9 337.1C250.9 335.1 250.7 333.1 250.5 331C250.1 326.2 250 321.5 250.5 316.8C250.6 315.9 250.6 315 250.1 314.2C249.2 312.6 249 310.7 248.6 309C247.2 302.8 245.9 296.6 244.9 290.3C244.4 287 243.6 283.7 243.8 280.3C243.9 278.8 243.2 277.3 242.6 275.8C240.5 270.6 237.9 265.5 235.4 260.4C234.4 258.4 233.7 256.2 232.7 254.1C230.7 249.8 228.5 245.5 226.5 241.2C224.5 236.7 222.5 232.2 221.1 227.5C220.4 225.1 219.1 223 218 220.8C215.7 216.1 214.7 211.1 214.7 205.8C214.7 202.6 213.6 199.7 212.5 196.8C209.9 189.6 206.3 182.9 203 175.9C202.5 174.8 202 173.7 201.4 172.3C200.8 175.1 199.6 177.5 199.3 180.2C198.9 184.2 197.2 187.8 196.1 191.6C194.8 195.8 194 200.2 193.4 204.6C192.9 208.7 193.8 212.8 193.9 216.9C194 221 195.4 224.9 196.2 228.9C196.7 231.5 196.6 234.2 196.4 236.9C196.1 240.8 195.8 244.8 196.6 248.7C197.1 251.1 197.4 253.5 197.7 255.9C197.8 256.9 198.3 257.7 198.8 258.4C200.2 260.5 200.7 262.8 201.4 265.2C202.4 269 202.8 272.8 202.9 276.7C203 280.2 203.8 283.7 203.9 287.3C204 290.5 204.8 293.5 205 296.7C205.1 299.8 205.1 303 206.1 306.1C207.3 309.9 207.4 313.8 208.1 317.6C208.2 318 208.1 318.3 208.1 318.7C208.1 322.3 208.1 325.8 208.1 329.4C208.2 332.3 207.4 335.1 207.2 337.9C207.1 339.8 206.8 341.7 206.6 343.6C206.2 348.1 206.3 352.7 206.3 357.2C206.3 362 205.7 366.7 204.6 371.3C203.5 375.9 202.8 380.7 201.9 385.4C201 390.3 200.3 395.2 198.8 400C198.3 401.4 198.2 403 198.2 404.5C198.1 412.4 199.2 420.3 199 428.2C198.9 431 199.8 433.8 200.1 436.6C200.8 442 202.1 447.3 202.7 452.6C203.3 457.6 203.8 462.7 204.3 467.8C204.6 470.8 204.6 473.9 204.5 476.9C204.5 479.3 204 481.7 203.7 484.1C203.4 486.3 203 488.4 202.9 490.6C202.7 493.4 202 496.1 201.4 498.8C200.8 501.8 200.2 504.8 199.5 507.8C198.6 512.3 197.6 516.8 196.3 521.3C195.6 523.6 195.5 525.9 195.2 528.3C195 529.6 194.5 530.8 194.2 532C193.6 534.5 193.4 537 193.2 539.6C193.1 540.3 193.2 540.9 193 541.6C192.8 542.2 192.9 542.9 193 543.5C193.7 546.1 194.5 548.6 195 551.3C195.5 553.8 195.6 556.4 195.3 558.9C195.2 560 194.6 561.1 194.2 562.2C193.2 564.6 193.5 566.8 195.2 568.9C196.3 570.3 197.4 571.6 198.8 572.8C199.7 573.5 200.3 574.5 200.9 575.4C203.1 578.8 205.1 582.2 206.1 586.2C207.1 590.4 205.4 593.6 201.3 595C199.6 595.6 197.8 596.3 196 596.5C191.1 596.8 186.4 598.8 181.4 598.7C179.5 598.7 178.2 597.9 177 596.7C173.6 593.5 172.2 589.2 171.4 584.8C171.1 582.8 171 580.6 171.7 578.6C172.6 575.9 172 573.4 171.5 570.8C170.9 567.9 170.1 565 169.8 562.1C169.5 558.9 169.6 555.6 170.3 552.3C171.4 547.3 172.4 542.3 172.3 537.1C172.3 532.5 172.1 528 171.8 523.5C171.5 518.1 171.1 512.7 170 507.4C169.2 503.8 168 500.3 167 496.8C166.1 493.5 165.3 490.3 165 486.9C164.6 482.9 164.6 478.9 164.8 474.9C165 470.5 165 466.2 165.7 461.8C166.5 457 167.3 452.3 168 447.6C168.5 444 168.2 440.3 166.9 436.8C165 431.8 163.5 426.6 162.7 421.2C162.1 417.6 161.9 413.9 162.1 410.2C162.1 409.5 162.2 408.8 162.4 408.1C163.2 404.7 161.9 401.8 160.2 399C158.6 396.5 158.3 393.7 158.3 390.8C158.3 388.1 158.3 385.5 157.9 382.8C157 377.7 156.1 372.6 155.3 367.5C154.5 362.3 153.8 357.1 153 351.9C152.5 348.8 151.6 345.8 150.8 342.7C150.1 340.2 149.7 337.6 149.7 334.9C149.6 329.1 149.7 323.2 149.7 317.4C149.7 316.4 149.5 316 148.4 316.2C148 316.3 147.5 316.2 147.1 316.1C146 315.7 145.8 316 146 317.1C146.6 321 147 325 146.9 328.9C146.7 333.7 146.1 338.4 145.2 343.1C144.5 346.8 143.5 350.4 142.8 354.1C142.2 357.3 141.7 360.4 141.1 363.6C140.8 365.4 140.8 367.3 140.1 369C139.2 371.1 138.6 373.4 137.9 375.6C136.6 380.1 135.6 384.7 135.5 389.5C135.5 394.5 135.2 399.6 132.9 404.4C132.2 405.9 132.2 407.5 132.4 409.1C133.1 413.2 132.6 417.3 132.3 421.3C131.9 426.8 129.9 431.8 128.1 436.9C127 439.9 126.8 443.2 127 446.5C127.1 450.8 127.9 455.1 128.3 459.4C128.7 462.8 129.7 466 130.1 469.4C130.5 473 130.9 476.5 130.8 480.1C130.8 482.5 130.9 484.9 130.3 487.2C129.3 491.6 128.4 496.1 126.5 500.3C125.6 502.3 125.4 504.4 125.1 506.6C124.4 510.9 123.4 515.2 123.1 519.6C122.7 524 122.4 528.4 121.9 532.8C121.8 534 122 535.3 122 536.5C122 536.7 122 537 122.1 537.1C123.5 538 122.9 539.3 122.7 540.4C122.5 542 122.7 543.3 123.4 544.7C123.8 545.4 124.1 546.1 124.3 546.9C124.8 549.9 125.9 552.7 126.5 555.7C126.7 556.8 126.6 557.9 126.3 558.9C125.7 561.4 125.4 563.8 125.7 566.4C126 569.5 125.7 572.6 125.2 575.7C124.6 579.3 124.7 582.9 124.1 586.5C123.7 588.8 123.6 591.3 123 593.6C121.8 597.7 116.6 600.7 112.9 599.9C110.1 599.3 107.2 599.4 104.5 598.7C101.1 597.9 97.7 597.5 94.5 596.1C91.6 594.8 90.3 591.3 91.2 587.8C92.5 582.6 95.1 578.3 98.6 574.3C100 572.7 101.3 570.9 102.3 569C102.8 568 102.8 566.9 102.9 565.8C102.9 565.7 102.9 565.5 102.8 565.5C100.7 563.7 101.2 561.1 100.7 558.9C99.8 555.1 100.7 551.4 101.7 547.7C101.9 547 101.9 546.3 102 545.6C102.3 536 100.8 526.5 99 517.1C97.6 509.7 96.3 502.3 95 494.9C94.3 491.2 93.4 487.6 92.8 484C92.1 480 91.5 476 91.4 471.9C91.3 466.8 91.3 461.7 91.7 456.6C91.9 454.6 92.8 452.8 93.2 450.8C94.1 446.3 94.9 441.8 95.6 437.3C96 434.9 96.6 432.4 96.3 429.9C96 427.5 95.9 425.1 95.6 422.8C95.3 420.6 95.4 418.5 95.7 416.4C96.1 413.6 96.2 410.8 96.6 408C96.8 406.6 97.4 405.3 97.4 403.9C97.5 400.1 96.5 396.4 95.6 392.7C94 386.3 92.4 379.9 91 373.5C89.9 368.7 88.9 363.8 89.2 358.8C89.6 352.7 88.7 346.7 88 340.7C87.3 334.4 87.5 328 87.6 321.7C87.6 318.4 88.1 315.1 88.3 311.8C88.4 310.1 88.1 308.5 88.2 306.8C88.3 303.6 89.3 300.5 89.9 297.4C90.8 292.4 91.7 287.4 92.2 282.3C92.7 277.1 93.2 271.9 94 266.7C94.6 262.7 95.7 258.8 96.5 254.9C97.9 248.4 99.3 241.9 99.6 235.2C99.9 229.4 99.9 223.6 100.8 217.9C102 210.8 101.6 203.6 100.8 196.5C100.5 194.1 99.5 191.8 99 189.4C97.5 183.8 95.9 179 94.1 174.1ZM145.6 251.1C145.6 247.7 145.6 244.3 145.6 240.9C145.6 238.8 145.6 236.7 145.6 234.5C145.6 233.9 145.5 233.5 144.8 233.8C142 235.1 138.9 235.7 136.2 237.1C135.5 237.4 134.9 237.4 134.5 236.7C134.1 236.1 134.3 235.4 134.9 235C135.4 234.6 136 234.4 136.6 234.1C139.2 233.1 142 232.3 144.6 231.1C145.2 230.8 145.6 230.5 145.6 229.8C145.6 223 145.6 216.2 145.6 209.4C145.6 208.6 145.3 208.5 144.6 208.7C143.5 209.1 142.4 209.6 141.3 209.9C138.7 210.8 136.2 212.1 133.5 212.6C132.7 212.7 132 212.8 131.7 211.8C131.5 210.9 132.1 210.4 132.8 210.2C136.8 209.1 140.6 207.2 144.5 206C145.2 205.8 145.4 205.4 145.4 204.7C145.4 198.2 145.4 191.7 145.4 185.3C145.4 184.2 145 184.1 144.1 184.4C142.8 185 141.5 185.4 140.2 186.1C137.8 187.3 135.1 187.8 132.9 189.4C132.4 189.7 132 189.5 131.6 189.2C131.2 188.7 131.1 188.2 131.4 187.7C131.7 187.2 132.2 186.8 132.8 186.6C136.7 185.1 140.3 183.1 144.2 181.9C145.1 181.6 145.4 181.2 145.4 180.3C145.4 176.2 145.3 172.1 145.4 168.1C145.4 166.8 144.9 166.2 143.8 165.9C139.2 164.5 134.5 163.6 129.7 163.9C129.1 163.9 128.4 163.9 128.1 164.3C127.4 165.4 126.2 166.2 125.7 167.4C124.2 171.5 123 175.7 122.7 180.1C122.3 186.5 122.4 193 122.6 199.4C122.7 205.4 123.1 211.4 123.4 217.4C123.6 220.4 123.7 223.4 124.3 226.3C125.4 231.7 126.5 237 127.7 242.4C129 248.7 131.2 254.7 133.5 260.6C135.2 264.9 137.3 269 140.4 272.5C142.9 275.3 147.8 276 151.1 274.2C153.4 273 154.5 270.6 156.1 268.8C157.8 267 158.6 264.5 159.9 262.3C160.9 260.7 161.5 258.8 162 256.9C163.4 251.6 164.8 246.2 166.3 240.9C167.6 236.3 169.1 231.8 170.3 227.2C171.9 221.6 172.5 215.8 173.1 210.1C173.6 205.1 173.6 200.2 173.1 195.3C172.7 191.4 172.6 187.5 173.3 183.6C173.5 182.3 173.4 181.1 173.2 179.8C172.8 176.4 172.4 173 171.6 169.8C170.6 165.6 169.4 164.1 165.9 163.2C163 162.5 160 162.5 157.1 162.9C154.5 163.3 151.9 163.7 149.6 165.1C149.1 165.4 148.7 165.8 148.5 166.4C148.1 167.4 148.1 168.3 148.1 169.3C148.1 172.3 148.1 175.4 148.1 178.4C148.1 181.9 148.1 181.9 151.6 182.9C153.9 183.5 156.2 184.1 158.4 185.1C159.2 185.5 160 186 159.5 187C159.1 187.9 158.2 187.8 157.4 187.4C154.7 186.3 151.8 185.7 149.1 184.8C148.4 184.6 148 184.7 148.1 185.5V185.6C148.1 192.1 148.1 198.6 148.1 205C148.1 205.6 148.1 206.2 148.9 206.3C152.5 206.8 155.5 208.9 158.6 210.5C158.9 210.7 159.3 211 159.5 211.3C159.9 211.7 159.9 212.3 159.6 212.8C159.3 213.3 158.7 213.3 158.2 213.2C157.9 213.1 157.6 212.9 157.2 212.7C154.6 211.5 152.3 209.7 149.4 209.1C148.1 208.8 148 208.8 148 210.2C148 216.3 148 222.4 148 228.4C148 229.7 148.2 230.5 149.7 230.7C150.3 230.8 150.9 231.1 151.5 231.3C154.4 232.5 157.2 233.7 160.1 235C161 235.4 161.6 236.1 161 237.1C160.4 238.1 159.7 237.6 158.9 237.2C155.7 235.8 152.5 234.5 149.3 233.2C148.1 232.7 148 232.8 148 234.1C148 236.7 148.1 239.4 148.1 242C148.2 250.2 148.1 258.3 148.1 266.5C148.1 268.2 147.6 269 146.7 269C145.8 269 145.4 268.2 145.4 266.5C145.6 261.5 145.6 256.3 145.6 251.1ZM97.6 257.6C96.8 260.5 96.4 263.2 95.9 265.9C94.9 271.4 94.6 277 94 282.5C93.7 285.3 93.3 288.1 92.8 290.9C92.1 294.9 91.5 298.9 90.4 302.9C90.3 303.3 90.3 303.8 90.5 304.2C90.8 305.1 90.8 306.1 90.7 307.1C89.6 314.1 89.4 321.2 89.4 328.4C89.4 332.4 89.6 336.4 90 340.5C90.6 345.6 91.4 350.6 91.1 355.8C91 357.6 91.1 359.4 91.1 361.2C91.1 362.5 91.3 363.8 91.5 365.1C92.2 369.6 93.4 374 94.3 378.5C95.2 382.4 96 386.2 97.2 390C98.1 392.7 99 395.4 99.3 398.2C99.4 398.9 99.2 399.7 99.7 400.4C100.5 401.4 101.2 402.4 102 403.5C102.5 404.2 103.2 404.3 104 404C105 403.5 106.1 403 107.2 402.6C110 401.6 112.7 401.4 115.3 403.4C117.5 405.2 120.2 405.9 123 406.2C123.8 406.3 124.5 406.1 125.2 405.7C127.9 403.9 129.7 401.1 132 398.9C132.1 398.8 132.2 398.6 132.2 398.4C132.8 395.6 133.1 392.6 133 389.7C132.9 384.6 134.1 379.8 135.4 374.9C136.1 372.3 137.1 369.8 137.7 367.1C137.9 365.9 137.7 365.7 136.5 365.8C136.1 365.8 135.6 365.8 135.2 365.7C131.4 364.8 128.2 362.8 125.8 359.9C122.4 355.8 119.8 351.1 118.1 346C115.3 337.9 113.9 329.4 112.4 321C111 313.5 110 305.9 108.8 298.3C107.6 290.6 106.2 282.9 104.7 275.3C103.7 270.3 102.2 265.4 99.8 260.9C99.1 259.6 98.5 258.6 97.6 257.6ZM180.7 441.5C180.3 441.5 179.9 441.5 179.6 441.5C178.1 441.5 178.1 441.5 178.1 443C178 446.2 177.9 449.3 177.5 452.5C176.9 458.3 175.6 463.9 174.5 469.6C173.5 474.5 172.8 479.5 170.6 484.1C170.4 484.4 170.3 484.9 170.3 485.3C170.4 487.4 169.2 488.9 168.3 490.6C168.1 490.9 167.9 491.2 168 491.6C168.2 492.7 168.4 493.8 168.8 494.9C170 498.9 171.4 502.7 172.2 506.9C173.2 512.2 173.8 517.5 174 522.9C174.2 527.6 174.3 532.4 174.4 537.1C174.5 542 173.5 546.7 172.7 551.4C172.4 553.4 171.9 555.3 171.8 557.3C171.6 561.7 172.8 565.8 173.7 570C174.2 572.4 174.7 574.8 174.2 577.2C173.6 580.3 173.3 583.3 174.1 586.4C175 589.8 176.4 592.8 179 595.2C179.8 595.9 180.7 596.3 181.8 596.3C183.1 596.3 184.4 596.1 185.7 595.8C187.5 595.4 189.3 594.8 191.1 594.6C194.5 594.3 197.7 593.6 200.9 592.4C203.8 591.3 204.8 589.6 204.2 586.6C203.4 582.7 201.3 579.4 199.2 576.1C198.7 575.4 198.3 574.6 197.6 574C196.1 572.7 194.9 571.2 193.6 569.7C191.6 567.2 191.4 564.5 192.3 561.6C193 559.4 194 557.3 193.6 554.9C193.3 552.9 193.1 551 192.6 549C192 546.6 191 544.3 191 541.8C191 541 191.2 540.2 191.2 539.4C191.3 536.6 191.7 533.9 192.3 531.1C192.6 529.8 193.1 528.5 193.4 527.2C193.8 525.2 193.6 523.1 194.3 521.1C195.8 516.5 196.8 511.8 197.8 507.1C198.4 504.1 198.9 501 199.7 498C200.5 494.9 201.3 491.8 201.4 488.6C201.6 484.6 202.4 480.8 202.8 476.9C202.9 476.1 202.9 475.6 202 475.1C199.6 473.6 197.8 471.6 197.1 468.7C196.4 465.9 195.7 463.1 195.2 460.3C194 453.4 193 446.5 191.6 439.6C191.4 438.7 191.3 438.3 190.2 439C186.9 440.7 183.9 441.8 180.7 441.5ZM205.4 325.7C205.4 321.4 205.5 318.2 205.1 315C204.8 312.7 204.7 310.4 204 308.2C203.2 305.7 202.7 303.1 202.6 300.5C202.5 296.3 202.1 292 201.4 287.9C200.9 284.3 200.7 280.6 200.4 277C200.2 274 200.2 271 199.4 268.1C198.9 266.4 198.5 264.6 198.1 262.9C198.1 262.7 198 262.4 197.7 262.4C197.4 262.4 197.4 262.7 197.3 262.9C197.2 263.4 197 264 196.9 264.5C195.6 269.5 195.1 274.7 193.9 279.8C191.2 290.9 187.7 301.7 185.8 313C184.8 318.9 182.9 324.6 181.6 330.4C180.2 336.5 178.5 342.4 175.8 348C173.9 352 172.5 356.4 168.5 359C167.8 359.4 167.1 359.8 166.5 360.4C164.2 362.5 161.6 363.9 158.5 364.5C157.8 364.6 157.1 365 157.3 366C157.6 367.8 157.8 369.6 158.2 371.4C158.8 374.6 159.7 377.8 160.1 381C160.7 385.1 160.9 389.3 160.9 393.4C160.9 394.9 161.2 396.2 162.1 397.5C163.3 399.3 164.4 401.3 164.9 403.5C165.1 404.2 165.6 404.5 166.2 404.8C167.6 405.4 169 405.7 170.4 406.1C172.2 406.6 173.7 406.3 175.1 405.2C176.3 404.2 177.5 403.3 178.7 402.4C180.5 401.1 182.5 400.6 184.7 401C186.2 401.3 187.6 401.7 189 401.9C191.5 402.3 193.7 401.8 195.1 399.4C196.4 397 197.7 394.6 198 391.9C198.1 390.6 198.4 389.2 198.6 387.9C199 384.9 199.7 381.9 200.5 378.9C201 377.3 201 375.7 201.4 374.1C202.9 368.3 203.9 362.5 203.8 356.5C203.8 351.4 203.8 346.4 204.4 341.3C204.9 335.7 205.7 330.2 205.4 325.7ZM92.7 589.3C92.8 591.2 93.5 593.3 96 594.1C98.6 594.9 101.4 595.1 104 596.1C104.4 596.3 104.9 596.3 105.3 596.3C107.7 596.6 110.1 596.8 112.4 597.2C116 597.9 119.9 595.4 120.8 592C121.4 589.6 121.6 587.1 121.9 584.7C122.3 581.1 122.5 577.5 123.1 573.9C123.5 571.2 123.8 568.5 123.4 565.8C123.1 563.5 123.4 561.2 123.9 558.9C124.3 557.4 124.5 555.9 124 554.4C123.4 552.1 122.6 549.8 122.2 547.4C121.8 545.1 120.1 543.3 120 540.9C119.9 537.8 119.3 534.8 119.6 531.7C120 527.7 120.3 523.8 120.7 519.8C120.9 517.5 121.1 515.1 121.6 512.8C122.1 510.4 122.4 508 122.8 505.6C123.3 503.2 123.5 500.8 124.5 498.5C125.4 496.7 126 494.8 126.5 492.9C126.7 492.1 127.4 491.2 126.7 490.2C125.4 488.5 124.1 486.9 123.1 485C121.1 481.1 119.7 476.9 119 472.5C117.9 465.8 116.8 459.1 116.2 452.3C116 449.9 115.9 447.4 115.8 445C115.8 444.4 115.7 443.8 114.8 444.1C111.6 445.2 108.4 444.7 105.3 443.7C104.5 443.5 104.4 443.6 104.3 444.4C104.1 448.2 103.7 452 103 455.8C102.3 459.6 101.5 463.3 101 467.1C100.5 470.6 99.8 474.1 98.7 477.5C98 479.5 97.2 481.3 95.4 482.5C94.6 483 94.5 483.6 94.7 484.4C95.8 489.6 96.9 494.9 97.8 500.1C99.1 507.6 100.5 515 101.8 522.5C103.2 530.1 103.9 537.7 103.7 545.5C103.7 545.9 103.7 546.4 103.6 546.8C102.7 549.6 102.2 552.4 102.1 555.3C102.1 557.1 102.3 558.9 103.3 560.5C104.9 563.2 105.1 566.3 103.9 569.1C102.9 571.3 101.3 573.1 99.9 575C98.1 577.5 95.8 579.6 94.7 582.6C93.9 585 93 587.1 92.7 589.3ZM175.3 212.4C174.9 216.9 174.3 221.4 173.1 225.8C170.7 234.6 168.2 243.3 165.8 252C164.4 257 163.2 262 160.4 266.4C158.8 269 157.4 271.7 155.2 274.1C150.2 279.3 142.1 278.1 138.4 273.5C135.5 269.8 133.4 265.6 131.5 261.3C127.9 252.9 125.9 244 124 235.1C122.6 228.7 121.6 222.3 121.2 215.8C120.9 210.1 120.6 204.5 120.5 198.8C120.4 189.6 120 180.3 122.1 171.3C122.4 170.2 122.9 169.1 122.1 167.9C122 167.7 122.1 167.2 122.3 166.9C122.7 165.7 123.4 164.8 124.3 164C124.6 163.8 125 163.6 125.3 163C123.4 163.7 121.5 163.4 119.7 163.7C118.4 164 117.3 163.2 116.1 162.9C113.6 162.3 111.5 161.2 109.3 159.9C107.2 158.6 105.1 157.3 103 156C103.2 156.3 103.4 156.6 103.6 156.9C106.6 160.6 109.4 164.5 111.1 169.1C112.4 172.6 113.2 176.2 114.5 179.6C117.4 187.3 118.9 195.2 119.7 203.3C120.6 212.1 120.7 220.9 120 229.7C119.4 236.8 117.6 243.2 113.2 249.1C110.7 252.4 107.8 254 103.9 254.4C102.4 254.5 100.9 254.3 99.4 253.9C99.1 253.8 98.8 253.1 98.4 253.8C98.1 254.3 98.4 254.7 98.8 255C99.9 255.8 101 256.4 102.2 257C105.1 258.5 108.1 259.9 109.6 263.2C110.7 265.6 112.5 267.3 114.3 269.1C115 269.7 115.6 270.4 116.2 271.1C120.9 276.8 124.6 283.1 128.3 289.5C130.3 293 131.4 297 133.2 300.7C134.9 304.2 136.9 307.2 139.7 309.9C142.3 312.3 145.2 313.3 148.5 313.3C150.8 313.3 152.9 312.6 154.3 310.6C157.4 306.1 160.4 301.5 163.1 296.7C165.9 291.5 168.4 286 171.6 281C175.1 275.6 178.2 269.8 183.5 265.8C183.7 265.6 184 265.3 184.2 265.1C187.6 261.7 190.9 258.4 194.3 255C194.5 254.8 195 254.7 194.8 254.3C194.6 253.8 194.2 254.2 193.9 254.3C191 255.6 188.3 255.1 185.9 253.2C183.2 251.1 181 248.6 179.7 245.4C177.2 238.9 176.6 232.1 175.9 225.3C175.5 220.9 175.3 216.7 175.3 212.4ZM214.6 143.8C213.2 142.4 211.7 141 210.3 139.5C206.3 135.2 203.3 130.3 201.6 124.7C201.2 123.4 200.8 122.2 200.3 121C198.5 116.8 195.9 113.4 191.1 112.3C190.2 112.1 189.4 111.6 188.7 111C186.8 109.7 184.6 108.7 182.3 108.3C179.1 107.8 176.1 106.8 173 106C168 104.8 163.2 105.4 158.4 106.4C156.1 106.9 153.8 108 151.6 109C149.9 109.8 149.1 111.2 149 113C148.9 116.6 149 120.1 148.8 123.7C148.6 128.3 148.7 133 148.7 137.6C148.7 140.1 148.8 142.6 148.6 145.1C148.5 145.9 148.3 146.8 148.8 147.4C150.8 149.9 153 152.3 155.7 153.9C159.6 156.3 163.8 157.9 168.1 159.3C170.7 160.1 173.6 160.4 176.3 159.7C179.4 159 182.3 157.6 185.1 156C189.6 153.4 193.6 150.2 198.1 147.7C200.8 146.2 203.4 144.7 206.6 144.4C208.9 144.2 211.2 143.7 213.6 143.9C214 144.2 214.3 144.2 214.6 143.8ZM130.8 108C127.9 107.9 124.6 108.1 121.3 108.5C117.7 108.9 114.1 108.9 110.7 110.6C105.6 113.2 101 116.5 97.8 121.2C95.8 124.1 93.8 127 92.3 130.1C90.4 134 87.3 137 84.7 140.2C84.5 140.5 83.9 140.7 84.1 141.2C84.3 141.6 84.8 141.4 85.2 141.4C88.2 141.6 91.2 142.2 93.3 144.4C96.1 147.3 99.3 149.6 102.4 152.1C107.3 156.1 112.8 159 119.1 160.2C122.5 160.8 125.7 160.8 128.6 158.7C129.4 158.1 130.3 157.5 131.2 156.9C135.1 154.5 139.1 152.1 143 149.7C145 148.5 146.5 147 146.2 144.2C146 141.8 146.2 139.4 146.3 137C146.5 129 146.3 120.9 146.6 112.9C146.6 112 146.8 111 145.4 111.2C145.1 111.2 145 111 144.9 110.8C144.4 109.8 143.5 109.5 142.5 109.1C138.7 108 135 108 130.8 108ZM168.6 37.9C168.3 32.3 168 27 166.6 21.7C165.1 16.3 162.6 11.9 158.2 8.4C155.7 6.4 152.8 5.89999 149.9 5.59999C145.9 5.19999 142.1 6.5 138.4 8C137.6 8.3 136.7 8.49999 136.1 9.19999C133.2 12.3 130.7 15.7 128.9 19.4C126.9 23.6 126.3 28.2 126.1 32.8C125.9 38.9 126.6 45 127.2 51.1C127.7 55.5 129.4 59.2 132.4 62.4C134.5 64.6 136.6 66.8 138.9 68.7C142 71.2 145.4 72.9 149.6 72.3C152.4 71.9 154.8 70.4 156.8 68.7C159.1 66.7 161.4 64.4 163.1 61.7C164.7 59.1 166.3 56.5 166.7 53.4C167.4 48.1 168 42.9 168.6 37.9ZM151.4 325.3C151.4 327.6 151.5 329.9 151.4 332.3C151.4 334.3 151.4 336.3 151.8 338.3C152.3 341 153.1 343.6 153.7 346.2C154.6 349.9 155.3 353.6 155.7 357.4C155.8 359 156.2 360.6 156.4 362.2C156.4 362.4 156.4 363 156.9 362.8C158 362.2 159.4 362.2 160.5 361.7C163.2 360.4 165.3 358.5 167.7 356.7C169.2 355.6 170.3 354.2 171.2 352.5C171.8 351.3 172.3 350.1 172.8 348.9C175.3 343.3 177.8 337.7 178.9 331.5C180 325.3 182.1 319.4 183.3 313.2C184.3 308.2 185.1 303 186.6 298.1C188.7 291.1 190.5 284 192.2 276.9C193.6 271.1 194 265 196.2 259.4C196.6 258.5 195.6 257.9 195.1 257.4C194.6 257 194.3 257.8 194.1 258C190 262 186.1 266.3 181.7 270.1C180.9 270.8 180.2 271.5 179.6 272.4C175.4 278.8 171 285.1 167.7 292.1C164.5 298.9 160.4 305.2 156.1 311.4C155.1 312.8 154.1 314.1 152.3 314.5C151.4 314.7 151.3 315.1 151.3 315.9C151.5 318.9 151.4 322.1 151.4 325.3ZM81.1 194.7C80.4 195.2 79.9 195.4 79.4 195.8C75.9 198.6 71.9 199.9 67.5 200.2C65.4 200.3 63.7 199.7 62.5 197.8C61.3 195.9 60.4 193.8 60.4 191.5C60.4 191.2 60.5 190.7 60 190.6C59.6 190.5 59.5 191 59.4 191.2C58.4 193.1 57.1 194.6 55.8 196.3C54.3 198.2 52.3 199.8 51.4 202.1C49.2 207.5 47.3 213 46.2 218.7C44.8 226.2 42.8 233.7 41.9 241.3C41.3 246.8 39.1 251.9 38.3 257.3C37.9 260 36.5 262.4 35.7 265C34.7 268.2 33.6 271.4 32.7 274.6C32.3 276.1 31.9 277.5 32.3 279.1C33.6 283.7 38.8 286.4 43.6 283.1C47.1 280.7 49.6 277.4 51.2 273.6C52.6 270.6 53.4 267.3 54.8 264.2C56.3 260.7 57.7 257.2 59.6 253.9C62 249.8 64.1 245.4 66.4 241.2C67.2 239.8 67.7 238.2 68.2 236.7C69.1 234 70 231.2 71.4 228.7C73.3 225.2 75 221.7 76.6 218.1C78.4 214.1 79.3 209.9 79.1 205.5C79 202.8 79.3 200.3 80 197.7C80.4 196.8 80.8 195.9 81.1 194.7ZM216.1 200.6C217.1 203.7 216.7 206.8 217.1 209.9C217.4 212.2 217.8 214.5 218.6 216.8C220.2 221 222.2 225.1 224.1 229.2C226.9 235.4 229.1 241.8 232.1 247.9C235.4 254.6 238.3 261.5 241.7 268.3C243.2 271.3 244.6 274.3 245.5 277.5C246 279.3 247 280.6 248.1 282C251.3 286 256.1 285.2 259 282.6C260.5 281.2 261 279.4 261.9 277.7C263 275.6 262.9 273.5 262.1 271.4C260.2 266.6 258.8 261.7 257.4 256.8C255.8 251.2 254.3 245.6 253.4 239.9C252.3 233.3 250.9 226.7 249.1 220.3C247.6 215.2 245.9 210.1 244.4 205C242.8 199.4 239.5 194.9 235.9 190.5C235.6 190.8 235.7 191.2 235.7 191.5C235.6 195.1 234.3 198.3 232.7 201.4C230.9 204.7 226 207.6 221.4 204.4C219.7 202.9 218 201.8 216.1 200.6ZM101.2 258.6C101.4 259 101.5 259.2 101.6 259.4C103.7 263.2 105.2 267.3 106.1 271.5C109.2 285.3 111.2 299.3 113.5 313.3C115 322.4 116.6 331.6 118.9 340.5C120.5 346.9 123.3 352.9 127.7 357.9C130.3 360.9 133.5 363.3 137.9 362.8C138.8 362.7 138.9 362.4 139 361.7C139.3 358 140.1 354.4 140.9 350.9C141.8 347.5 142.6 344 143.2 340.5C143.9 336.6 144.3 332.7 144.5 328.7C144.6 324.5 144.3 320.2 143.7 316C143.5 314.8 143.1 313.8 141.8 313.4C141 313.1 140.3 312.6 139.6 312C138.4 310.8 137.2 309.7 136 308.5C134.8 307.4 133.9 306.1 133.2 304.7C131.4 301 129.5 297.2 128.1 293.3C126.5 289 123.7 285.3 121.4 281.4C118.7 276.9 115.6 272.6 111.8 268.9C110.5 267.7 109.2 266.4 108.5 264.7C107 261.8 104.4 260.1 101.2 258.6ZM253.8 336.5C254.2 334.4 254.4 332.6 254.4 330.7C254.4 326.7 254.9 322.7 255.1 318.6C255.1 317.6 255.5 316.7 256.6 316.5C257.7 316.3 258.3 317.1 258.7 317.9C259.4 319.4 260.1 320.9 260.5 322.5C261.6 327.6 262.3 332.8 264 337.8C264.7 339.7 265.4 341.6 266.4 343.4C266.6 343.8 267 344.3 267.5 344.2C268.1 344.1 268 343.5 268.1 343C268.3 342.4 268.1 341.9 268 341.3C267.5 339.2 267.1 337.1 266.5 335C265.1 330.2 263.9 325.4 263.6 320.4C263.6 319.5 263.5 318.5 264 317.7C264.7 316.6 265.6 316.4 266.6 317.2C267.6 318 268.3 319 268.7 320.2C269.3 321.8 269.8 323.4 270.4 324.9C271.9 328.9 273.3 333 274.8 337C275.6 339 276.3 341.1 278 342.7C278.7 343.3 279.1 343.2 279.6 342.4C279.8 342 279.9 341.6 279.8 341.1C279.5 339.2 279.3 337.4 278.6 335.6C277.1 331.1 275.4 326.7 273.9 322.2C273.3 320.4 272.4 318.7 272.5 316.7C272.5 315.9 272.7 315.1 273.6 314.7C274.5 314.4 275.1 314.9 275.5 315.6C277.4 318.2 279.6 320.6 281.3 323.4C283.4 326.8 285.4 330.2 287.9 333.3C288.1 333.6 288.4 333.9 288.7 334.2C288.9 334.4 289.1 334.5 289.3 334.4C289.4 334.3 289.4 334 289.4 333.9C289.3 332.8 288.9 331.8 288.5 330.8C285.9 324.8 282.9 319 279.5 313.4C277.9 310.8 276.9 307.8 276.7 304.7C276.6 303.3 276.6 301.8 278.2 301C280 300.1 281.2 300.4 282.7 301.9C283 302.2 283.3 302.5 283.5 302.8C285.1 305.2 287.3 307.2 289 309.5C290.1 311 291.6 311.6 293.4 312C294.2 312.2 294.2 311.9 294.1 311.3C293.8 309.8 292.9 308.7 291.8 307.7C290.2 306.2 289.1 304.4 288.1 302.5C286.4 299.5 284.6 296.5 281.9 294.3C279.8 292.5 277.3 291.2 274.9 289.8C272.9 288.6 270.7 287.9 268.8 286.6C268.1 286.1 267.3 285.9 266.9 285.1C266.1 283.7 265.3 282.3 264.9 280.6C264.7 279.9 264.5 279.2 264.2 278.5C262.9 282.3 260.6 285 256.8 286.5C252.7 288.1 249.5 286.2 246 284.3C246.6 286.4 246.5 288.5 246.9 290.4C247.8 294.9 248.6 299.4 249.6 303.9C250.2 306.8 250.6 309.7 251.6 312.5C252.3 314.4 252.5 316.4 252.3 318.5C251.8 323.6 252 328.7 252.8 333.8C252.8 334.6 253.1 335.5 253.8 336.5ZM118.3 216.6C118.2 214.2 118 211.1 117.8 207.9C117.5 200.3 116 192.9 114.2 185.5C113.5 182.7 112.2 180.1 111.5 177.3C110.2 172.3 108.7 167.3 105.6 163C103.6 160.2 101.7 157.3 98.7 155.4C98.3 155.2 98 154.7 97.4 155C96.9 155.3 97 155.9 97.1 156.3C97.7 159.9 97.1 163.4 96.4 166.9C95.9 169.9 96.2 172.7 97.1 175.5C98.1 178.5 99.4 181.4 100 184.5C101 189.7 103 194.6 103.2 200C103.4 204.7 103.8 209.4 103.2 214.1C102.5 220 101.7 226 101.6 232C101.4 237.8 101.1 243.6 99.4 249.3C98.7 251.5 98.9 251.5 101.1 251.6C101.3 251.6 101.5 251.6 101.7 251.6C105.6 252.1 108.9 251.3 111 247.6C111.2 247.3 111.5 247 111.6 246.7C112.9 244.7 114.7 242.9 115.5 240.6C116.1 238.7 116.7 236.9 117.1 235C118.1 229.2 118 223.3 118.3 216.6ZM49.4 282.5C48.8 282.6 48.5 283 48.2 283.2C46.4 284.6 44.5 285.9 42.4 286.8C38.8 288.3 36 287.7 33.2 284.9C32.3 284 31.5 283.1 30.8 282C30.6 281.6 30.4 281.3 30 281.9C28.1 284.2 25.6 285.7 23 287C20.1 288.4 17.6 290.5 15.5 292.9C11.8 297 8.80001 301.6 5.30001 305.8C4.30001 307 3.3 308.3 2.4 309.6C2.1 310.1 1.2 310.8 1.9 311.3C2.5 311.8 3.20001 311.1 3.80001 310.6C5.90001 308.6 8 306.7 9.7 304.3C10.7 302.8 11.8 301.3 13.3 300.2C14.4 299.3 15.6 299.2 16.8 299.9C17.9 300.5 18.1 301.7 18 302.8C17.9 303.3 17.8 303.7 17.7 304.2C16.2 310.9 13.7 317.2 9.80001 322.8C8.30001 324.9 7.1 327.2 6.2 329.7C5.8 330.9 5.40001 332.1 5.50001 333.3C5.50001 333.6 5.5 334 5.9 334.1C6.2 334.3 6.40001 334 6.60001 333.8C8.20001 332.4 9.7 330.9 10.7 329C12 326.7 13.1 324.3 14.4 322C15.8 319.6 17.3 317.2 19.2 315.2C19.8 314.6 20.6 314.1 21.5 314.5C22.4 314.9 22.4 315.8 22.3 316.6C22 318.5 21.6 320.3 20.9 322C19 326.7 17.3 331.5 15.1 336C14.2 337.8 14.3 339.7 15 341.6C15.3 342.4 15.7 342.4 16.3 342C17.4 341.1 17.8 339.9 18.4 338.7C19.7 335.7 21 332.6 22.1 329.5C23.2 326.2 25.2 323.3 26.4 320C26.7 319.2 27.2 318.5 27.8 317.8C28.2 317.3 28.8 317.1 29.4 317.3C30.1 317.5 30.4 318 30.5 318.7C30.6 319.1 30.6 319.4 30.5 319.8C30 324.1 28.8 328.3 28.1 332.6C27.7 335.3 27.1 338 27.2 340.7C27.2 341.4 27.1 342.4 27.9 342.6C28.8 342.8 28.9 341.7 29.1 341.1C30.3 338.1 31.1 335.1 31.8 331.9C32.8 327.3 34 322.7 35.2 318.1C35.4 317.4 35.8 316.7 36.3 316.2C37.1 315.5 38.1 315.7 38.6 316.7C38.7 317.1 38.8 317.5 38.8 317.9C39 322.1 39.2 326.4 39.9 330.5C40.2 332.2 40.3 333.9 41 335.6C41.5 335.3 41.5 334.8 41.6 334.5C42.6 331.1 42.5 327.6 42.5 324.2C42.5 320 42.4 315.8 43.7 311.7C44.5 309.4 45 307.1 45.5 304.7C46.5 299.6 47.7 294.6 48.9 289.6C49.4 287.1 48.9 284.8 49.4 282.5ZM177.7 217.4C177.7 217.7 177.7 218 177.7 218.4C178 223.7 178.6 228.9 179.2 234.1C179.9 240.2 182 245.6 186.5 250C188.1 251.5 189.8 252.2 192 252.1C193.7 252 194.4 251.1 194.1 249.4C193.7 247.3 193.2 245.2 193.3 243C193.5 240.5 193.5 237.9 193.8 235.4C194.1 233.2 193.6 230.9 193.3 228.7C192.9 226.1 191.9 223.6 191.4 220.9C191.2 219.5 191.2 218.2 191.2 216.9C191.1 214 190.5 211.1 190.4 208.2C190.3 206.1 190.8 204 191.1 201.9C191.8 197.7 192.5 193.5 194 189.4C194.8 187.3 195.7 185.2 196.1 182.9C196.6 179.7 197.4 176.6 198.4 173.5C199.2 171 199.4 168.6 198.5 166C197.2 161.7 197.4 157.4 199.1 153.2C199.3 152.7 200 152 199.4 151.6C198.9 151.2 198.3 151.8 197.8 152.2C192.7 156.1 188.3 160.7 185.4 166.5C181.2 175 178.5 184 178.9 193.6C179.1 197.3 178.9 201 178.4 204.6C178.1 208.9 177.9 213.1 177.7 217.4ZM233.2 188.1C233.1 186.8 233.5 185.5 233 184.3C231.5 180.6 231 176.8 231 172.8C231 170.3 230.5 167.9 229.8 165.5C228.6 161.4 226.5 157.6 225.8 153.4C225.7 152.7 225.2 152.2 224.5 152.1C222.6 151.6 220.9 150.6 219.2 149.6C215.7 147.6 211.9 147.6 208 148.1C204.6 148.6 203.4 149.7 202.5 153C201.6 156.6 201.3 160.2 201.3 163.9C201.3 165 201.1 166.1 201.6 167.3C203.8 171.9 205.8 176.5 207.7 181.2C209.2 185 211.6 188.4 212.9 192.2C213.5 194 214.2 195.6 215.7 197C218 199 220.4 200.8 222.9 202.3C223.4 202.6 223.9 202.9 224.5 202.8C226.9 202.5 229 201.8 230.3 199.4C232.4 195.9 233.5 192.2 233.2 188.1ZM94.5 155.9C94.5 150.2 91.9 147.4 88.4 145.1C88 144.9 87.6 144.8 87.2 144.7C83.6 144 80.3 144.9 77.3 146.8C74.6 148.4 72.3 150.4 70.5 153.1C70 153.9 69.1 154.5 69.3 155.6C69.4 156 69.1 156.3 68.7 156.5C68.3 156.7 68.1 156.9 68 157.3C67.1 160.4 66 163.4 65.5 166.7C64.6 172.6 64.1 178.6 62.7 184.4C62.4 185.7 62.3 187.1 62.6 188.4C62.9 189.7 63 191.1 63.1 192.4C63.2 193.7 63.7 195 64.9 195.6C67 196.7 69.4 197.4 71.7 196.6C76.8 194.7 81.6 192.2 84.2 187C86.7 181.9 90.2 177.4 92.1 172C93 169.5 93.8 167 94.2 164.3C94.7 161.1 94.8 158 94.5 155.9ZM132.1 65.1C132.1 66.7 132.2 67.9 132.1 69.2C131.6 75.4 131.1 81.7 131.5 88C131.8 93.1 131.7 98.2 130.8 103.3C130.5 104.8 130.6 104.8 132.1 104.7C132.4 104.7 132.7 104.7 132.9 104.7C137.3 104.7 141.3 106.3 145.3 108C146 108.3 146.5 108.4 147.3 108.2C152.9 106.4 158.2 103.7 164.3 103.5C163.3 101.2 163.4 98.9 163.4 96.6C163.3 92.3 163.4 88.1 163.6 83.8C163.6 82.9 164.3 82.2 164.2 81.3C163.3 76.4 162.9 71.4 163 66.4C163 66.3 162.9 66.2 162.8 65.9C161.8 67.3 160.3 68 159.3 69.2C158.2 70.5 156.7 71.1 155.3 72C152 74.1 148.5 75.5 144.6 74C143.3 73.5 142.1 73 140.8 72.5C139.6 72.1 138.7 71.4 137.8 70.6C136 68.8 134.2 67.1 132.1 65.1ZM99.3 403.6C99.2 405.4 98.2 406.8 98.1 408.5C98 410.4 97.9 412.3 97.6 414.2C96.9 418.4 97.3 422.5 97.7 426.6C97.9 429.2 98 431.8 97.7 434.4C97.3 437.9 97.9 438.8 100.8 440.3C103.1 441.5 105.6 442.2 108.2 442.7C110.4 443.2 112.6 443.1 114.7 442.3C115.4 442 115.7 441.3 116.4 441.2C118.4 440.9 119.8 439.6 121.3 438.4C122.9 437.1 124.2 435.6 125.8 434.2C126.8 433.3 127.4 432.4 127.8 431.2C128.8 428.1 129.8 425 130.1 421.7C130.5 417.5 131 413.2 130.3 408.9C130.1 407.4 130 405.9 130.6 404.4C129.6 404.5 129.3 405.3 128.8 405.9C127.2 407.7 125.2 408.5 122.8 408.3C119.9 408.1 117.1 407.2 114.6 405.5C112.7 404.2 110.6 403.5 108.3 404.6C107.2 405.1 106 405.4 104.8 405.9C102.8 406.7 101.5 406.4 100.2 404.7C99.9 404.3 99.6 403.9 99.3 403.6ZM164.7 406.5C164.5 407.8 164.2 409.1 164.1 410.3C163.8 413.7 164.3 417.2 164.7 420.5C165.3 425 166.7 429.4 168.1 433.8C168.3 434.5 168.6 435.1 169.2 435.4C171.5 436.6 173.7 438.3 176.1 438.9C179.6 439.9 183.2 439.7 186.6 438C190 436.3 192.4 433.5 194.6 430.6C195.8 429 196.3 426.9 196.4 424.7C196.6 417.2 195.5 409.7 195.8 402.2C195.8 402.1 195.7 402 195.7 401.9C195.4 401.8 195.3 402 195.2 402.1C193.8 403.3 192.2 403.9 190.4 403.8C188.7 403.8 187 403.6 185.3 403C182.9 402.3 180.8 402.6 178.9 404.3C178 405.1 177 405.8 176.1 406.6C174.1 408.1 172 408.7 169.6 407.9C168.1 407.7 166.4 407.2 164.7 406.5ZM177.9 104.3C177.9 104.4 177.9 104.5 177.9 104.6C178.9 104.9 179.8 105.3 180.7 105.5C184.2 106.1 187.4 107.2 190.4 109.2C190.9 109.6 191.6 109.9 192.2 110.1C196.8 111.3 200.1 114.1 202 118.5C203 120.8 204 123.1 204.7 125.5C206.1 130.3 208.9 134.2 212.2 137.9C214.8 140.8 217.8 143.2 220.6 145.9C221.6 146.9 223 147.4 224.3 148.1C224.7 148.3 224.9 148.3 224.9 147.8C224.9 147.5 225 147.2 225.1 147C227.2 142.6 227.4 137.8 228.1 133C228.5 130 227.7 127.1 228 124.2C228 123.8 227.9 123.3 227.6 123.1C226.8 122.6 226.7 121.9 226.4 121.2C225.7 119.9 225 118.6 224.2 117.4C221.1 113.1 217.2 109.7 213.4 106C210.6 103.3 207.3 101.7 203.5 100.9C203.1 100.8 202.6 100.8 202.2 100.9C201.5 101.1 200.8 100.9 200.1 100.8C198 100.5 195.8 100.1 193.7 100.5C189.9 101.2 186.1 102.3 182.2 103C180.8 103.3 179.3 103.6 177.9 104.3ZM112.1 107.5C111.6 107.3 111.3 107.2 111 107.1C107 105.7 103.2 104.1 99.6 101.8C98.5 101.1 97.2 100.8 95.8 100.7C90.9 100 87.1 102.5 83.6 105.4C82 106.7 80.7 108.4 79 109.6C77.6 110.5 76.5 111.6 75.5 112.9C72 117.5 69.7 122.6 68.6 128.2C68 131.2 66.9 134.2 67.1 137.4C67.4 141.5 67.6 145.5 67.8 149.6C67.8 149.9 67.7 150.4 68.1 150.5C68.4 150.6 68.7 150.3 68.9 150.1C71 148.4 73.1 146.6 75.3 145C80 141.4 84 137.1 87.6 132.5C89.7 129.8 90.7 126.5 92.9 123.8C94.3 122 95.1 119.9 96.6 118.2C101.1 113.4 105.8 109.5 112.1 107.5ZM100.4 99.9C102.8 100.8 105 102 107.3 103C109.3 103.9 111.1 105 113.3 105.2C116.7 105.6 120.1 105.9 123.5 106.3C124.4 106.4 125.3 106.3 126.1 106.1C127.7 105.6 128.6 104.3 128.8 102.7C129 101.1 129.3 99.5 128.8 97.9C128.5 96.9 129.2 96 129.3 95C129.5 93 129.1 90.9 129.2 89.3C129.2 88 129.2 87.2 129.2 86.3C129.2 85.8 129.5 85.2 128.8 85C128.2 84.8 127.7 85.1 127.3 85.6C125.7 88 123.6 89.8 121.1 91.3C120.7 91.5 120.5 91.9 120.1 92.2C117.6 94.1 115 95.9 112.1 97C108.4 98.5 104.5 99.4 100.4 99.1C100.1 99.1 99.8 99.1 99.8 99.4C99.9 99.7 100.1 99.8 100.4 99.9ZM124.9 438.4C124.5 438.6 124.4 438.6 124.3 438.7C122.4 440.3 120.6 442 118.3 443.1C117.7 443.4 117.7 443.9 117.8 444.4C117.9 446.2 118 448.1 118.1 449.9C118.4 455.2 119.2 460.5 120 465.8C120.8 470.8 121.4 475.8 123.4 480.6C124.3 482.8 125.3 484.8 126.7 486.7C126.9 487 127.1 487.4 127.5 487.4C128 487.3 127.8 486.8 127.9 486.5C128.2 485 128.3 483.5 128.3 482C128.4 478.1 128.3 474.2 127.7 470.3C126.7 464.3 125.5 458.4 124.8 452.3C124.5 449.7 123.9 447.1 124.2 444.5C124.4 442.5 124.7 440.5 124.9 438.4ZM167.3 486C168.1 483.3 169.4 481.1 170.1 478.6C171.7 472.5 172.7 466.3 174 460.1C175.1 454.3 175.7 448.5 175.7 442.6C175.7 441.8 175.5 441.3 174.6 441C173.5 440.6 172.4 440 171.3 439.6C170.9 439.4 170.6 439 170.2 439.2C169.8 439.5 170.2 439.9 170.2 440.3C170.2 440.7 170.2 441 170.2 441.4C170.8 447.1 169.1 452.5 168.4 458C168 461.3 167.3 464.7 167.1 468.1C166.9 473.3 166.6 478.5 166.8 483.7C166.9 484.3 166.9 485 167.3 486ZM94.4 480.5C95.1 480 95.4 479.4 95.6 478.9C96.6 477 97.1 474.9 97.5 472.7C98.6 466.5 99.8 460.4 100.8 454.2C101.3 451.1 101.5 447.9 101.9 444.8C102 443.7 101.7 443 100.6 442.6C99.7 442.3 98.9 441.7 98.1 441.2C97 440.4 97 440.4 96.7 441.8C96 445 95.9 448.3 94.9 451.4C93.5 455.5 93.2 459.7 93.2 464C93.2 467.3 93.1 470.5 93.4 473.8C93.7 476 94.1 478.2 94.4 480.5ZM129.2 161.5C129.2 161.6 129.2 161.6 129.2 161.7C130.1 161.7 131 161.7 132 161.7C136.5 161.5 140.7 162.5 144.9 164C146.1 164.4 146.9 164.4 147.9 163.7C151.6 161.3 156 160.7 160.4 159.9C159.4 159.5 158.4 159.3 157.6 158.7C155.5 157.3 153.5 155.7 151.2 154.6C150.2 154.1 149.3 153.2 148.6 152.3C147.1 150.4 147.1 150.4 145 151.7C144.6 151.9 144.3 152.2 143.9 152.5C140.8 154.7 137.8 157.1 134.3 158.8C132.6 159.6 130.9 160.5 129.2 161.5ZM166.3 85.5C166.1 85.9 166.1 86.2 166.2 86.5C167.3 90.3 166 94 165.8 97.8C165.7 99.4 166.1 100.9 166.7 102.3C166.9 102.7 167.1 103.1 167.5 103.1C168.8 103.1 170 103.5 171.3 103.2C174.9 102.4 178.3 101.1 182 100.7C184.1 100.5 186.1 100 188.1 99.5C188.4 99.4 188.7 99.4 188.7 99.1C188.7 98.7 188.4 98.7 188.1 98.6C187.2 98.4 186.4 98.2 185.6 98C183.5 97.4 181.6 96.3 179.8 95.2C177.1 93.6 174 92.5 171.6 90.3C169.8 88.7 168.1 87.1 166.3 85.5ZM202 470.6C202 470.1 201.9 469.5 201.9 468.9C201.7 465.8 201.1 462.8 200.9 459.8C200.6 455.6 200.1 451.3 199.3 447.1C198.7 443.8 198 440.5 197.7 437.1C197.6 435.8 197.4 434.6 197.2 433.3C197.2 433 197.2 432.6 196.8 432.5C196.5 432.4 196.4 432.8 196.2 433C195.3 433.9 194.5 434.9 193.6 435.8C192.8 436.5 192.7 437.3 192.9 438.3C193.5 440.8 194 443.4 194.5 445.9C195.8 452.8 196.6 459.7 198.3 466.5C198.7 468.2 199.1 469.8 200.3 471.2C200.7 471.6 201.2 472.4 201.7 472.2C202.3 472 201.8 471.1 202 470.6ZM171.1 163.1C172.2 165.4 173.3 167.3 173.8 169.4C174.5 172.7 175.1 176 175.4 179.3C175.6 181 175.7 182.6 175.5 184.3C175.3 185.9 175.1 187.5 175.2 189.2C175.4 193.7 175.7 198.2 175.9 202.7C175.4 187.1 177.7 172.1 187.3 159.1C182.2 161.3 177.3 164.4 171.1 163.1ZM124.9 50.2C124.7 48.1 124.4 46.2 124.2 44.3C124 42.4 123.9 40.5 123.8 38.6C123.8 37.6 123 37.2 122.3 37.1C121.5 37 121.7 37.9 121.7 38.4C121.6 40.5 121.5 42.6 121.7 44.8C122.1 46.9 122.9 48.8 124.9 50.2ZM169.1 50.5C170.4 49.6 170.9 48.6 171.3 47.4C171.8 45.8 172.1 44.2 172.3 42.5C172.4 41.6 172.6 40.7 172.6 39.8C172.6 39.3 172.4 38.5 171.8 38.6C171.2 38.7 170.6 39 170.5 39.8C170.5 40 170.5 40.1 170.5 40.3C170.5 41.4 170.3 42.5 170.1 43.6C169.7 45.8 169.3 47.9 169.1 50.5Z" fill="black"/>
<path d="M92.7 151.5C92.1 151 91.4 150.5 91.2 149.5C92.2 149.9 92.4 150.7 92.7 151.5Z" fill="black"/>
</svg>
